<svg width="500" height="500" viewBox="0 0 500 500" fill="none" xmlns="http://www.w3.org/2000/svg">
<g id="puzzle connection">
<path id="cut-shape/color__illustration__accent__tangerine" fill-rule="evenodd" clip-rule="evenodd" d="M191.5 144C188.3 145.5 186.3 149.8 185.1 154C183 162.5 178 164 176.4 156C176.2 151.5 171.3 147.5 166.9 148.9C165.5 149.4 164.8 150.3 164.8 151.5C164.6 154.1 160 159.9 156.6 161.3C154.7 162.8 150.2 161.9 148.9 163.3C147 165.6 149.3 171 151.5 172.5C155.3 177 163.5 172.3 165.2 175.7C168.7 182.8 136.4 196.2 151 207.5C154.6 210.2 159 216.2 163.6 216.2C169.6 210.7 165.9 196.9 181.4 208.7C189.8 217.9 172.9 222.5 172.8 228.9C176.3 233.3 179.8 240 184.2 243.7C186.3 245.1 192.6 243.8 194.4 241.9C197.1 239.5 197.6 232.1 201.5 230.7C203.7 229 208.5 224 212.7 224.3C216.2 224.7 218.7 225.2 219.9 229.7C223.4 237.8 232.5 234.2 238 229.2C240.5 226.7 244.1 218.7 239.7 217.2C232.9 212.8 224.1 213.3 230.6 203C237.6 196.3 256.7 186.4 243.5 177.4C237.9 173.4 229.8 165.8 222.6 166.7C219.3 166.2 216.1 178.2 213.4 179.3C207.9 183.2 201.9 178.8 202.5 172.6C206.6 172 214.2 166.2 215.8 163.4C218.5 155.7 209.8 151.4 203.6 147.9C198.1 144.2 196.1 143.1 191.5 144Z" fill="#FF8C19"/>
<path id="skin/color__illustration__skin09" fill-rule="evenodd" clip-rule="evenodd" d="M265.6 271.9C254.4 270.6 258.7 285.3 248.7 285.2C244.6 285.3 241.7 286.7 237.8 287C224.7 287.8 213.5 304.2 227.1 312.7C238 320.5 250.2 322.1 264.7 319.9C265.7 319.6 267.8 319.6 268.6 319C269 318.7 269.1 318.7 269.9 319.1C270.7 319.5 270.8 319.6 270.3 319.7C268.8 319.9 266 322.9 264.5 323.2C263.5 323.2 262.6 323.8 260.9 325.6C258.3 328.4 255.3 333 255.3 336.9C254.9 340.1 258.5 343.4 259.2 345.6C259.6 348.5 263.4 352.4 265.9 355C262.4 360.9 262.8 363.1 262.6 369.1C260.9 375.3 265.8 381.2 270.3 384.1C263.4 392.7 265.1 413.3 275.5 417.9C280 419.4 291.2 425.9 295.2 426.7C299.7 428.9 306.6 427.2 310.6 430.3C312.3 430.5 312.1 432.2 313.9 432C318.1 432.5 320.5 436.3 325.2 438.9C333.3 444.9 339 446.8 345.7 453.8C351.2 459 357.2 462.7 363.4 465.7C368.3 467.7 376.4 475.9 381.6 476.9C386.1 478.2 389.6 480.9 394.6 480.8C401.5 481.1 404.3 483.4 410.8 483C416.6 481.2 419.2 479.5 422.3 472.9C424.5 467.8 428.2 462.8 430.6 459.6C442.2 444.1 466.3 431.5 473.2 413.9C473.3 413.3 473.5 413.2 473.8 413.4C475.9 414.7 478.4 412 476.2 410.8C471.8 406.6 468.8 401.3 465.6 395.6C460.8 384.4 453.4 376.7 446 367.7C441.4 361.1 430.6 346.8 427.7 342.5C415.5 326.8 409.8 306.6 390.6 299.1C373.4 294 349.4 286.5 332.5 281.9C326.7 280.6 324 281.2 317.8 279.7C314.7 279.1 307.6 277.2 304.8 277.7C297.1 277.7 290.7 279.9 283.3 276.5C277.9 273.6 276.8 274.7 271.8 272.5C269.3 271.7 268.3 271.6 265.6 271.9ZM349.8 305.3C351 306.7 347.8 305.2 347.2 304.9C347.8 304.9 349.3 305.1 349.8 305.3ZM318.1 403.2C316.9 405 316.8 401.6 317.4 401C317.9 400.4 318.1 403.1 318.1 403.2Z" fill="#DBA889"/>
<path id="skin/color__illustration__skin12" d="M82.9 18.8C86.7 16.1 97.7 16.6 101 17.3C106.1 17.9 109.7 17.8 113.9 18.9C122.6 20.1 127.5 23.3 132.1 29.8C140.5 36.4 146 46.9 151.5 55.3C159.8 68.7 175.4 83.7 174.5 100.5C172.4 107.7 181.1 138.8 179.5 146.7C178.1 148.5 177 153.5 175.1 154.6C173.2 155.7 169.8 152.9 169.7 150.8C169.8 149 166.8 151.8 165.8 152.1C157.7 149.4 162.3 159 155.6 162.1C151.1 164.5 146.5 159.9 151.9 168.9C153.7 172.6 160 169.4 161.7 171.9C165 173.9 166.1 180.8 161.2 182.2C160.4 182.5 160.2 182.8 157.7 186.8C155.4 190.9 153 195.2 150.6 199.3C142.8 215.1 128.1 199.5 127.9 188.4C118.4 194.3 112.3 193.3 106 183C102.3 192.4 85.8 200 79.6 188C71.5 201.6 60.9 198.9 53.5 185.7C46.8 176.1 41.8 155.8 57.5 154.3C48 141.1 38.1 125 32.5 109C29.5 102.2 31.2 91.5 25.9 85.9C20.7 75.9 23.2 60.9 30 52.8C32.7 50.4 34 43.1 40 39.3C46.1 33.1 55.6 29.7 63.7 26.7C70.3 23.3 76.5 20.5 82.9 18.8Z" fill="#AD785C"/>
<path id="fixed-line/color__illustration__fixedline" fill-rule="evenodd" clip-rule="evenodd" d="M73.5 36.5999C73 37.0999 72.9 37.5999 72.8 39.8999C72.9 44.0999 69.3 49.4999 71.1 54.7999C72.8 61.8999 73.6 64.6999 77.3 62.8999C78.2 61.1999 75.7 51.5999 77 49.5999C78.5 45.2999 79.5 34.6999 73.5 36.5999ZM134.5 71.3999C134.1 71.9999 133.2 73.9999 133.2 74.4999C133.2 75.7999 134.2 78.0999 137.4 84.5999C141.2 92.0999 141.8 93.0999 143 93.6999C149 97.2999 153.6 102.2 155.9 108.7C157.8 114.2 155.6 126.9 160 134.4C161.5 138 163.8 144 163.5 145.9C163.3 147.1 162.9 147.7 162.9 146.7C162.6 143.4 158.1 134 153.6 131.3C149.7 129.7 142.1 135.7 141.2 139.3C139.4 146.2 146.6 155 151.1 157.9C154 158.9 156.8 155.1 159.5 154C162.4 152.5 157 159.2 156 159.2C151.3 164 145.6 159.2 142.4 154.5C139.6 150.7 137.2 146.7 134.9 142.6C131.9 137.3 131.1 138 130 129.4C128.7 121.9 126.5 114.9 121.7 109.5C119.3 107.2 121.8 107.7 121.3 105.8C119.2 102.5 105.6 98.9999 100.9 96.1999C90.2 91.1999 87.8 85.7999 83.1 76.5999C74.3 75.7999 80.5 88.8999 84.7 91.9999C90 96.3999 98.3 99.7999 104.9 102.6C108.9 103.7 113.3 106.4 116.4 108.7C117.2 108.9 117.5 109.4 119.6 113.6C123.5 121.4 123.2 129 125.2 137C125.7 140 133.1 147 135.1 150.5C135.6 151.5 139.2 155.9 138.4 156.7C138.2 157.1 137.9 158.2 137.7 159.2C134.5 171.3 123.7 184.8 133.3 196.3C134.1 196.4 134.1 196.2 133.6 193.7C133.1 191.5 133.1 188.4 133.4 187.7C135 177.9 140.6 168.9 141.5 159.1C153.4 169 163.7 163.6 167.9 150.6C171.1 144.5 163.1 132.7 162.7 128.9C163.9 126.1 178 122.8 171.1 118.9C170.3 118.9 166.1 121.1 164.3 122.5C162.2 124.1 162.2 124.1 162.2 122.1C162.2 114.8 161.2 106.6 157.1 100.9C157.3 100.4 164.6 96.6999 164.8 95.5999C164.6 90.5999 158 95.9999 155.4 98.4999C152.2 94.8999 148.2 93.0999 145.8 90.1999C143.1 87.5999 138.5 70.4999 134.5 71.3999ZM68.6 91.0999C67.3 94.0999 69.9 98.6999 69.4 102.7C69.1 110 67.2 118.2 63.1 126C59.7 131.3 61.8 136 66.5 133.8C68.1 132.4 70 128.8 71.5 126.1C74.6 120.7 76.6 110.6 75.8 104.6C74.4 98.1999 73.3 89.4999 68.6 91.0999ZM140.4 100.4C138.2 102.9 133.5 104.4 132.6 107.5C132.5 110.2 135.4 108.8 137.2 108.7C138.6 108.8 139.5 106.4 141.1 105.5C144.8 103.6 144.4 97.0999 140.4 100.4ZM146.3 107.7C144.7 108.6 144 109.1 140.4 111.7C136.5 114.7 135.9 115.4 136.8 116.1C139.6 117.1 145.6 111.8 148 110C149.4 108.1 148.7 105.8 146.3 107.7ZM100.6 130C95.3 131.3 89.4 137.9 89.4 144.5C89.1 145.8 94.9 157.8 96.7 161.7C100.6 167.1 102.2 178.5 108.6 182.2C111.7 184.4 114.1 182 110.9 181C110.4 180.6 107.8 174.1 106.6 170.5C104.2 161.1 91.3 147.7 98 138.5C99.8 142.5 104.6 136.6 106.4 138.9C108.2 139.9 111.2 145.8 111.2 146.7C109.3 147.3 106.9 148.5 104.7 149.2C99 151.4 106.9 152.7 110.5 150.6C111.8 149.9 114.7 149.7 115.3 148.5C115.9 147.1 114.1 145.4 113.1 142.9C111 138.7 106.3 134.2 102.1 135.1C101.4 135.3 100.8 135.4 100.7 135.3C104 129.1 114 138.4 116 140.5C117.3 142.5 118.3 143.7 119.5 147.9C120.8 152.2 123 157.4 123.9 162C124.5 165.5 126.1 170.3 130.1 169.6C130.4 162.5 128 157.1 124 147.7C121.5 139.7 109.8 129.5 100.6 130ZM154.8 135.5C156.4 139.2 158.7 140.9 159 145.7C159.5 149.3 159.5 149.2 157.2 150.4C155 151.1 152.3 154.7 150.1 154C148.6 153.1 145.8 148.7 144.6 146.3C144.6 145 144.6 141.3 144.8 140.6C145.5 139.5 154.2 131 154.8 135.5ZM77.7 140.8C69.1 141.6 65.9 149.4 67.7 157C64.8 156 62.1 153.7 58.4 156C55 157.6 49.2 162.8 51.2 166.5C52.6 168.1 54.7 159.7 59 160.1C63.8 159.5 67.1 166.6 70 168.9C72.5 171.5 75.9 179 77.6 182.5C77.6 186.5 89.1 198.1 86.9 191.9C84.5 190 82 183.7 80.6 180.2C75.8 171.2 72.8 159.6 75 149.4C75.9 144.1 82.6 144.1 86.8 143.2C89 142 82 140.2 77.7 140.8ZM79.3 145.7C75.9 147.9 76.8 150.1 80.5 150.4C81.8 149.9 83.9 147.6 84.9 149.8C85.4 150.7 85.4 150.7 84.9 151.1C82.8 153.6 75.4 153.7 78.1 156.8C78.7 157.3 79 157.3 80.7 157.2C84.4 156.9 90.4 154.8 88.8 150.7C86.9 147.2 82.9 144.4 79.3 145.7ZM132.4 155.6C132.3 155.8 132.3 156 132.4 156.1C132.9 156.5 132.8 154.9 132.4 155.6ZM57.7 161.9C56 162.8 53.6 165.7 56.5 165.9C57.4 165.6 57.4 164.7 58.7 165.5C59.5 165.9 61.3 167.4 59.9 167.3C55.5 167.8 49.6 175.8 58.3 172.7C61.1 172.9 67.6 168.3 65.1 165.5C63.3 163.4 60.8 160.1 57.7 161.9ZM268.8 273.4C268.2 273.8 268.2 275.6 268.8 275.6C272.3 276.7 276.6 280.3 280.5 281.7C284 282.2 279.3 284.8 277.6 286.6C275.3 288.2 275 292.2 273.3 293.6C269.9 291.9 262.6 287.2 265.1 282C265.8 280.4 266.1 277.7 265.7 276.9C265.2 276 264.4 276.3 262.9 277.9C260.2 280.3 259.7 283.1 259.8 286.5C264.8 292 271 297.6 277.9 296.1C279.9 294.9 281.1 290 283 288.1C284.7 287.1 283.8 283.5 284.4 282.5C288.4 281.8 269.1 272.1 268.8 273.4ZM291.1 280C288.5 280.3 288.2 281.8 290.3 282C295 283.6 302.3 286.8 307.1 287.6C320.8 292.5 324.4 299.5 337.3 303.6C342.7 305.9 346.8 306.2 351.8 308.1C358 311.8 369.2 317.8 374.3 319.4C386.6 323.1 367.3 312 365.6 310.4C365.6 309.9 367.4 308.2 368.8 307.4C370.8 306.2 371.4 305.2 371.6 302.8C372.4 294.1 363.2 304.8 362.7 307.3C362.3 309.5 357 304.5 354.6 304.5C347.6 302.1 347.9 303.3 343.3 300.5C344.1 298.3 348.2 295.1 344.7 293.7C344 293.6 341.1 298 340.6 299.3C340.2 299.8 331.6 294.7 327.6 291.7C321.9 287.6 316.2 285.5 309.5 284C304.4 283.6 296.3 279.1 291.1 280ZM255.4 288C255.1 305.7 278.9 318.7 292.8 326.2C296.7 328.8 300.5 326.4 296.9 325.4C296.2 325.4 295.6 325.1 294.4 324.3C283.6 318.4 272.6 312 264.8 301.6C258.9 295.8 261.6 286.4 255.4 288ZM304.6 289.7C302.3 293 291.3 307.4 300.7 308.3C302.8 309.2 308.3 293.6 308.7 292.7C310.1 289.9 306.2 287.7 304.6 289.7ZM311.4 298C310.9 299.9 310.3 303.8 311.9 304.7C313.7 304.5 315.8 296.1 312.4 296.7C311.9 296.6 311.8 296.7 311.4 298ZM300.7 329.7C302 332.6 301.3 330.1 310.6 340.2C325.7 355.5 320.5 353.4 309.1 344.1C305.1 341.2 296.4 337 293.7 334.3C291.9 331.9 288.8 332.7 290.8 335.6C294.3 340.4 304 344.6 308.8 349.9C305.6 349.6 305.7 350.6 307.9 352.6C305.3 353.3 304.6 353.4 302.9 357.2C300.1 363.3 298.6 368.3 304.7 370.7C308.2 371.3 316.1 379.7 320.1 377.3C323.5 376.7 325.2 374.3 326.4 369.8C326.1 366.1 324.3 362.7 321.8 359.5C328 362 329.8 369.8 325.1 375.4C324.4 377 320.7 378.8 318.7 379.9C318.2 380.3 316.4 380.3 316.5 381.2C317.8 383.9 322.9 383.3 324.3 381.7C327.1 383.1 329.7 391 327.8 394.2C326 396.6 326.8 399 322.3 396.4C319.7 394.6 315.1 394.9 316.2 391.7C316.3 387.6 321 385.7 318.2 383.8C312.6 381.5 311.2 385.5 310.7 390.6C302.3 390.1 319.3 398.8 321.6 399.5C312.5 397.4 299 392.2 289.8 388C285.9 386.6 271.4 378 269 380.1C275.5 386.1 287.9 390.8 296.2 394.9C297.1 395.2 297.4 395.6 296.9 396C293.1 402.5 298.2 408.9 304.8 409.8C307.2 410.4 309.2 410.7 309.9 410.6C311 410.4 310.7 410.9 309.4 411.3C305.7 413.2 301.8 412.3 285.8 412.4C279.6 412.3 279.4 412.3 278.9 412.8C277 417.7 299.5 417.9 303 418.2C300.8 425.6 309.8 426.9 308.8 422.8C308.4 421 309.6 419.8 309.6 418.3C309.5 417 312.5 417.4 313.9 416.2C318.6 413.5 323.6 408.9 321.4 403.2C320.3 402.3 328 402.8 328 402.4C335.2 398.9 335 396.1 334.4 388.6C332.2 381.3 325.1 380.7 327.7 379.5C334.8 370.7 330 372.1 337.3 384.1C349.8 407.9 361.6 424.8 385 439.2C384.8 439.9 385.6 440.6 386.5 440.6C388.9 442.6 388.6 445.8 391.7 451.1C394.3 454.2 401 455.2 396.6 448.8C395.6 446.5 393.9 444.7 396.5 446.5C399.1 448.9 406.8 450.4 403.1 447.7C391.1 439.2 377.9 432.3 368.6 421.9C354.9 405.8 347.8 390.6 337.9 370.8C333.2 362.3 330.6 353 323.8 345.8C315 338 307.8 330 300.7 329.7ZM315.3 359.1C318.4 363.2 320.9 366.3 320.3 370.5C319.7 372.7 318.7 375.1 316.5 374.1C316.2 373.6 308.4 369.6 306.4 368.7C303.5 364.5 309.7 358.9 310.7 354.9C312 356 314.3 357.9 315.3 359.1ZM271.9 355.6C271.5 357.2 272.8 355.6 272.8 356.3C272.9 356.9 279 362.4 282.1 363.8C288.6 368.2 296.4 374.3 303.5 377.9C306.3 379.7 310.8 382.3 313.8 382C315.8 382 316.3 380.2 314.4 379.4C310.8 376.5 304.1 372.8 299.7 370.3C295.3 367.2 286.8 361.7 282.1 359.4C279.4 357.8 274.6 354.7 271.9 355.6ZM304.3 397.4C307.9 399.1 311.8 400.3 315.3 401.4C315.3 406.1 314.8 407.2 309.1 406.8C303.5 406.7 299.2 407 301.2 400C302.2 397.2 300.6 395.1 304.3 397.4ZM340.3 400.3C333.4 401.1 325 416.3 325.6 423.5C324.8 426.6 328.5 430.4 329.5 427.4C330 424 332.5 417.4 334.5 415.7C335.3 414.7 347.5 398.1 340.3 400.3ZM347.9 411.4C346 413.2 342.8 431.1 349.2 429C350.4 427.9 350.1 417.8 350.5 415.2C351.4 412.2 349.6 409.4 347.9 411.4Z" fill="#1E1919"/>
<g id="dynamic-line/color__illustration__dynamicline">
<path d="M60.7 3.10006C65.8 -5.69994 64.9 7.30006 65.5 12.5001C65.7 16.8001 65.4 17.8001 64.2 18.3001C59.7 20.1001 59.6 2.90006 60.7 3.10006Z" fill="#1E1919"/>
<path d="M113 9.80006C112.1 3.70006 111.7 1.70006 116.3 2.30006C117.1 4.90006 117.8 9.90006 117.5 11.5001C116.6 14.3001 113.1 13.8001 113 9.80006Z" fill="#1E1919"/>
<path d="M137.5 4.60006C146.1 -3.19994 145.6 35.5001 139.4 35.6001C135.4 31.5001 139.8 12.9001 137.5 4.60006Z" fill="#1E1919"/>
<path d="M28.2 23.3001C25.9 18.8001 29.7 12.0001 31.2 17.4001C31.3 22.0001 41.2 37.4001 34.8 35.5001C31 34.9001 30.3 28.5001 28.2 23.3001Z" fill="#1E1919"/>
<path d="M15.4 42.6001C14.4 39.2001 14.1 37.3001 16.8 38.4001C18.2 39.1001 21.5 49.8001 22.3 54.3001C23.1 67.4001 17.4 52.4001 15.4 42.6001Z" fill="#1E1919"/>
<path d="M464 392.5C463.8 391.6 470.7 383.7 473.1 385.8C480.8 386.4 481.3 388.8 486.4 394.4C489 397.5 493.5 402.6 495.9 405.5C495.9 406.3 493.1 407 491.9 406.5C486.3 403.3 480.1 391.6 473.8 388.7C472 389.8 469.5 391.5 468.1 392.9C466.3 394.9 464.7 394.4 464 392.5Z" fill="#1E1919"/>
<path d="M471.1 394.7C470.7 394.1 470.7 393.2 471.1 393C477.7 395 478.2 404.3 478.4 411.8C478.8 434.9 430.4 454.9 423.6 477.9C421.6 483.4 418.1 494.1 413.5 491.7C411.6 491 417.7 483 418.2 481.6C420.3 477 420.9 472.7 423.2 468.7C429.5 459.6 443 447.1 451.6 439.6C467.3 427.1 478.7 414.3 471.1 394.7Z" fill="#1E1919"/>
<path d="M490.8 424.9C489.7 424.5 491.4 422.9 492.7 424.2C496.8 430.5 484.7 443.6 478.3 448.1C475 450.4 470.9 453.8 467 456.3C459.6 460.6 450.8 473.5 445 476.4C439 480.4 448.8 467 451.5 463.9C462.1 450 479.7 445.7 489 431.5C490 429.7 492.2 426.1 490.8 424.9Z" fill="#1E1919"/>
<path d="M400 486.6C400.9 485.1 401 484.1 402.5 485.8C403.3 486.7 403.3 486.7 403.2 488.4C402.9 490.6 400.6 497.8 399.6 499.7C391.2 501.7 397.9 490.1 400 486.6Z" fill="#1E1919"/>
<path fill-rule="evenodd" clip-rule="evenodd" d="M250 158C247.7 160.4 245.5 172.7 249.6 174C250.3 174 254.8 155.6 250 158Z" fill="#1E1919"/>
<path fill-rule="evenodd" clip-rule="evenodd" d="M266.5 160.4C264.4 162.8 258.2 171.4 263.6 172.3C264.5 173.2 270.1 157.3 266.5 160.4Z" fill="#1E1919"/>
<path fill-rule="evenodd" clip-rule="evenodd" d="M282.1 168.7C281.6 169.2 267.6 177.6 272.8 178.9C275.6 180.8 286.4 170.9 286.1 170.5C286.8 168.7 284.4 167.6 282.1 168.7Z" fill="#1E1919"/>
<path fill-rule="evenodd" clip-rule="evenodd" d="M279.4 184.8C277.6 185 273 185.5 272 186.6C270.9 187.9 271.7 188.5 274 188.1C280.3 186.9 282.8 186.1 283.4 184.9C283.7 184.5 284.1 184.5 279.4 184.8Z" fill="#1E1919"/>
<path fill-rule="evenodd" clip-rule="evenodd" d="M249.9 189.6C247.2 191.4 245.9 193.7 242.7 197C236.2 205.1 231.6 206.5 236.2 211C240.9 216 246.9 212.5 246.1 220.2C247.2 227 244.4 230.8 238.8 234.5C228.8 242 242.3 238.8 246.8 233.7C250.3 229.5 251.7 229.1 251.8 220.4C251.7 215.5 247.3 214 241.8 212C233 211.1 244.4 203.3 246.4 200.2C250 196.6 254.3 189.6 259.2 193.7C262.1 199.6 260 205.2 265.1 211.9C267.1 214.8 270.3 219.1 274 216.4C278.7 213.3 274.6 202.2 280.7 199.2C283.7 196.9 291.7 198.2 293.9 200.9C298.2 206.3 302.5 215.1 297.6 221.7C295.2 225.6 286.2 224.1 285.9 229.8C285.9 231.3 286.3 231.7 287.4 231.5C288.2 231.3 288.3 231.2 288.6 230.1C291 223.7 300.1 227.3 302.5 220.2C309.6 202.8 274.4 179 273.1 206.7C273.5 212.6 269.9 217.7 266.5 211.2C263.1 204.6 265.3 197.4 260.8 192.2C258.1 190.1 252.9 188.4 249.9 189.6Z" fill="#1E1919"/>
<path fill-rule="evenodd" clip-rule="evenodd" d="M212.2 229.6C210.2 230.3 204.4 239.4 201.9 242.4C200.3 244.4 198 247.4 197.9 250.2C198.9 255 207.9 257.8 210.8 260.8C217.5 268.2 205.8 273.3 202.8 278.8C202.2 282.7 201.5 286 205.1 289C213.3 298.6 222.8 288.2 230.1 283.3C235.1 280.3 240.4 286.3 244.2 288.7C263.3 302.2 236.7 275 230 276.7C220.4 276.9 220.2 292.8 208.6 289.4C205.3 289.6 204.8 279.4 208.5 277.4C213.7 274.6 216.5 266.8 214.3 261C212.8 254.5 199.9 253.2 201.7 250C224.3 220.4 207.7 238 230.8 239.8C235.5 240 236 239.7 232.3 238.8C224.7 238.6 218.8 227.8 212.2 229.6Z" fill="#1E1919"/>
<path fill-rule="evenodd" clip-rule="evenodd" d="M287.4 232.2C288.6 241.3 304.8 237.9 302.2 245.3C301.1 247.3 297.6 252.5 297.7 254.2C297.1 257.1 290.6 265.4 288.9 265.8C286 261.4 277.8 251.2 271.3 256.3C266.9 258.2 260.6 265.5 265 270.2C265.3 270.5 265.5 270.4 266 269.9C266.5 269.4 267.3 267 267.3 266C268 264.2 272.3 261.2 274.1 259.6C276 256.9 277.4 259 279.5 259.4C284 260.8 284.9 268.8 289.9 270.2C294.7 269.4 299.2 259.3 300.9 255.6C301.3 252.9 305.7 249.6 305.5 246.2C305.2 241.6 300.2 236.6 295.2 236C292.9 236.1 292.3 234.9 290.4 234.3C289.3 234.4 287.6 230 287.4 232.2Z" fill="#1E1919"/>
<path d="M85.7 12.0001C88.5 14.8001 91.1 13.6001 89.6 8.10006C89.4 3.60006 88 -1.29994 84.6 1.90006C84.6 3.90006 85.4 9.90006 85.7 12.0001Z" fill="#1E1919"/>
<path d="M93.8 17.8001C86.1 18.4001 75.7 21.1001 68.6 24.8001C62 28.2001 51.9 31.1001 45.4 34.9001C40.9 36.8001 39.3 40.4001 35.5 43.5001C30.8 47.1001 30.4 51.3001 27.3 56.7001C20.4 67.7001 21.5 79.6001 26.5 89.8001C19.8 80.4001 16.8 69.1001 12.4 58.8001C10.7 56.3001 8.90001 48.9001 5.80001 49.5001C0.50001 48.3001 12.2 75.3001 12.9 78.2001C16.8 84.3001 21.5 97.5001 30.5 95.7001C34.9 88.9001 20.2 80.2001 30.5 60.9001C34.3 55.6001 35.7 49.1001 41.6 44.7001C43.3 43.3001 46.2 40.4001 47.9 38.6001C57.1 33.5001 66.6 30.9001 75.3 26.5001C88.2 20.1001 102.7 18.6001 117.1 22.9001C117.4 22.9001 122.6 24.4001 124.4 25.0001C125.6 25.4001 135.2 30.7001 135.3 28.9001C135.5 20.0001 100.4 17.0001 93.8 17.8001Z" fill="#1E1919"/>
</g>
</g>
</svg>
