<svg xmlns="http://www.w3.org/2000/svg" xmlns:xlink="http://www.w3.org/1999/xlink" width="480" zoomAndPan="magnify" viewBox="0 0 360 112.499997" height="150" preserveAspectRatio="xMidYMid meet" version="1.0"><defs><g/><clipPath id="id1"><path d="M 11.996094 11.238281 L 65 11.238281 L 65 45 L 11.996094 45 Z M 11.996094 11.238281 " clip-rule="nonzero"/></clipPath><clipPath id="id2"><path d="M 64 11.238281 L 117.277344 11.238281 L 117.277344 45 L 64 45 Z M 64 11.238281 " clip-rule="nonzero"/></clipPath><clipPath id="id3"><path d="M 11.996094 44 L 65 44 L 65 79 L 11.996094 79 Z M 11.996094 44 " clip-rule="nonzero"/></clipPath><clipPath id="id4"><path d="M 64 44 L 117.277344 44 L 117.277344 79 L 64 79 Z M 64 44 " clip-rule="nonzero"/></clipPath><clipPath id="id5"><path d="M 38 67 L 91 67 L 91 100.839844 L 38 100.839844 Z M 38 67 " clip-rule="nonzero"/></clipPath></defs><g clip-path="url(#id1)"><path fill="rgb(0%, 38.038635%, 100%)" d="M 38.316406 11.308594 L 11.996094 28.078125 L 38.316406 44.847656 L 64.636719 28.078125 Z M 38.316406 11.308594 " fill-opacity="1" fill-rule="nonzero"/></g><g clip-path="url(#id2)"><path fill="rgb(0%, 38.038635%, 100%)" d="M 90.957031 11.308594 L 64.636719 28.078125 L 90.957031 44.851562 L 117.277344 28.078125 Z M 90.957031 11.308594 " fill-opacity="1" fill-rule="nonzero"/></g><g clip-path="url(#id3)"><path fill="rgb(0%, 38.038635%, 100%)" d="M 11.996094 61.621094 L 38.316406 78.394531 L 64.636719 61.621094 L 38.316406 44.851562 Z M 11.996094 61.621094 " fill-opacity="1" fill-rule="nonzero"/></g><g clip-path="url(#id4)"><path fill="rgb(0%, 38.038635%, 100%)" d="M 90.957031 44.851562 L 64.636719 61.621094 L 90.957031 78.398438 L 117.277344 61.621094 Z M 90.957031 44.851562 " fill-opacity="1" fill-rule="nonzero"/></g><g clip-path="url(#id5)"><path fill="rgb(0%, 38.038635%, 100%)" d="M 38.316406 84.019531 L 64.640625 100.789062 L 90.957031 84.019531 L 64.640625 67.25 Z M 38.316406 84.019531 " fill-opacity="1" fill-rule="nonzero"/></g><g fill="rgb(85.099792%, 85.488892%, 85.879517%)" fill-opacity="1"><g transform="translate(132.011438, 44.782551)"><g><path d="M 4.488281 0 L 11.171875 0 C 19.5625 0 24.289062 -4.632812 24.289062 -12.75 C 24.289062 -21.191406 19.652344 -25.882812 11.210938 -25.882812 L 4.488281 -25.882812 Z M 5.933594 -1.355469 L 5.933594 -24.527344 L 11.191406 -24.527344 C 18.886719 -24.527344 22.839844 -20.535156 22.839844 -12.804688 C 22.839844 -5.257812 18.535156 -1.355469 11.0625 -1.355469 Z M 5.933594 -1.355469 "/></g></g></g><g fill="rgb(85.099792%, 85.488892%, 85.879517%)" fill-opacity="1"><g transform="translate(159.117603, 44.782551)"><g><path d="M 3.589844 0 L 4.945312 0 L 4.945312 -10.148438 C 4.945312 -15.277344 8.1875 -17.164062 10.808594 -17.164062 C 11.539062 -17.164062 12.273438 -17 12.933594 -16.707031 L 13.574219 -17.878906 C 12.820312 -18.316406 11.886719 -18.535156 10.972656 -18.535156 C 8.71875 -18.535156 5.953125 -17.21875 4.964844 -14.085938 L 4.964844 -18.296875 L 3.589844 -18.296875 Z M 3.589844 0 "/></g></g></g><g fill="rgb(85.099792%, 85.488892%, 85.879517%)" fill-opacity="1"><g transform="translate(173.421605, 44.782551)"><g><path d="M 10.605469 0.238281 C 15.585938 0.238281 19.25 -3.902344 19.25 -9.195312 C 19.25 -14.453125 15.585938 -18.535156 10.605469 -18.535156 C 5.625 -18.535156 2.050781 -14.453125 2.050781 -9.195312 C 2.050781 -3.863281 5.625 0.238281 10.605469 0.238281 Z M 10.605469 -1.007812 C 6.355469 -1.007812 3.480469 -4.578125 3.480469 -9.195312 C 3.480469 -13.773438 6.355469 -17.292969 10.605469 -17.292969 C 14.890625 -17.292969 17.804688 -13.738281 17.804688 -9.195312 C 17.804688 -4.617188 14.890625 -1.007812 10.605469 -1.007812 Z M 10.605469 -1.007812 "/></g></g></g><g fill="rgb(85.099792%, 85.488892%, 85.879517%)" fill-opacity="1"><g transform="translate(194.721928, 44.782551)"><g><path d="M 3.625 7.582031 L 5.054688 7.582031 L 5.054688 -5.128906 C 6.136719 -1.886719 8.902344 0.238281 12.289062 0.238281 C 17.144531 0.238281 20.003906 -3.882812 20.003906 -9.121094 C 20.003906 -14.378906 17.144531 -18.535156 12.308594 -18.535156 C 8.921875 -18.535156 6.136719 -16.410156 5.054688 -13.152344 L 5.054688 -18.296875 L 3.625 -18.296875 Z M 12.015625 -1.0625 C 7.859375 -1.0625 4.964844 -4.523438 4.964844 -9.121094 C 4.964844 -13.757812 7.859375 -17.234375 12.015625 -17.234375 C 16.230469 -17.234375 18.589844 -13.71875 18.589844 -9.121094 C 18.589844 -4.5625 16.230469 -1.0625 12.015625 -1.0625 Z M 12.015625 -1.0625 "/></g></g></g><g fill="rgb(85.099792%, 85.488892%, 85.879517%)" fill-opacity="1"><g transform="translate(216.90137, 44.782551)"><g><path d="M 12.308594 0.238281 C 17.144531 0.238281 20.003906 -3.917969 20.003906 -9.175781 C 20.003906 -14.414062 17.144531 -18.535156 12.289062 -18.535156 C 8.902344 -18.535156 6.136719 -16.410156 5.054688 -13.171875 L 5.054688 -25.882812 L 3.625 -25.882812 L 3.625 0 L 5.054688 0 L 5.054688 -5.164062 C 6.136719 -1.886719 8.921875 0.238281 12.308594 0.238281 Z M 12.015625 -1.082031 C 7.859375 -1.082031 4.964844 -4.5625 4.964844 -9.175781 C 4.964844 -13.773438 7.859375 -17.253906 12.015625 -17.253906 C 16.230469 -17.253906 18.589844 -13.738281 18.589844 -9.175781 C 18.589844 -4.597656 16.230469 -1.082031 12.015625 -1.082031 Z M 12.015625 -1.082031 "/></g></g></g><g fill="rgb(85.099792%, 85.488892%, 85.879517%)" fill-opacity="1"><g transform="translate(239.080812, 44.782551)"><g><path d="M 10.605469 0.238281 C 15.585938 0.238281 19.25 -3.902344 19.25 -9.195312 C 19.25 -14.453125 15.585938 -18.535156 10.605469 -18.535156 C 5.625 -18.535156 2.050781 -14.453125 2.050781 -9.195312 C 2.050781 -3.863281 5.625 0.238281 10.605469 0.238281 Z M 10.605469 -1.007812 C 6.355469 -1.007812 3.480469 -4.578125 3.480469 -9.195312 C 3.480469 -13.773438 6.355469 -17.292969 10.605469 -17.292969 C 14.890625 -17.292969 17.804688 -13.738281 17.804688 -9.195312 C 17.804688 -4.617188 14.890625 -1.007812 10.605469 -1.007812 Z M 10.605469 -1.007812 "/></g></g></g><g fill="rgb(85.099792%, 85.488892%, 85.879517%)" fill-opacity="1"><g transform="translate(260.381135, 44.782551)"><g><path d="M 1.226562 0 L 2.949219 0 L 9.085938 -8.167969 L 15.222656 0 L 16.960938 0 L 9.984375 -9.175781 L 16.941406 -18.296875 L 15.203125 -18.296875 L 9.085938 -10.148438 L 2.929688 -18.296875 L 1.226562 -18.296875 L 8.167969 -9.175781 Z M 1.226562 0 "/></g></g></g><g fill="rgb(85.099792%, 85.488892%, 85.879517%)" fill-opacity="1"><g transform="translate(132.385536, 89.698228)"><g><path d="M 14.378906 0.238281 C 22.253906 0.238281 25.972656 -5.898438 25.972656 -12.949219 C 25.972656 -20.003906 22.253906 -26.121094 14.378906 -26.121094 C 6.558594 -26.121094 2.859375 -20.003906 2.859375 -12.949219 C 2.859375 -5.898438 6.558594 0.238281 14.378906 0.238281 Z M 14.378906 -1.082031 C 7.492188 -1.082031 4.359375 -6.484375 4.359375 -12.949219 C 4.359375 -19.398438 7.492188 -24.800781 14.378906 -24.800781 C 21.339844 -24.800781 24.472656 -19.398438 24.472656 -12.949219 C 24.472656 -6.484375 21.339844 -1.082031 14.378906 -1.082031 Z M 14.378906 -1.082031 "/></g></g></g><g fill="rgb(85.099792%, 85.488892%, 85.879517%)" fill-opacity="1"><g transform="translate(161.213308, 89.698228)"><g><path d="M 3.625 7.582031 L 5.054688 7.582031 L 5.054688 -5.128906 C 6.136719 -1.886719 8.902344 0.238281 12.289062 0.238281 C 17.144531 0.238281 20.003906 -3.882812 20.003906 -9.121094 C 20.003906 -14.378906 17.144531 -18.535156 12.308594 -18.535156 C 8.921875 -18.535156 6.136719 -16.410156 5.054688 -13.152344 L 5.054688 -18.296875 L 3.625 -18.296875 Z M 12.015625 -1.0625 C 7.859375 -1.0625 4.964844 -4.523438 4.964844 -9.121094 C 4.964844 -13.757812 7.859375 -17.234375 12.015625 -17.234375 C 16.230469 -17.234375 18.589844 -13.71875 18.589844 -9.121094 C 18.589844 -4.5625 16.230469 -1.0625 12.015625 -1.0625 Z M 12.015625 -1.0625 "/></g></g></g><g fill="rgb(85.099792%, 85.488892%, 85.879517%)" fill-opacity="1"><g transform="translate(183.39275, 89.698228)"><g><path d="M 10.347656 0.238281 C 13.226562 0.238281 15.09375 -0.566406 17.199219 -2.675781 L 16.210938 -3.570312 C 14.359375 -1.703125 12.820312 -1.0625 10.347656 -1.0625 C 6.265625 -1.0625 3.738281 -3.976562 3.644531 -8.902344 L 17.585938 -8.902344 C 17.65625 -9.195312 17.710938 -9.910156 17.710938 -10.460938 C 17.710938 -13.847656 15.808594 -18.535156 10.039062 -18.535156 C 5.148438 -18.535156 2.179688 -14.433594 2.179688 -9.046875 C 2.179688 -3.625 5.21875 0.238281 10.347656 0.238281 Z M 3.644531 -9.984375 C 3.917969 -14.324219 6.335938 -17.328125 10.039062 -17.328125 C 14.527344 -17.328125 16.175781 -13.902344 16.285156 -11.117188 C 16.320312 -10.769531 16.300781 -10.347656 16.265625 -9.984375 Z M 3.644531 -9.984375 "/></g></g></g><g fill="rgb(85.099792%, 85.488892%, 85.879517%)" fill-opacity="1"><g transform="translate(203.117985, 89.698228)"><g><path d="M 3.589844 0 L 4.980469 0 L 4.980469 -11.226562 C 4.980469 -14.984375 7.179688 -17.234375 10.570312 -17.234375 C 13.921875 -17.234375 15.699219 -15.128906 15.699219 -11.320312 L 15.699219 0 L 17.089844 0 L 17.089844 -11.886719 C 16.980469 -15.917969 14.910156 -18.535156 10.878906 -18.535156 C 8.152344 -18.535156 5.972656 -17.144531 4.980469 -14.707031 L 4.980469 -18.296875 L 3.589844 -18.296875 Z M 3.589844 0 "/></g></g></g><g fill="rgb(85.099792%, 85.488892%, 85.879517%)" fill-opacity="1"><g transform="translate(223.35604, 89.698228)"><g/></g></g><g fill="rgb(85.099792%, 85.488892%, 85.879517%)" fill-opacity="1"><g transform="translate(233.209497, 89.698228)"><g><path d="M 10.789062 0.21875 C 15.351562 0.21875 18.773438 -2.691406 18.773438 -6.886719 C 18.773438 -15.40625 5.09375 -13.042969 5.09375 -19.835938 C 5.09375 -22.695312 7.417969 -24.800781 10.550781 -24.800781 C 13.261719 -24.800781 15.113281 -23.738281 16.46875 -21.375 L 17.65625 -22.144531 C 16.0625 -24.894531 13.757812 -26.121094 10.585938 -26.121094 C 6.6875 -26.121094 3.644531 -23.539062 3.644531 -19.78125 C 3.644531 -11.871094 17.328125 -14.289062 17.328125 -6.796875 C 17.328125 -3.515625 14.671875 -1.097656 10.808594 -1.097656 C 6.996094 -1.097656 4.230469 -3.222656 3.644531 -6.980469 L 2.199219 -6.628906 C 2.949219 -2.289062 6.375 0.21875 10.789062 0.21875 Z M 10.789062 0.21875 "/></g></g></g><g fill="rgb(85.099792%, 85.488892%, 85.879517%)" fill-opacity="1"><g transform="translate(254.363301, 89.698228)"><g><path d="M 10.605469 0.238281 C 15.585938 0.238281 19.25 -3.902344 19.25 -9.195312 C 19.25 -14.453125 15.585938 -18.535156 10.605469 -18.535156 C 5.625 -18.535156 2.050781 -14.453125 2.050781 -9.195312 C 2.050781 -3.863281 5.625 0.238281 10.605469 0.238281 Z M 10.605469 -1.007812 C 6.355469 -1.007812 3.480469 -4.578125 3.480469 -9.195312 C 3.480469 -13.773438 6.355469 -17.292969 10.605469 -17.292969 C 14.890625 -17.292969 17.804688 -13.738281 17.804688 -9.195312 C 17.804688 -4.617188 14.890625 -1.007812 10.605469 -1.007812 Z M 10.605469 -1.007812 "/></g></g></g><g fill="rgb(85.099792%, 85.488892%, 85.879517%)" fill-opacity="1"><g transform="translate(275.663624, 89.698228)"><g><path d="M 9.339844 0.238281 C 12.070312 0.238281 14.269531 -1.152344 15.257812 -3.609375 L 15.257812 0 L 16.632812 0 L 16.632812 -18.296875 L 15.257812 -18.296875 L 15.257812 -7.089844 C 15.257812 -3.332031 13.042969 -1.082031 9.652344 -1.082031 C 6.300781 -1.082031 4.542969 -3.167969 4.542969 -6.980469 L 4.542969 -18.296875 L 3.152344 -18.296875 L 3.152344 -6.410156 C 3.261719 -2.398438 5.332031 0.238281 9.339844 0.238281 Z M 9.339844 0.238281 "/></g></g></g><g fill="rgb(85.099792%, 85.488892%, 85.879517%)" fill-opacity="1"><g transform="translate(295.883358, 89.698228)"><g><path d="M 3.589844 0 L 4.945312 0 L 4.945312 -10.148438 C 4.945312 -15.277344 8.1875 -17.164062 10.808594 -17.164062 C 11.539062 -17.164062 12.273438 -17 12.933594 -16.707031 L 13.574219 -17.878906 C 12.820312 -18.316406 11.886719 -18.535156 10.972656 -18.535156 C 8.71875 -18.535156 5.953125 -17.21875 4.964844 -14.085938 L 4.964844 -18.296875 L 3.589844 -18.296875 Z M 3.589844 0 "/></g></g></g><g fill="rgb(85.099792%, 85.488892%, 85.879517%)" fill-opacity="1"><g transform="translate(310.18736, 89.698228)"><g><path d="M 10.074219 0.238281 C 13.316406 0.238281 15.863281 -1.539062 16.941406 -4.617188 L 15.660156 -5.109375 C 14.800781 -2.5625 12.730469 -1.0625 10.054688 -1.0625 C 5.679688 -1.0625 3.570312 -4.855469 3.570312 -9.121094 C 3.570312 -13.351562 5.660156 -17.253906 10.039062 -17.253906 C 12.640625 -17.253906 14.746094 -15.734375 15.789062 -13.171875 L 17.125 -13.699219 C 15.808594 -16.816406 13.226562 -18.535156 10.039062 -18.535156 C 4.78125 -18.535156 2.144531 -13.921875 2.144531 -9.121094 C 2.144531 -3.773438 5.183594 0.238281 10.074219 0.238281 Z M 10.074219 0.238281 "/></g></g></g><g fill="rgb(85.099792%, 85.488892%, 85.879517%)" fill-opacity="1"><g transform="translate(328.905266, 89.698228)"><g><path d="M 10.347656 0.238281 C 13.226562 0.238281 15.09375 -0.566406 17.199219 -2.675781 L 16.210938 -3.570312 C 14.359375 -1.703125 12.820312 -1.0625 10.347656 -1.0625 C 6.265625 -1.0625 3.738281 -3.976562 3.644531 -8.902344 L 17.585938 -8.902344 C 17.65625 -9.195312 17.710938 -9.910156 17.710938 -10.460938 C 17.710938 -13.847656 15.808594 -18.535156 10.039062 -18.535156 C 5.148438 -18.535156 2.179688 -14.433594 2.179688 -9.046875 C 2.179688 -3.625 5.21875 0.238281 10.347656 0.238281 Z M 3.644531 -9.984375 C 3.917969 -14.324219 6.335938 -17.328125 10.039062 -17.328125 C 14.527344 -17.328125 16.175781 -13.902344 16.285156 -11.117188 C 16.320312 -10.769531 16.300781 -10.347656 16.265625 -9.984375 Z M 3.644531 -9.984375 "/></g></g></g></svg>