<svg width="501" height="500" viewBox="0 0 501 500" fill="none" xmlns="http://www.w3.org/2000/svg">
<g id="tools shop">
<path id="cut-shape/color__illustration__accent__zen" fill-rule="evenodd" clip-rule="evenodd" d="M340.9 96.1004C334.8 96.9004 331 104 333.9 109.6C337.1 115.5 350 123.4 356 129.5C366.2 137.9 382.1 151.7 392.3 160.2C398.9 164.9 405.6 170.3 407.6 173.4C412.8 179.4 422.2 188.9 425.8 196.8C430 204.7 432.3 207.6 435.8 209.3C439.9 211.1 443.4 209.6 446.2 205.4C447.8 202.6 449 202.6 446.6 201.5C438.7 195.8 438.4 199 443.9 190.9C445.3 188.8 446 188.3 446.6 189C452.4 184.9 448.5 184.2 457.1 189.6C459.6 191.1 459.7 192.1 460.5 189.3C461.6 186 459.7 181.3 457.2 179.5C447.9 171.5 439.4 180 435.3 173.2C413.8 154.8 393.2 136.3 372.1 118.8C363.6 112.8 348.8 94.7004 340.9 96.1004Z" fill="#14C8EB"/>
<path id="skin/color__illustration__skin15" fill-rule="evenodd" clip-rule="evenodd" d="M406.4 135.3C403.4 136.1 397.7 134.9 395.9 137.1C393.9 139.3 395.2 141.1 397.9 143.4C400.1 145.2 400.6 145.9 400.8 147.6C401.2 150.2 402.2 151.1 406.4 152.4C410.5 153.8 420.2 160.1 424.2 164.1C429.5 164.4 436.9 163.1 434.3 169.4C432.2 175.5 438.8 176.4 444.7 176.3C446.1 176.4 450.7 175.9 451.7 177.2C456.2 179 462.3 184.8 460.8 190C460.6 190.6 460.6 190.6 459.9 189.5C457.3 185.6 453.3 187.7 448.8 189.1C448.5 189.3 446.1 187.1 445.8 187.4C445.5 187.9 439.2 195.8 440 197.5C440.1 197.5 440.9 198.1 441.8 198.8C442.9 199.9 447.5 202.1 448.5 202.9C442.7 212.4 432 208.3 428.1 198.7C424.9 195.3 423.3 190.9 419 185.9C414.2 181 413.1 174.3 411.4 167.9C409.3 164.4 407.7 160.8 403.4 161.7C396.3 163 400.4 173.2 403.5 180.4C405.7 184.9 406.7 189.9 407.6 194.1C410.9 206.6 425.9 210.1 434.8 220.2C447.5 233.6 458.6 250.4 469.8 265C474 255.8 475.5 236.6 476.8 224C477.3 223.8 469.3 212.4 468.6 208.5C465.7 200.6 464.9 193.4 463.3 185.2C461 169.4 450.7 153.7 443.3 147.9C434.1 142.1 419.5 134 406.4 135.3Z" fill="#C3672D"/>
<path id="dynamic-line/color__illustration__dynamicline" fill-rule="evenodd" clip-rule="evenodd" d="M34.1 53.2998C29.5 54.5998 17.3 55.3998 18.1 56.5998C0.900015 65.6998 0.700015 84.5998 0.800015 102C-0.799985 135 1.40001 174.3 0.700015 205.2C0.800015 221.9 0.700015 243.1 0.400015 261.2C-0.0999854 263.3 -0.0999854 263.4 0.600015 267.1C0.700015 269.6 2.20001 281.6 1.70001 284.2C0.800015 308.8 1.60001 333.2 1.50001 362.1C0.900015 365.1 3.10001 370.6 2.00001 373.4C1.80001 375.2 2.60001 380 1.90001 381.9C0.700014 385.2 3.20001 389.9 2.00001 392.7C1.70001 393.9 2.80001 400.1 2.10001 401.4C1.70001 402.8 1.70001 403.4 2.00001 405.4C2.30001 409.4 1.50001 410.2 2.10001 414.6C1.00001 421.3 1.00001 429.6 9.30001 436.7C21.1 449.8 37.6 445.2 56.1 443.1C67.8 442 72.4 442.2 84 440.2C118.3 435.6 154 432.9 188.5 429.4C228.4 423.6 268.3 419.5 307.8 415.7C328 413.4 343.4 409.9 364.5 408.2C368.7 407.8 377.2 406.2 379.5 407.9C388.1 406.8 403.6 401.7 411.8 400.8C424.9 399.4 440 392.2 438 374.6C437.2 362.4 435.7 336.5 437.4 324.3C439.5 305 437.9 278.9 437.9 258.4C436.5 245 442.2 225.9 435.1 218.7C435.4 245.3 436 286.2 435.5 315.9C432.3 337.8 435.4 357.7 434.7 378.4C432.8 398.1 410.1 395.1 394.2 400.4C389.2 401.3 378.8 403.7 375.3 402.8C374.8 402.6 373.1 402.6 370 402.9C360 404.2 346.7 405.7 338.1 406.6C305.8 413.2 274.3 413.3 242.9 417.2C203.9 421.8 172.9 427.3 133.2 430.1C104.7 432.7 80.6 437.3 52.1 439.4C41.4 440.2 21.9 443.7 17.9 440.1C14.4 437.2 7.20002 430.8 7.30001 424.5C6.70002 418.3 6.10002 419.8 5.30001 416.8C5.70002 412.7 6.00001 399.7 6.20001 393.4C5.50001 388.3 7.40001 387.7 6.10001 382.4C5.70001 380.2 5.70001 379.9 6.10001 378.6C7.00001 374 6.80001 367.3 6.30001 362.4C5.80001 360.1 5.70001 359.4 6.00001 358.2C6.90001 344.1 5.30001 334.5 5.80001 319.7C6.00001 299.7 6.30001 306.4 6.40001 282.2C6.50001 262.7 5.90001 267.3 5.20001 258.6C6.00001 255.2 6.00001 254 5.60001 246.9C4.90001 222.5 7.40001 187 6.20001 163.4C5.60001 151.4 6.10001 115.2 6.60001 102.8C8.20002 95.1998 6.10001 76.4998 10.2 70.0998C10.9 66.8998 13.9 63.6998 16 61.0998C16.6 59.8998 21.5 60.0998 22.4 59.6998C23.9 59.3998 30.4 58.6998 31.8 58.6998C35 58.6998 35.6 56.3998 39.1 58.4998C45.7 61.3998 58.2 60.7998 66.3 61.7998C71.6 61.2998 74.4 63.6998 80.3 62.7998C85.2 62.2998 95.1 63.2998 100 63.5998C104.5 64.7998 111.2 62.0998 115.9 63.7998C116.9 64.0998 118.6 64.1998 120.9 64.1998C132.8 64.0998 137.8 64.2998 139.3 64.8998C140.4 65.5998 150.4 64.9998 152.2 64.9998C162.1 66.0998 177.6 66.7998 188.7 67.9998C196 68.4998 198.8 68.8998 201.9 69.5998C203.9 70.1998 216.8 70.5998 219.3 70.7998C221.1 71.4998 234.4 70.9998 235.4 71.9998C237.2 72.5998 237.9 72.5998 251 72.6998C263.5 72.7998 264.9 72.7998 266.4 73.2998C305.2 75.2998 332.8 76.1998 375.1 78.8998C395.9 80.5998 409.1 79.5998 426.3 84.7998C437.4 89.5998 435.3 102.9 435.5 113C435.6 132.2 436 142.5 436.7 143.7C440.2 149 438.5 135.9 438.6 135.2C437.1 88.6998 446.1 74.1998 392.1 73.1998C356.6 70.9998 318.5 69.3998 282.7 67.7998C269.2 67.5998 257.3 65.8998 243.2 66.2998C236.1 66.1998 235.2 66.0998 233.5 65.4998C226.4 64.8998 217 64.1998 208.8 63.9998C196.1 62.9998 185.5 60.8998 172.5 60.5998C164.6 60.7998 148 57.6998 145.6 58.9998C137.3 60.4998 137.7 57.3998 130 58.2998C120.1 59.1998 114.7 56.4998 104.8 57.5998C94.5 58.4998 85.9 55.8998 76.6 56.7998C70.7 57.4998 70.6 55.4998 63.4 55.7998C52.7 55.0998 44.1 54.1998 34.1 53.2998ZM53.5 77.7998C50 80.0998 50.5 83.0998 45.1 80.7998C42.3 79.4998 35.5 79.8998 32.5 79.1998C30.3 78.6998 29.6 78.8998 28.3 80.1998C27.6 81.6998 25.3 80.2998 24.4 80.7998C23.2 81.9998 26.6 82.4998 26.3 83.3998C26.2 83.6998 26 85.1998 26 86.7998C24.9 94.1998 32.5 94.8998 37.5 95.6998C40.2 96.2998 45 96.8998 46.7 94.4998C47.7 95.4998 50.2 97.8998 51.6 96.7998C52.4 96.4998 52.7 94.8998 53.3 94.6998C53.9 94.6998 53.7 96.4998 52.9 98.2998C50.5 123.3 52.4 162.2 51.9 192.7C52 210.5 52 210.6 51.4 214.5C49.1 226.1 42.8 237.9 58.8 240.6C63 241.1 66.5 240.8 67.1 238.1C72.3 225.1 70.5 203.5 70.1 189.3C68.8 163.9 70.5 157.8 70.4 126.5C71.1 100.8 69.1 98.7998 72.6 98.2998C83 100.9 79.1 115.8 90.8 113.6C94 108.3 89.8 94.7998 84.8 89.3998C79.6 83.4998 63 75.1998 53.5 77.7998ZM64.3 79.9998C75.5 81.9998 86.7 92.8998 87.7 104.9C87.7 105 87.2 104.3 86.6 103.3C84.1 99.2998 70 92.1998 66.3 96.1998C64.1 99.9998 66.7 103.4 66.4 107.7C64.3 107 61.8 106.8 59.5 106.9C59.2 103.6 59.4 96.7998 57.1 95.1998C56.1 94.7998 54.7 92.6998 53.2 92.4998C51.6 92.0998 49.1 89.8998 47.9 90.8998C45.7 91.3998 42.3 91.5998 40.8 93.5998C42.6 90.3998 43.6 84.6998 40.8 81.8998C62.9 87.0998 48.5 77.9998 64.3 79.9998ZM125.8 79.9998C121.6 80.6998 116.9 80.6998 113.8 82.8998C107.3 95.4998 109.7 106.9 125 108.4C125.7 108.4 126.5 108.9 125.4 109C123 109.2 126.4 111 127.5 110.7C128.6 110.4 130.9 112.3 131.8 112.4C132.9 117 131.4 146.9 130.3 151.2C128.9 162 127 176.5 128.4 186.7C130.8 197.8 125.1 229.2 127.6 237.8C127.7 237.9 128.5 238 129.4 238.1C130.8 238.1 130.7 238.5 131.3 238.7C130.5 237.6 146.3 238.4 146.5 238C148 237.3 149 240.3 150.2 239.1C151.8 237.8 153.4 237.4 151.6 236C150.8 235.3 150.7 235 150.7 233.6C151.3 227.8 147.4 214.9 146.8 205.7C146.7 203.7 146.8 202.2 146.8 202.4C147.3 203.9 150.1 202.4 150.1 200.6C150.2 199.5 148 198.5 147.2 199C146.8 193.1 149.8 171 148.2 163.5C147.2 153.9 148 164 150.9 161.6C152.2 160.2 153.2 162.4 154 160.1C154.2 159.5 154.1 158.7 153.7 158.9C152.9 158.7 152.2 156.4 150.9 156.8C149.9 156.2 147.8 159.3 147.6 158.1C145.7 146.6 143.6 121.6 144 111.5C145.4 111.5 147.5 111.4 148.5 112.1C159 113.5 160.2 99.3998 157.8 91.4998C156.2 77.8998 135.4 80.3998 125.8 79.9998ZM88.7 80.6998C87.9 81.8998 88.6 83.6998 89.8 84.5998C90.3 84.0998 91.7 82.7998 91.7 82.3998C91.3 81.5998 89.6 78.6998 88.7 80.6998ZM35.4 83.1998C36.6 85.2998 35.8 90.5998 33.4 91.9998C32.2 90.6998 32 86.9998 32.6 85.4998C33.5 83.7998 34.3 80.8998 35.4 83.1998ZM142.2 83.9998C144.1 84.0998 146.6 84.3998 147.7 84.5998C154.3 85.6998 155.7 103.7 152.5 106C150.8 110 148 102.8 146.2 106.8C143.8 110.7 145 104.5 141.9 105C140.2 104.5 140.6 105.6 139.5 105.6C138.4 104.9 129.3 107.7 132.3 103.8C134.2 100.9 134.8 92.0998 133.5 88.7998C132.9 87.3998 131.1 85.4998 129.5 84.4998C128.5 83.8998 128.5 83.8998 129.2 83.7998C131.1 83.3998 134.8 83.4998 142.2 83.9998ZM186.4 86.9998C186.4 88.5998 187.2 106.9 187.3 109.5C187.6 113.9 187.7 124.1 187.4 124.1C187.3 124.1 185.8 124.3 184 124.5C182.3 124.7 180.8 124.9 180.8 124.8C180.5 122.5 178.1 113.9 176.9 113.7C175.7 113.1 175.6 113.8 175.8 119.5C176 126.8 176.7 126.6 179.5 130.1C180.2 131.1 181.2 131.1 181.2 129.9C181.2 129.2 181.3 129.2 182.4 129.3C183.8 129.5 191.2 129.7 193.8 129.8C193.9 147.4 197 169.5 195 180.3C194.2 181.1 194.2 183.5 193.5 184.4C192.4 184.7 192.7 194.3 193.9 194.2C194.9 195.7 201 195.5 204.1 195.5C206.4 193.8 204.9 193 204.8 190C204.5 187 204.5 187.6 205.6 187.2C205.1 186.2 202.8 181 201.1 181.9C200.3 181.9 200.4 182.4 201.7 184.9C202.8 186.5 202.7 190.3 202.9 192.7C201 193.3 198.7 193.8 196.9 193.3L197 189.8C196.2 185.6 201.5 181.8 199.4 180.7C197.7 176.9 197.6 137.4 197.7 130C205.6 131 212.8 131 220.1 130.7C220 141.4 221.1 178.9 221.7 189.8C222.6 197.6 219.4 198.4 216.2 203.6C216.2 206.5 216.9 214.8 217.8 214.2C218.1 214.3 220.6 214.5 223.3 214.6C227 214.3 231.4 216.8 230.8 213.4C229.6 201.7 229.7 202.5 228.4 200C227.5 198.8 227.6 196 226.7 197.7C226.6 198.5 225.4 198.1 225.1 198.5C226.2 202.1 227.9 209.4 228.2 213.1C226.3 213.1 222.4 213.1 220.4 213.1C220.6 208.6 220.4 204 222.7 201.7C226.9 196.1 225.2 191.2 225.1 179.8C224.2 165.1 223.5 136.9 224.5 130.8C229.1 130.7 239.2 131.3 246 131.8C247.4 142.3 246.7 176.4 247.5 187.5C243.8 191.3 243.3 192.5 243 201.4C242.8 206.7 242.8 207 243.4 207.2C244.6 207.7 254.6 208.3 256.4 208C258 207.7 258.2 207.1 257.8 203.7C257.3 200 257.7 192.8 254.5 190.8C251.1 187.4 253.6 192.8 253.7 194C254 195.3 254.3 205.4 254.7 206.5C252.2 206.5 249.3 206.4 247 206.1C246.6 196.9 245.1 191 249.3 189.2C249.5 189.3 249.7 189.1 249.6 188.7C249.5 187.9 250.7 187.5 251.3 187.2C251.3 177.2 251.3 134.7 251 132.1C251 130.6 261 132.2 262.7 131.9C262.9 130.2 262.8 128.2 262.4 126.5C260.4 126.3 258 126 256.1 125.8C256.1 119.6 254.5 110.1 255.2 103.9C255.8 97.1998 255.9 93.5998 255.4 93.0998C253 91.6998 247.1 89.4998 241.8 90.0998C237.5 90.8998 236 88.7998 236.4 93.3998C236.6 96.6998 236.8 117.9 236.8 124.7C235.4 124.7 232.7 124.7 231.4 124.7C231.3 118.7 229.9 99.4998 229.4 90.1998C227.9 88.7998 227.9 88.7998 224.5 88.0998C222.5 88.2998 213 84.9998 212.8 88.6998C213 98.9998 213.3 114.6 215.1 124.8C213.1 124.8 209.2 124.8 207.2 124.8C207 115.4 207.7 102.7 206.1 93.3998C205.5 89.2998 205.8 89.5998 200.8 88.6998C196.6 88.4998 189.3 84.7998 186.4 86.9998ZM224 89.5998C227.4 89.8998 225.7 90.8998 226.6 96.7998C227.7 113.4 228 120.1 228.5 122.9C227.3 122.9 223.8 123.1 223.2 123.3C221.7 115.5 221.5 98.8998 220.1 88.9998C221.3 89.1998 222.7 89.3998 224 89.5998ZM200.2 90.6998C203.1 93.1998 202.7 117.1 203.6 124.3C201.7 124.3 198.5 124.1 196.2 123.9C196 113.5 195.4 100.6 195 90.4998C196.5 90.2998 198.2 90.3998 200.2 90.6998ZM298.8 90.8998C288.7 95.4998 294.3 129 293.9 139.9C294.8 162.9 296.8 185.9 297.2 209.1C297.1 214.6 291.6 224.7 289.4 230.3C288.7 232.5 288.6 232.8 288.6 238.6C288.6 240.2 288.3 245.5 289.6 246.8C291.1 250.7 292.6 250.1 295.1 252C299.1 255.8 299.9 244.9 301.2 240.9C303 241.9 306.8 244.8 308.9 245.9C307.2 249.7 305.4 257.6 305.3 261.1C305.3 261.6 307.2 262.4 310 262.8C314.6 263.3 322.3 264.1 325.9 260.2C335.3 254.5 336.4 233 327.1 224.9C323.3 220.4 322.8 217.6 321.6 210.9C320.8 205.6 320.8 205.1 320.6 190.7C320.6 164.4 318.4 159 318.2 132.2C317.9 115.1 318.1 115.7 315.9 103.2C315.3 92.7998 306.2 90.6998 298.8 90.8998ZM382.7 91.9998C378 93.6998 374.1 96.2998 374.3 102.8C373.6 107.9 376.8 111.9 377.8 116.3C377.9 118.9 378.5 121 378.1 121.7C378.4 121.9 378.8 124.2 378.9 125.8C378.7 126.7 381.4 127.7 381.9 127.8C383.6 128.7 385.2 130 384.8 127C384.4 125.8 383.9 113.1 381.9 110.6C380.7 107.5 380.7 99.7998 383.8 97.4998C384.8 96.3998 385.2 96.0998 385.8 96.1998C386.3 96.2998 386.5 96.1998 386.5 95.8998C391 93.4998 394 96.3998 393.7 101.4C390.8 102 388.4 102.4 387.1 101.4C386 100.8 385.5 100.6 385.1 100.9C383.1 102.9 383.8 105.8 387.4 106.8C388.7 107.2 388.8 107.2 389.3 106.8C389.8 106.3 391.8 106.3 392.7 106.3C389.2 121.2 392.2 118.4 391.3 132.7C391 135.3 392.3 134.6 393.6 135.8C394.2 136.6 396.4 136 397 135.6C397.2 128.8 394.9 111 398.8 105.4C399.5 103 398.5 98.3998 396.5 96.3998C393.5 93.7998 386.6 90.4998 382.7 91.9998ZM249.9 93.3998L251.7 93.8998C250.5 105 251.9 115.9 252.2 125.5C250.9 125.4 245.5 125.2 245.2 125.2C245.1 123.8 244.8 98.6998 244.7 92.8998C246.3 92.7998 248.3 92.8998 249.9 93.3998ZM304.8 93.2998C310 93.7998 311.2 97.0998 311.5 102.4C309.9 102.8 308.8 103.3 308.2 100.9C308.4 99.6998 303.3 98.3998 303.2 100.4C303.8 102.2 305 108.3 305.2 110.5C307.4 112 310.1 109.6 310 107.3C313.7 102.3 312.8 118.8 313.6 127.3C314.3 159.8 315.9 150.6 315.9 188.2C317 209.9 314.1 211.9 323.7 224.8C335.9 235.7 331.5 260.9 313.1 260.8C314.5 260.3 317 247.1 316.8 246.1C312.9 243.5 306 237.2 301.1 236.5C298 235.7 295.8 236.5 298.6 238.6C298.3 241.1 297.3 248.3 296.9 248.7C295.3 247.8 294.5 241.4 295.1 238.3C295.2 233 303.3 220.1 303.3 214.4C304.6 191.3 301.5 154 300.4 132.2C299.8 129.6 300.1 108.2 300.1 101.1C301 98.9998 303.3 91.4998 304.8 93.2998ZM415.7 98.0998C414.5 99.1998 415.4 100.9 416.5 101.9L417.3 101.4C418.9 101 416.8 96.2998 415.7 98.0998ZM275.4 98.8998C273.7 100.6 276.2 102.9 277.4 103.2C277.7 103.2 279.3 101 279.3 100.5C278.5 99.4998 276.6 96.2998 275.4 98.8998ZM325 100.8C324.3 101.5 325.3 104.3 326.5 104.9C329.3 106.4 326.4 99.5998 325 100.8ZM366.6 101.9C365.8 102.8 367.3 105.1 368.4 104.8C369.9 104.1 369.6 103.7 368.2 102.6C367.1 101.6 366.8 101.5 366.6 101.9ZM140.1 114.9C140 135.1 144.7 151.2 145.3 175C145.4 187.9 143.7 189.6 143.3 202.1C142.6 209.6 147.7 226.8 147.2 233.8C147.2 237.3 148.1 237 138.6 236.9C130.4 236.8 130.4 236.8 130.2 236.2C130.1 235.8 129.9 233.5 129.8 231C129.2 221.1 132.2 209.5 132.2 200.6C132.4 192 129.8 179.7 131.1 168.7C132.7 151.9 135.5 137.8 134.5 120.3C134.2 110.7 134.2 112.5 135.1 108.8C134.5 107.9 139 108.3 139.9 108.2L140.1 114.9ZM66.4 118.7C67.2 121.3 65.5 176.6 66.8 188.1C67.9 196.4 70.1 224.2 63.7 234.1C55.9 229.5 54.5 234.5 56.7 224.6C60 225.5 59.6 135.9 59.5 110.7C61.6 110.4 64.4 110.1 66.2 110L66.4 118.7ZM122.8 110.4C123 110.6 123.2 110.7 123.3 110.6C123.6 110.4 122.1 109.8 122.8 110.4ZM369.8 114.1C369.6 114.5 370.3 114.4 370.2 114.1C370.2 113.6 370 113.8 369.8 114.1ZM375.8 120.7C375.6 121.1 376.3 121 376.2 120.7C376.2 120.2 376 120.4 375.8 120.7ZM89.4 122.6L88.2 123.7C89.9 127.8 90.8 127.1 92.9 123.9C92.2 122.3 91.1 120.5 89.4 122.6ZM24.9 123.4C24.7 125.1 24.8 126.8 27.4 127.1C28.6 127.4 27.9 128.4 29.5 127.2C30.8 125.9 30.1 123.4 27.7 123.3C25.7 122.8 25.1 122.9 24.9 123.4ZM115.1 125.5C113.5 126.9 115.1 127.6 116.1 128.7C118.5 126.7 117.7 126.7 115.9 124.5L115.1 125.5ZM274.4 124.9C273.4 126.1 276.3 130 277.5 128C279.2 126.8 276.8 125.6 275.9 125.4C275.4 125.6 274.8 124.2 274.4 124.9ZM328.7 126.9C327.8 127.3 328.7 131.9 330.1 131.5C330.6 131.1 330.4 130.5 330.9 130.1C332.3 129.7 329.6 125.1 328.7 126.9ZM412.9 126.8C412.2 127.1 413.6 130.5 414.6 129.4C415.3 128.9 413.3 125.6 412.9 126.8ZM147.3 128.5C145.6 129.9 147.6 131.6 148.5 132.7C149 132.2 150.4 130.9 150.4 130.5C149.8 129.1 148.8 126.2 147.3 128.5ZM199.8 132.1C199.9 132.6 200 133 200.2 133C200.9 133.2 199.5 129.7 199.8 132.1ZM379.7 149.6C380 150.1 377 149.4 377.7 149.9C378.4 150.3 377.1 151.1 377.5 152C377.9 168.1 378.6 197.5 378.8 211.8C379.4 220.3 375.1 223.3 373.8 229C371.5 236.3 376.4 245.3 384.3 244.3C385.2 244.2 385.4 244 385.3 243.5C385.4 241.9 386.1 240.9 386.5 238.6C387.3 233.9 388.2 235.1 391.1 235C391.4 237.4 389.8 242.1 389 245C389.2 246 389.6 248.1 389.8 249.1C401.1 252.6 410 249.6 409.7 235.1V232.3L408 228.8C405.7 223.4 402.2 222.2 401.5 217C400.2 210.5 399.7 202.2 399.5 184.6C399.4 170.9 399.4 170.5 399.9 170.7C401.3 171.2 399.1 167.5 399.7 166.7C400 165.5 399.5 166 399.1 165.1C399 164.5 398.2 164.7 398.1 164.2C398.1 163.4 396.2 162.2 395.3 162.4C394 162.9 395.8 161.4 394.8 161.2C392.8 160.1 394.5 171.4 394.1 180.5C394.9 198.2 392.3 213.4 401 224.7C401.9 225.6 404.2 230.3 405.1 232.1C405.2 235 404.8 241.1 404.1 242.3C402.9 244.6 398.7 249.1 396.1 248.1C397.3 245.5 401.2 235.3 396.9 234.2C396.5 234.2 395.5 233.9 394.6 233.6C395.3 233.3 383 232.2 383.5 233.2C382.3 234.9 385 234 384.5 235.3C383.6 239.1 383.3 243.7 380.4 236.7C378.9 231.7 382.6 225.4 385.2 218.9C385.1 207.9 384.9 189.6 384.4 180.2C383.8 173.6 384.2 156.9 383.5 152.8C383.1 152.2 380.7 148.7 379.7 149.6ZM88.7 154.1C86.9 155.3 86.9 159.5 89.4 158.4C89.8 158 89.9 158 90.5 158.4C92 159.2 93.2 156.6 91.7 155.4C90.7 154 90.3 154.6 89.5 153.3L88.7 154.1ZM326.9 153.8C325.7 154.5 327.5 156.7 328.2 157.9C328.6 157.5 329.9 156.5 329.9 156.2C329.6 155.6 327.8 152.3 326.9 153.8ZM363.9 154C363.5 154.5 363.5 154.8 363.8 155.5C364.9 158.6 367.5 156.8 365.8 154.5C364.8 153.2 364.5 153.1 363.9 154ZM274.3 155.1L273.3 156.6C274 157.7 276 159.6 276.8 159.6C277.4 159.4 278.1 157.7 278.8 157.6C279.2 157.5 279.5 157.2 279.5 157C279.5 156.5 276.2 153.6 275.6 153.6C275.5 153.6 274.9 154.3 274.3 155.1ZM25.1 154.5C24 155.7 24.7 159.8 27.2 160C29.9 161.3 30.9 156.3 29.9 155.2C29.3 154.8 25.4 154.2 25.1 154.5ZM238.5 154.8C236.5 156 239 164.7 241.4 160.2C242.6 159 240.6 152.6 238.5 154.8ZM210.8 155.8C209.2 157.2 210.9 159.1 211.9 159.6C212.3 159.6 213.4 158.3 213.7 157.6C213.4 156.5 212.1 153.4 210.8 155.8ZM114.2 157.6C112.1 159.4 113.1 160.6 114.7 162C114.9 163.1 118.9 158.5 118.9 158.4C117.9 156.5 116.3 155 114.2 157.6ZM384.4 157.2C384 158.1 385 157 384.8 156.8C384.7 156.8 384.5 157 384.4 157.2ZM176.7 157.8C175.3 160.2 174.3 164.7 177.9 162.7C179.8 162.9 180.3 161.2 179.6 159.6C179.1 158.7 177.6 155.8 176.7 157.8ZM87.2 193.3C85.2 194.5 89.4 198.9 90.3 196C90.5 195.6 90.4 195.2 89.5 194.2C88.3 192.7 88.1 192.7 87.2 193.3ZM368.2 194.7C367.5 196.1 369.6 198.3 370.1 196.6C370.5 195.5 368.6 193.6 368.2 194.7ZM114.7 195.1C112.1 196.7 112.7 198.1 114.5 199.2C115.4 198.3 119.3 195.3 118 194.9C117.5 194.4 115.8 194.5 114.7 195.1ZM25.7 195.9C24.8 197.9 27.1 199.8 29.2 199.4C30.7 199.7 31 197.3 31 196.5C30.9 196.3 29.9 196 28.7 195.8C26 195.4 26.1 195.4 25.7 195.9ZM275.1 196.7C274.3 197.9 273 198.5 274.3 200C275.3 201.5 276.3 202.1 277.1 201.9C278.2 201.6 279.5 201.4 279.2 199.9C278.6 199 276.1 194.6 275.1 196.7ZM328.6 197.2C328.3 197.8 328.8 199.4 329.5 200.1C331.1 202.3 331.8 196.4 330.1 197.5C329.5 198.1 329.3 196.1 328.6 197.2ZM176.3 198.2C175 200.3 180.1 202.9 177.8 199.2C176.8 198 176.6 197.9 176.3 198.2ZM210.6 198.8C210 199.7 211.1 203.2 212.3 201.4C213.3 200.9 210.9 197.2 210.6 198.8ZM237.1 199.1C236.1 199.6 237.8 204.2 238.9 202.6C239.9 201.9 238.3 198.3 237.1 199.1ZM363.2 204.9C362.9 205.4 363.2 205.5 363.6 205C364.2 204.4 363.4 204.6 363.2 204.9ZM363.8 205.4C363.7 205.5 363.9 205.6 364.2 205.7C365.5 205.8 364.1 205.1 363.8 205.4ZM341.4 215.9C341.4 216.1 341.5 216.3 341.7 216.2C342.2 215.9 341.3 215 341.4 215.9ZM357 216.9C356.8 217.4 357.5 217.2 357.6 216.9C357.7 216.5 357.1 216.7 357 216.9ZM142.6 219.8C142.6 220.5 143.9 219.6 143 219.5C142.8 219.5 142.6 219.6 142.6 219.8ZM354.2 221.9C354.3 223.2 355 221.2 354.5 221.3C354.4 221.2 354.2 221.5 354.2 221.9ZM362.3 222.1C361.9 222.5 361.8 223.2 362.2 223.2C362.7 223.4 363.2 221.4 362.3 222.1ZM476.1 223.5C479.4 227.7 482.5 231.6 485.4 236.4C489.3 241.3 493.2 253.4 499.8 253.2C500.2 252.8 500.2 252.8 498.5 250.2C494.1 243.5 488.1 232 481.8 226.7C479.1 224.1 475 221.2 476.1 223.5ZM143.8 228.1C142.9 228.8 145 228 144.5 227.8C144.3 227.8 144 228 143.8 228.1ZM145 229.6C145.1 230 145.8 230.3 145.8 229.9C145.9 229.6 144.8 229.1 145 229.6ZM478.5 230.1C482.6 246.9 485.4 265.9 486.8 283.1C487 284.3 487 284.3 488 284.3C491.4 284.7 488.5 277.1 488.5 274.6C488.2 269.5 482.9 227.3 478.5 230.1ZM189.1 230.5C186.1 231.8 188.8 234.9 188.1 238.5C187.7 247.3 191.1 250.2 199.1 248.6C199.9 254.6 199.3 260.2 204.9 258C204.9 257.5 203.8 250.2 203.6 249.3C202.8 248.3 206.8 248.8 207.7 248.7C208.3 250.6 207.9 263.1 208.4 265.2C208.5 267.7 210.3 267.6 212 267.4C215.5 265.7 213.3 254 213.1 248.9C214.4 248.9 217 248.9 218.3 248.9C218.5 255.9 218.7 266.8 219.1 272.2C220.3 273.1 222.7 273.6 223.6 272.7C224.1 272.2 223.9 255.6 223.5 249.3C224.6 249.3 229.2 249.1 229.5 249.2C230.7 254.4 227.7 262.3 234.7 261.3C234.5 257.5 234.3 253.1 234.1 249.3C235 249.3 236.9 249.3 237.8 249.3C238.3 249 237.5 260.9 238.4 260.2C239.4 260.7 241.1 260.8 242.6 260.6C242.6 257.8 242.5 252.2 242.5 249.4C244.5 249.6 247.4 249.8 249 249.8C249.1 254.6 248 259.7 254.4 258C254.8 256.3 254 252 254.1 250.1C255.4 250.1 258.1 250.1 259.5 250.1C259.2 254.6 259 266.4 259.3 267.6C259.2 268.6 263.5 270 263.4 268C263.3 266.4 262.7 253.8 262.5 252.2C262.3 249.9 262.1 250 265.2 249.8C266.9 249.7 269.3 248.7 269.3 248.2C269.3 247.8 267.8 244.7 267.6 244.7C264.9 244 259.7 243.5 257 243.2C257 241.2 257 237.3 257 235.4C257.7 235.2 260.1 234.8 259.9 234.1C259.9 233.4 258.5 230.7 258.1 230.5C257.6 230.3 255.2 230.9 254.3 231.1C254.3 235.1 254.4 244.1 255.2 246.1C251.5 245.4 246 246.1 241.9 245.5C241.8 244.6 242 243.6 240.8 243.5C239.8 243.4 237.6 242.8 237.7 244.4C237.6 245.9 236.4 245.1 235.3 245.5C233.6 245.8 233.5 244.4 231.5 244.3C230 244 229.8 244.1 229.4 244.6C229.6 245.2 224.4 245.8 224.5 245.2C224.7 244.3 217.6 241.8 218.2 244.7C218.2 245.4 218.2 245.4 215.5 245.4C211.5 245.6 213.3 244.3 210.1 244C208.5 243.8 208.5 243.8 208.1 244.6C208.2 246 203.3 244.9 202.6 244.8C198.5 243.9 195.8 245.2 191.9 245.5C191.9 241.9 191.9 239.7 191.2 235.7C191 234.7 191.1 234.7 192.3 234.2C194.2 233.4 193.7 233.4 192.7 231.7C191.6 230 190.8 229.8 189.1 230.5ZM235.3 231.3C233.8 232.4 235.7 236.6 237.1 234.2C237.6 233.5 237.6 233.4 236.9 232.1C236.2 230.7 236.3 230.2 235.3 231.3ZM211.7 232C211.5 232.4 211.4 232.9 211.4 233.1C211.5 233.8 209.1 233.3 211.1 234.2C212 234.2 212.7 235.7 213.3 234.7C214.5 234.3 212.6 229.7 211.7 232ZM272.5 232.5C270.8 233.9 274.7 236.4 275.9 235.3C279.7 233.8 274 230.5 272.5 232.5ZM416.7 232.3C412.6 236.2 417.9 238.4 419.7 234.9C419.5 234.2 417.7 230.7 416.7 232.3ZM177.9 232.6C174.1 234.2 176 236.3 177.8 237.5C178.9 236.9 182.5 234.8 180.1 232.9C179.1 232 179.1 232 177.9 232.6ZM86.1 233.4C84.6 234.8 86.7 237.4 88.1 235.6L88.9 234.8C87.9 233.7 87.3 231.2 86.1 233.4ZM27 233.4C25.8 236.5 28.6 237.5 31.6 237.3C32.5 237.3 32.5 237.2 32.5 235.9C33.3 233.3 28.6 233.1 27 233.4ZM369.9 234.6C369.1 235.5 370.5 238.9 371.9 237.5C373.1 237 370.7 233.6 369.9 234.6ZM344.6 236.9C343.3 237.8 346.2 241.5 347.4 240.3C349.1 239.2 346.2 236.6 345.3 236.1C345.2 236.1 344.9 236.5 344.6 236.9ZM115 236.8C112.4 237.7 114.3 239 115.4 240.1C120.3 238.2 120 235.3 115 236.8ZM460.2 255.9C456.9 269.9 461.1 270.2 466.8 282.4C468.1 284.7 468.5 285.7 468.4 286.3C468.1 287.4 470.8 289.6 471.2 290.7C474.1 294.3 477.2 304.1 481.7 304C482.2 303.5 482.1 303.1 481.1 301.4C479.2 297.8 476.6 294 474.6 290.6C482 285.8 479.3 275.9 477.7 269.8C477.5 266.7 476.7 262.2 476.4 261.9C476.1 261.6 473.8 261.6 473.1 261.5C473.1 268 473.6 279.4 470.7 282.4C469.5 280.4 467.6 276.5 466 274.4C468.5 274.6 470 275 470.8 271.6C471.4 269.3 473.2 265.6 471.5 264.4C470.3 263.6 469.9 263.9 468.7 266.9C467.5 270 467.8 270.2 466 272.2C464.2 270.9 465.4 256.1 463.2 256.5C461.7 255.8 460.4 255.6 460.2 255.9ZM131.3 265C131.2 265.3 130.9 265.4 130.6 265.3C129.8 265.1 129.9 266.4 130.8 267.1C132.2 268.5 132.7 266.8 133.3 265.6C132.8 265.1 131.5 263.9 131.3 265ZM347.4 265.2C344.9 268.9 353.4 269.8 349.1 265.3C348.3 264.3 348.2 264.3 347.4 265.2ZM365 265.1C349.8 265.9 343.2 283.3 344.7 296.4C346.2 314.8 365 321.2 380.5 319.9C394.7 317.6 406.1 301.6 403.3 288C401.8 280.7 398.1 278.9 393.6 273.6C387.1 267.2 374.4 264.7 365 265.1ZM177.3 266.3L176.7 267.3C177.6 268.4 179 269.2 180.4 269.7C180.6 269.2 181.2 267.9 181 267.5C180.2 266.7 178 264.1 177.3 266.3ZM198.3 267.6C197 269.6 199.8 270.8 200.9 270.6C201.3 270.4 201.8 269 201.8 268.3C201.3 267.3 198.8 264.8 198.3 267.6ZM275.5 267.5L274.7 268.8C275.5 269.7 277 271.4 277.6 270.3C278.1 269.4 279.7 270 279.2 269C278.2 267.9 276.5 264.7 275.5 267.5ZM236.2 266.9C235.5 267.8 237.9 269.8 238.8 269C239.8 268.4 239.6 268 238.2 267.3C237.1 267 236.7 266.1 236.2 266.9ZM110.5 267.1C110.2 267.6 110 270 110.3 270C110.9 270.1 111.7 274.3 111.7 272.7C112 271.7 113.6 271.9 113.6 270.5C114.5 268.8 111.2 266.3 110.5 267.1ZM303.7 267.3C300.5 268.2 305.7 272.5 305.8 269.6C305.7 269.3 305.9 268.9 306.1 268.7C306.4 268.4 306.4 268.2 305.7 267.5C304.8 266.6 304.9 266.6 303.7 267.3ZM415.5 267.1C414.4 267.4 415.5 268.2 414.6 268.7C414 269.1 414.1 269.7 414.8 270.6C415.5 271.7 417.3 270.7 418.3 269.9C417.6 268.7 416.3 266.4 415.5 267.1ZM391.7 267.8C390.3 269 392.2 271 393.4 271.3C393.9 271.3 394.9 270.4 395.4 269.9C394.6 268.4 393.4 266.5 391.7 267.8ZM153.7 268.1C153.2 269.4 154.1 271 155.9 271.6C156.7 272.5 158 269.6 158.1 269.2C157.9 269.1 155.8 267.2 155.5 267.8C154.8 268.5 153.9 267 153.7 268.1ZM86.9 268.3C84.9 270.5 89.2 274.3 89.9 270.5C90.7 269.5 87.4 267.7 86.9 268.3ZM326.1 268.2C325.2 270.1 330.8 272.4 327.9 268.9C326.9 267.9 326.4 267.7 326.1 268.2ZM57.8 268.6C55 271.7 61 274.8 61.4 271.3C61.2 270.1 62.3 271.1 62.1 270.4C61.7 270.1 58.4 267.4 57.8 268.6ZM386.4 270.5C389.5 271.1 392.4 275.3 394.7 277.8C398.5 282 400.6 284.5 400.7 291.1C399.8 305.8 387.9 317.4 373 316.7C363.3 309.3 366.3 315.1 374.4 318C360.5 318.6 347.2 307.5 351.2 292.7C353.8 283.3 358.1 273.1 367.9 270.4C368.5 270.2 368.5 270.3 368.1 270.5C366.8 272.3 368.5 272.3 371.3 271.3C376.6 269.1 382.4 271.4 387.1 272.5C388.7 272.1 380.5 268.7 386.4 270.5ZM28.3 271.5C26.3 274 33.6 275.7 34.1 273.8C35.4 272 29.8 271.1 28.3 271.5ZM369.4 275.2C367.7 275.8 367 277.7 368.6 278.2C368.9 278.3 369 278.2 368.9 278C369.8 274.9 380.7 278.9 381.8 277.2C380 274.8 372.3 274.9 369.4 275.2ZM371.5 277.9C369.7 278.2 367.8 279.1 371.7 278.8C374.4 278.7 378.6 279.3 379 279.8C382.4 281 379.5 278.1 377.1 278.1C374.3 277.8 372.9 277.8 371.5 277.9ZM371.1 280.5C370 280.8 369.4 283.2 370.9 281.8C372 280.8 375.9 281 377.3 282.1C377.8 282.5 377.8 282.5 377 282.3C374.7 281.5 372.1 282.8 370.2 283.5C368.1 283.5 363.8 292.9 364.8 296.2C365.5 300.3 374 303.5 378.3 304.7C377.9 305.8 370.3 304 370.3 304.7C370.6 305 374.9 306 376.7 306.1C379.4 306.2 382.5 305.9 381.4 304.2C384.7 301.8 388.3 296.4 387.6 291.9C387.7 288.6 382.6 285.2 380.1 283.2C380.8 282.1 371.8 278.9 371.1 280.5ZM222.3 283.3C191.8 286.1 146.1 283.6 122.4 289.7C106.9 284.3 85.3 290.5 68.4 293.9C65.5 294.3 59.3 296.6 56.9 296.9C54.6 296.7 56.1 298.7 55.2 299.5C52.3 306.1 51.5 316.7 49.6 323.5C44.3 341.9 38.6 358.2 39.8 375.7C39.6 392 44.4 401 41 414.5C40 417.1 41 417.4 41.4 419.2C41.6 420.8 43.1 421.5 44.2 421.9C54 423.1 68.1 422.2 77.3 418.9C88.4 416.1 98.2 415 109.4 413.8C122.1 412.4 133.7 412.1 144.6 408.6C147.3 408.4 151.2 405 154 405.5C159 405.5 159.8 404.2 164.8 404.2C167.5 404.2 168.5 404.1 169 403.7C169.4 403.4 170.6 403.2 172 403.1C174.3 403.5 178.4 400.6 180.3 400.7C183.1 401.6 190 401.7 192.2 400.9C197.6 400.4 201.7 399.4 207.9 399.1C213.1 399.1 213 398.8 216.2 397.7C221.7 399.8 227.7 399.7 232.1 396.7C243.7 397.4 254 394.8 264.9 392C266.3 391.3 271.1 393.3 272.5 392.7C274.5 392.5 277.2 392.8 279.1 392.5C280.4 392.6 284.4 390.9 285.7 391.5C290.2 391.7 295.2 389.6 299.9 388.1C303.6 389.1 307 388.2 310.6 388.2C316.1 388.4 317.4 388.3 318.9 387.8C322 386.8 323 386.5 326.7 386.3C330.9 386.1 330.9 386.1 331.2 380.5C331.9 374.3 330.6 374.6 329.9 371.8C329.9 368.3 329.4 364.3 329.4 354.2C328.7 333.1 329.6 334.3 326.8 319.8C312.3 279.6 260.1 283.2 222.3 283.3ZM374.2 286C375 286.7 374.1 288.4 375.2 289.2C376 290 378.8 291.1 379.3 290.7C380.1 292.4 378.2 297.7 375.8 299.2C372.6 302.7 367.9 299.6 368.2 295.6C368.3 292.5 370.1 284.5 374.2 286ZM284.5 291.1C338.3 299.9 324 331.4 328.3 371.3L323 371.5C316.9 371.7 317.3 371.8 317.3 371.3C317.3 371.1 317.7 370.9 318.1 370.9C319.5 371.1 319.9 367.9 319.1 366.9C318.6 366.3 318.2 362.7 317.7 354.2C315.6 338.9 315.7 314.6 302.4 308.4C275.4 298.5 257.9 302.7 223.3 302.5C193.7 302.7 188 302.9 163.5 304C158.5 304 139.3 305.2 137.3 305.6C136.9 305.7 136.6 305.5 136.2 304.7C135.3 302.5 133.2 303.6 131.9 304C131.8 302.7 131 299 130.3 297.9C130 296.1 127.1 294.2 126.6 292.6C158.9 289.8 193 291.5 224.5 290.5C248.8 291.2 262.3 288.5 284.5 291.1ZM121.6 295.3C124.7 295.5 125.9 298 127.3 300C129.8 303.9 129.7 310 129.8 315.2C130.9 329.3 130.4 367 127.4 383.3C126.4 388.8 126.3 389.2 125.8 389.2C123.9 389.2 124.7 390.9 125.1 392C125.6 393 125.4 394 124.8 394.2C124.4 394.3 123.1 394.5 118.5 395.1C116.9 395.4 118.1 394.2 117.4 392.9C117 391.5 117 391.3 117.7 388.2C122.8 368 120.5 352.3 120.5 329.2C119.9 313.7 121.2 310.9 118.1 303.6C109.3 301.2 113.9 304.5 108.2 304.1C102.4 304 95.9 307 90.7 306.2C86 304.9 89 310.6 78.7 310C71.9 310 66.3 311.9 61.3 311.1C60.7 311.5 61.8 304.6 62 304.7C79.4 299.9 102.5 293.2 121.6 295.3ZM416.9 296.3C415 297.4 417.9 300.3 419.4 298.3C419 297.6 418.1 295.3 416.9 296.3ZM324.1 297.8C322.8 300.1 326.1 303.9 328.4 300.9C329.9 299.3 325.4 295.8 324.1 297.8ZM259.7 305.5C260.3 307.7 261.9 306.8 262.7 305.1C271.3 303.6 293.6 307.1 300.4 312.2C309.2 317.7 310.4 355.4 310.6 368.2C271.8 373.9 231.6 376.9 194.1 381.8C173.6 383.6 151 384.6 130.9 388.7C135.3 365.2 137.3 333.6 132.4 309.3C134 312.8 139.1 310.7 137.9 307.5C137.2 306.4 139.8 307 141.8 306.6C144.9 306.8 176.2 304.5 178.2 306.4C179.9 308.4 180 306.8 180.5 305.2C185.5 305.1 195.6 305 200.6 304.9C201.7 306.5 205.8 307.4 204.2 305C203.8 304.5 204 304.5 213.6 304.7C223.1 304.9 223.5 304.9 224.1 305.5C224.8 306.4 225.2 305.6 225.2 305.1C225 304.8 245.4 305 246.1 305.3C247.7 304.8 253.2 304.8 255.6 304.6C257.9 304.8 258.8 303.4 259.7 305.5ZM381.9 306.8C378.6 310.1 371.5 306.6 371.5 307.8C383.6 313.8 389.7 303.5 381.9 306.8ZM154.5 307.2C153.5 308.2 155.2 310.1 155.9 309.2C156.2 308.8 156.5 309.3 156.9 308.8C157.8 308.1 155 305 154.5 307.2ZM111.6 308.1C111.5 328.9 114.4 369.9 109 389.2C101.2 391.5 91.6 393.4 83.4 394.8C84.5 371.4 87.1 338.6 88.5 317.5C88.3 308.7 91.2 319 94.2 310.7C100.2 311.8 107.5 306.1 111.6 308.1ZM30.4 309C27.7 312.6 31.8 315.4 34.4 313.7C35 314.1 35.8 310.5 35.6 310.3C34.9 309.8 31.2 307.3 30.4 309ZM386.4 310.2C385.4 310.7 383.9 312.3 382.9 312.6C380.6 312.9 370.8 313.3 370 310.9C368.7 309.7 368.5 310.1 369.7 311.3C371.5 313.9 380 314.3 385.3 313.9C386.1 313.3 389 310.9 389.1 310.6C388.5 310.2 387.4 309.4 386.4 310.2ZM415.7 320.9C414.4 323.2 416.7 325.6 418.6 323C417.9 322.1 416.4 319.4 415.7 320.9ZM348.7 322.4C345.9 324.3 351.9 330.5 353.5 326.8C353 325.5 350.5 320.2 348.7 322.4ZM62.7 324.3C64 325.2 73.7 325.9 75.9 326.2C72.1 327.1 66.4 326.7 61.1 324.2C58.2 323 58.5 323.2 58.7 322.6C58.9 321.7 62.2 324.4 62.7 324.3ZM299.4 324.2C297.1 325.4 300.7 329 302 329.6C302.7 329.6 304.3 328.3 304.4 327.7C304.2 325.8 301.1 322.1 299.4 324.2ZM84.3 324.2C84.1 324.8 83.2 324.2 82.3 324.7C78.8 326.1 84.9 322.8 84.3 324.2ZM272.1 326.7C269.3 328.3 271.9 330.7 273.2 332.3C274.1 331.8 276.5 330.6 276.7 329.9C276.7 327.6 274.6 324.3 272.1 326.7ZM259.9 329C259 329.5 259.4 332.7 260.4 331.9C260.6 331.2 261.4 332.2 261.6 332.1C263.2 330.6 261.2 327.3 259.9 329ZM221 331C218.1 335 223.6 336.5 224.7 332.7C224.1 331.4 222.3 328.3 221 331ZM59 331.2C67.6 335.5 75.5 335 83.8 331.2C83.7 331.6 83.4 333.3 83.4 333.4C79.4 334.7 79.5 335 72.2 335.1C63.1 335.4 61.7 334.8 56.1 332.3C56.6 330 56.3 329.8 59 331.2ZM390.6 330.4C379.8 331.4 373.3 337.8 374.4 350C378 358.7 383.9 362.3 393.2 363.6C407 365.5 414.8 351.6 409.9 339.3C407.8 333.2 395.7 329.9 390.6 330.4ZM240.6 330.9C239.8 331.1 237.6 332.1 237.6 332.3C237.6 333.3 239.7 335.9 240.6 335.9C241.2 335.9 244.7 333.5 244.7 333.1C244.2 331.7 242.5 330.1 240.6 330.9ZM401.4 334.6C410.8 338.4 410.4 355.8 400.3 359.3C392.3 361.9 386.2 362.8 383.5 354.3C380.5 345.8 385.7 335.6 394.1 335.6C394.9 335.6 395.1 335.7 394.8 335.9C394.5 336.1 394.5 336.2 395.2 336.5C396.3 337.1 396.4 337.9 394.4 337.5C392.1 337 392.6 338.3 393.2 338.6C393.1 338.4 393.3 338.2 393.9 338.2C396.3 337.7 397.1 341.3 397.9 339.1C398.1 338.1 396.8 338.3 396.9 337.2C396.9 336.3 397.3 336.2 398.1 337C398.7 337.7 399.3 337.8 398.8 337.1C398 336 394.6 335.1 393.7 334.7C393.4 332.8 399.7 334 401.4 334.6ZM202 336.4C201.5 337.4 203.9 339.3 205.3 339C209.2 338.3 203.2 335.1 202 336.4ZM179.4 339.6C178.7 340.1 178.1 340.5 178.1 340.6C178.7 342.2 179.5 343.7 181.8 342.2C186.6 340.4 182 337.4 179.4 339.6ZM57.2 341.3C62.1 344.9 77 343.8 81.3 341.9C82.6 341.3 82.6 341.3 82.6 341.9C82.1 343 80.2 342.4 78.5 343.7C69.8 347.7 70.4 345.2 58.4 343.3C54.4 342.2 53 342.2 53.7 340.3C53.7 339.7 53.9 339.7 57.2 341.3ZM155.4 340.4C152.3 341.3 154.6 343.3 156 344C156.6 344.1 160.4 342.3 160.4 342C159.6 340.3 157.2 339.3 155.4 340.4ZM391 340.9C389.9 341.9 393.2 342.6 392.4 344.3C392.3 345.5 392.3 345.6 393.3 346.2C395.3 347.4 394.4 349.8 392.1 350.7C388.1 352.2 396.2 354.8 398.1 352.9C400.8 351.1 404 346.8 399.5 343.6C397.5 341.5 393.8 339.8 391 340.9ZM416.1 341.9C414.4 343.4 415.9 345 417 346.2C417.5 347.1 419.6 345.5 419.9 345.1C419.5 344.1 417.8 339.3 416.1 341.9ZM89.9 344C88.2 345.9 92.8 348.6 93.6 346C94.8 344.5 90.6 343 89.9 344ZM28.9 345.5C27.5 347.5 29.2 351.3 31.9 351.3C33.4 351.7 34.1 346.9 33.8 346.8C33.5 346.4 28.6 344.9 28.9 345.5ZM347.6 348C345.5 349 348.8 352 349.9 352.7C350.2 352.7 351.4 350.9 351.4 350.5C350.8 349.7 348.9 346.6 347.6 348ZM62.3 352.6C70.8 354.5 76 355.4 81.8 349.2C81.2 351 82.5 353.4 79.9 353.5C75.8 354.1 65.8 355.9 63 355.1C61 354.7 49.9 352.5 51.1 349.2C54.7 350.2 56 351.6 62.3 352.6ZM304.2 354.1C302.7 355.1 305.3 357.4 306.3 358C306.8 357.4 307.8 356.3 308.2 355.8C307.1 354.7 305.4 352.7 304.2 354.1ZM281.3 354.6C278.3 355.7 279.1 360.3 282.5 357.6C285.3 356.1 283.8 355.5 282.7 353.9C282.6 353.9 282 354.2 281.3 354.6ZM391.2 354.5C391.2 355.2 396.1 356.9 396.7 355.8C397 355.1 396.6 354.9 394.8 355C393.6 355.3 391.7 354.2 391.2 354.5ZM391.2 356.8C391.5 357.6 396.9 358.6 397.3 357.9C397.6 357.5 395.8 357 394 357C392.9 357.3 391.1 356.3 391.2 356.8ZM240.2 357.6C238.4 358.6 238.1 360.3 239.4 361.2C239.9 361.4 243 360.5 243.3 360.1C243.5 359.7 241.9 357 241.4 357C241.3 357 240.7 357.3 240.2 357.6ZM391.2 358.2C390.2 359.4 397.4 360.9 396.9 358.7C396.7 358.4 396.1 358.4 394.4 358.5C393.1 358.6 392.2 358.6 392.2 358.4C392.3 358.1 391.5 357.9 391.2 358.2ZM259.8 358.6C259 359 259 359.1 259.4 359.9C259.9 360.9 260 360.9 261.4 360.3C263.6 359.8 261.3 357.3 259.8 358.6ZM52.4 359.9C57.7 363.1 67.1 364 73 362C75.2 361.4 79.1 359.5 80.7 359.2C80.8 359.3 80.7 360 80.6 360.9C80.2 364.3 74.4 363.2 69.4 364.7C61.7 365.7 60 366.1 52.5 362.4C48.6 360.4 48.8 360.5 49.1 358.5C49.4 358.5 50.8 359.1 52.4 359.9ZM204 361.7C201.2 362.8 201.7 367.1 204.8 364.6C205.6 364 206.4 363.5 206.4 363.5C206.4 363 205 360.9 204 361.7ZM218.3 361.7C218.1 362.1 219.5 363.6 220.1 363.6C221.5 362.5 219.2 360.7 218.3 361.7ZM179.6 365.1C177.7 366.3 179.3 368.6 180.9 368.2C182.1 367.8 183.2 367.3 183.2 367C182.4 365.8 181.2 363 179.6 365.1ZM157.3 365.2C155.9 366.2 157.2 368.5 158.6 367.5C160.4 367 158.9 363.1 157.3 365.2ZM90.7 368.2C89.8 370.9 90.3 372.7 93.6 372.5C94.5 372.9 94.9 369.3 94.7 368.9C94.5 368.4 90.5 367.6 90.7 368.2ZM51 370.2C60.8 376.4 70.4 373.8 80.1 370C79.9 374.7 78.8 373.9 73.7 375.1C66.1 376.8 52.6 373.4 48.3 368.8C48.4 368.8 49.6 369.4 51 370.2ZM414.6 371.5C413.7 372.8 415.6 377.5 417.7 375.7C419.4 375.3 416 369.4 414.6 371.5ZM328.9 377C328 383.3 329.9 383 325.5 383.2C320.7 383.4 321.1 383.8 317.1 384.9C314.7 385.6 314.2 385.7 312 385.4C307.9 384.7 304.9 386.3 300.7 385.8C297.1 385.4 291.6 388 287.9 388.5C285.7 389.6 282.5 388.3 280.2 389.3C276.5 390.4 271.7 389.8 268.7 390.5C268.7 390 268.7 389.1 268.7 388.6C264.6 388.1 262.4 390.2 258.1 390.2C255.9 390.2 255.9 391 254.2 391.4C246.7 393.5 237.3 394.6 228.9 393.8C227.4 394.5 224.4 396.1 222.9 396.8C218.5 394.8 211.9 395 207.4 397C204.6 397 200.6 395.7 198.2 397.3C195.8 398.8 190.6 397.8 187.9 398.8C185.9 399.3 185.7 399.3 184.1 398.9C172.7 397 175.4 400.2 167.4 401.1C163.6 401.3 164.8 402.2 160.5 401.8C155.3 401.3 156.3 403.1 150.7 403.1L146.9 403.3L144.2 404.8C132.1 409.9 116.1 410.1 99.9 412C86.4 412.2 65.4 419.5 53.8 419.7C43 420.1 50.6 420.1 50.6 408.5C60.2 408.2 71.3 405.3 84.3 403.4C93.2 402.6 92.6 402.7 92.5 402C92.4 401.6 92.1 401.3 91.7 401.2C90.2 400.8 94.1 400.6 94.2 400.9C102.7 400.8 116.2 396.6 124.6 397.3C130.1 398.4 126.2 395.7 134.9 395.3C173.4 389.7 207.1 388.1 245.4 383.2C272.6 381 300.8 375.4 329.1 374.2L328.9 377ZM392.5 375.1C390.3 376.5 394.2 382.5 395.9 379.6C396.7 378.7 393.8 373 392.5 375.1ZM367.1 377.1C365.5 378.2 367 378.8 367.1 380.1C367.1 382 370.5 381.4 371 380.1C370.3 379.1 368.8 375 367.1 377.1ZM30.4 378.4L29.9 379.7C33.3 384.3 37 377.9 32.8 377.5C30.8 377 30.9 377 30.4 378.4ZM51.4 379.4C60.3 385.1 69.8 384.9 78.1 381.8C78.8 381.3 78.5 383.1 78.6 383.5C66.8 385.8 56 384.5 48.3 377.7C48.3 377.5 48.7 377.8 51.4 379.4ZM342 381.6C340.4 382.6 342.3 385.8 344 387.2C345.6 386 346.6 385.7 344.8 383.3C343.6 381.8 343.5 380.5 342 381.6ZM50.8 387.6C52.3 388.7 52.2 388.8 50.3 387.8C48.4 387 48 385.3 50.8 387.6ZM78.3 389.4C78.4 389.7 76.1 389.8 77.3 389.4C78.1 389.1 78.3 389.1 78.3 389.4ZM78.2 397C68.4 398.1 69.3 398.5 78.1 395.3C78.2 395.7 78.3 396.9 78.2 397ZM56.7 398.7C58.3 399.2 61.6 399.2 63.6 399.2C60.3 400 54.4 399.6 50.7 398.5C50.6 398.4 50.4 396.8 50.3 396.4C52.1 397.1 55.1 398.3 56.7 398.7ZM69.5 398.2C69.2 398.4 68.1 398.1 69.1 398.1C69.5 398.1 69.7 398.1 69.5 398.2ZM29.6 410.6C28.4 414.7 29.8 414.8 33.6 415C33.7 414.2 34.1 411.6 33.7 411.2C33.2 410.6 29.9 410.1 29.6 410.6Z" fill="#1E1919"/>
<path id="fixed-line/color__illustration__fixedline" fill-rule="evenodd" clip-rule="evenodd" d="M334.9 99.2C330.5 108.2 341.6 115.1 348 120.6C352 124.5 359.7 129.5 362.3 133.4C365.3 135.4 372 141.6 374.7 144.1C375 144.9 379.2 147.4 378.1 148C377.4 148.6 378.2 148.4 378.5 148C379 147.5 379.3 147.9 379.4 149.3C381.3 150.9 381.8 149.4 384.3 152.5C389.9 157.7 394.8 161.7 400.6 165C394.6 169.6 408.4 175.7 410.3 170.2C410.7 168 410.9 162.2 407.7 162.8C407.2 165.4 408.3 171.3 404.5 170.4C402.7 170.7 400.7 166.7 400.8 165.6C401.4 164.4 399.9 163.3 401.1 161.8C402.4 159.6 400.6 159.6 398.9 158.3C396.2 156.7 388.9 151.1 383.3 146.3C372.4 136.9 359.9 125.9 349.2 116.9C344.4 112.5 336.3 108.5 335.6 101.3C335.7 99.2 335.4 98.6 334.9 99.2ZM340.7 102.7C336.5 104.8 341.3 105.6 342.4 107.4C342.9 106.9 345.3 111.3 346.1 111.9C356.1 110 347.5 98.3 340.7 102.7ZM399.9 134.8C399.2 135 398.6 135.2 398.7 136.5C398.9 137.3 398.4 137 397.9 137.2C397.2 137.5 397.7 136.3 397 136.6C396.4 137.1 396.8 137.2 395.4 138C392.8 139.5 394.7 139.7 397.5 139.2C400.3 138.8 400.3 138.8 401.9 139.5C401.2 140.5 394.4 140.3 395.9 142.3C395.7 142.7 399.8 142.3 399.9 143C397.2 148.9 412.4 151.5 411.6 144.9C412.2 144.2 427.4 144.4 429.8 145.8C441.9 149 445.8 154.3 451.3 164.8C452.6 166.8 452.8 168.8 453.7 167.6C454.6 163.4 445.2 150.6 443.1 148.1C433.1 138.8 415.4 140.6 401.5 142.4C403.4 141.9 404.1 140.2 403.1 138.4C406.9 138.4 413.1 138.4 416.3 138.8C418.4 138.8 425.4 140.5 423.4 137.8C422.6 136.9 417.5 136.3 408.7 136.2C400.6 135.9 402.2 136.5 400 134.7C400.4 134.3 400 134.5 399.9 134.8ZM408.3 145.9C407.5 147.5 404.3 147.4 403.9 146.7C404.2 147.7 400.7 146.1 401.6 145.7C401.9 145.7 410.1 143.9 408.3 145.9ZM396 151.6C396 151.9 396.8 151.9 396.9 151.8C396.9 151.6 396 151.2 396 151.6ZM409.4 153.7C412.6 158.4 425.4 158.5 433.6 161.5C433.7 164.6 434 167 436 169.2C436.7 170.6 439.3 169.6 440.2 170C440.9 171 442.1 179.1 444.1 177.3C444.7 175.8 440.1 161.9 438.5 160.1C435.3 157.4 427.8 155.8 422.4 155.1C418.1 154.7 411.7 152.7 409.4 153.7ZM388.8 157.6C388.8 157.7 389.7 158.1 389.7 157.8C389.8 157.5 388.9 157.5 388.8 157.6ZM417.3 161.4C417.2 161.7 417.3 161.8 417.5 161.8C418.2 161.8 417.5 160.3 417.3 161.4ZM438.2 164.4C441.8 170 438.3 168.7 435.2 165.3C435.4 164.6 435.9 163.3 436.2 162.7C436.8 163.2 437.7 163.8 438.2 164.4ZM455.6 169.8C454.7 172.2 458.5 176 458.6 177.7C458.6 178 458.8 178.1 459.1 178.1C459.9 178.2 460.1 173.4 459.9 172.9C459.5 171.9 456.1 167.2 455.6 169.8ZM412.6 174C409.6 174.5 425.4 189.1 427 191.7C428.8 195.9 430.1 201.6 433.7 204.8C436.5 207.1 439.7 210.9 442.2 207.7C443.3 206.2 443.4 205.7 442.4 205.7C435.3 204.3 433.2 194.3 429.9 188.1C428.3 185.9 416.3 173 412.6 174ZM448.8 182C447.7 182.7 445.8 185.3 445.9 187.2C447 189 448 189.1 449.9 190.6C451.7 191.9 452.7 192.4 454.2 193.6C454.6 193.7 456 195.8 456.4 194.8C456.6 194.5 456.8 194.4 456.9 194.5C457.2 194.7 457.6 192.6 458 193.1C458.2 192.4 461.1 188.8 459.3 188.2C456.8 186.7 450.9 180 448.8 182Z" fill="#1E1919"/>
</g>
</svg>
