<svg width="24" height="24" viewBox="0 0 24 24" fill="none" xmlns="http://www.w3.org/2000/svg">
<path fill-rule="evenodd" clip-rule="evenodd" d="M5 5H19V12.9472C18.9139 12.8614 18.8268 12.774 18.7385 12.6855L18.6861 12.633C18.251 12.1971 17.7844 11.7318 17.3254 11.3591C17.0495 11.1006 16.7331 10.8944 16.3916 10.7468C16.1732 10.6439 15.9424 10.5672 15.7033 10.5363C15.5067 10.4993 15.3058 10.4803 15.1029 10.4803C14.242 10.4803 13.4162 10.822 12.8066 11.4305L10.6378 13.6C10.4949 13.7361 10.3052 13.812 10.1079 13.812C9.91065 13.812 9.72094 13.7361 9.57806 13.6L9.19935 13.22C8.85016 12.874 8.39728 12.6519 7.91003 12.5879C7.67803 12.5574 7.44432 12.5636 7.21707 12.6047C7.04668 12.6264 6.88626 12.6793 6.73941 12.7474C6.65813 12.7819 6.57863 12.8213 6.50137 12.8655L6.50136 12.8761C6.38188 12.9498 6.2756 13.0285 6.18531 13.0999C5.87835 13.3428 5.57445 13.6536 5.31312 13.9272C5.26293 13.9798 5.21443 14.0308 5.16745 14.0802C5.1094 14.1413 5.05368 14.1999 5 14.2559V5ZM10.5885 11.4189C10.3993 11.4886 10.1972 11.5162 9.99624 11.5C9.79529 11.5162 9.59322 11.4886 9.40401 11.4189C9.21479 11.3493 9.04296 11.2393 8.90041 11.0967C8.75785 10.954 8.64798 10.782 8.57838 10.5927C8.50879 10.4033 8.48115 10.2011 8.49737 10C8.48115 9.7989 8.50879 9.59668 8.57838 9.40732C8.64798 9.21797 8.75785 9.04601 8.90041 8.90335C9.04296 8.76068 9.21479 8.65072 9.40401 8.58108C9.59322 8.51144 9.79529 8.48377 9.99624 8.5C10.1972 8.48377 10.3993 8.51144 10.5885 8.58108C10.7777 8.65072 10.9495 8.76068 11.0921 8.90335C11.2346 9.04601 11.3445 9.21797 11.4141 9.40732C11.4837 9.59668 11.5113 9.7989 11.4951 10C11.5113 10.2011 11.4837 10.4033 11.4141 10.5927C11.3445 10.782 11.2346 10.954 11.0921 11.0967C10.9495 11.2393 10.7777 11.3493 10.5885 11.4189Z" fill="#1E1919"/>
<path d="M17.6974 13.7659C18.1136 14.1832 18.5597 14.6304 19 15.003V19H5V16.188C5.06995 16.1565 5.13068 16.1223 5.18052 16.0919C5.33642 15.9966 5.48343 15.8755 5.61266 15.7586C5.82435 15.567 6.05561 15.3235 6.26975 15.0979C6.31324 15.0521 6.35604 15.007 6.39781 14.9633C6.43232 14.9272 6.46638 14.8917 6.5 14.8569L6.5 14.8634L6.91232 14.4507C6.98245 14.3867 7.05032 14.3282 7.116 14.2763C7.27906 14.1473 7.36691 14.1092 7.39234 14.0982C7.39704 14.0961 7.40012 14.0944 7.40012 14.0944C7.46719 14.075 7.53722 14.0649 7.60829 14.0649C7.80701 14.0649 7.9976 14.1439 8.13814 14.2845L8.51686 14.664C8.72563 14.8729 8.97349 15.0387 9.24627 15.1517C9.51905 15.2648 9.81141 15.323 10.1067 15.323C10.4019 15.323 10.6943 15.2648 10.9671 15.1517C11.2398 15.0387 11.4877 14.8729 11.6965 14.664L13.8663 12.492C14.031 12.3289 14.2263 12.2001 14.4409 12.1127C14.6556 12.0254 14.8853 11.9814 15.117 11.9832C15.3486 11.985 15.5777 12.0326 15.7909 12.1233L15.7992 12.1269C15.9316 12.1949 16.0982 12.3016 16.303 12.4622L16.3377 12.4896L16.3595 12.5115L17.4906 13.561V13.5588L17.6974 13.7659Z" fill="#1E1919"/>
</svg>
