<svg width="24" height="24" viewBox="0 0 24 24" fill="none" xmlns="http://www.w3.org/2000/svg">
<path d="M14.9 11.5075C15.3239 10.7416 15.5313 9.8748 15.5 9C15.5 6.458 14.2245 5 12 5C9.7755 5 8.5 6.458 8.5 9C8.46867 9.8748 8.67609 10.7416 9.1 11.5075C8.00033 11.5463 6.95858 12.0102 6.19391 12.8014C5.42924 13.5927 5.00126 14.6496 5 15.75V19H19V15.75C18.9987 14.6496 18.5708 13.5927 17.8061 12.8014C17.0414 12.0102 15.9997 11.5463 14.9 11.5075ZM12 6.5C12.931 6.5 14 6.784 14 9C14 11.216 12.931 11.5 12 11.5C11.069 11.5 10 11.216 10 9C10 6.784 11.069 6.5 12 6.5ZM17.5 17.5H6.5V15.75C6.50079 15.0209 6.79078 14.3219 7.30633 13.8063C7.82189 13.2908 8.5209 13.0008 9.25 13H14.75C15.4791 13.0008 16.1781 13.2908 16.6937 13.8063C17.2092 14.3219 17.4992 15.0209 17.5 15.75V17.5Z" fill="#1E1919"/>
</svg>
