<svg width="24" height="24" viewBox="0 0 24 24" fill="none" xmlns="http://www.w3.org/2000/svg">
<path fill-rule="evenodd" clip-rule="evenodd" d="M11 4H11.75C16.965 4 19.5 6.535 19.5 11.75C19.5 16.965 16.965 19.5 11.75 19.5C8.08198 19.5 5.68948 18.174 4.64148 15.5575L4.39148 14.9415L11 11.3065V4ZM6.31598 15.5945C7.23948 17.232 8.98648 18 11.75 18C16.0725 18 18 16.0725 18 11.75C18 7.686 16.296 5.7395 12.5 5.521V12.1935L6.31598 15.5945ZM9.5 5.7245C6.754 6.3425 5.5 8.268 5.5 11.75C5.5 12.0465 5.511 12.3295 5.5295 12.6035L4.1 13.39C4.03312 12.8459 3.99973 12.2982 4 11.75C4 7.3535 5.8095 4.869 9.5 4.1955V5.7245Z" fill="#1E1919"/>
</svg>
