<svg width="24" height="24" viewBox="0 0 24 24" fill="none" xmlns="http://www.w3.org/2000/svg">
<path fill-rule="evenodd" clip-rule="evenodd" d="M4.38025 4.36981H11.4513L19.0023 11.9208C19.8566 12.7751 19.8566 14.1601 19.0023 15.0144L15.0248 18.9919C14.1706 19.8461 12.7855 19.8461 11.9312 18.9919L4.38025 11.4409V4.36981ZM5.88025 5.86981V10.8196L12.9919 17.9312C13.2604 18.1997 13.6957 18.1997 13.9642 17.9312L17.9416 13.9537C18.2101 13.6853 18.2101 13.2499 17.9416 12.9815L10.83 5.86981H5.88025Z" fill="#1E1919"/>
<path d="M7.78719 7.77145C7.65914 7.88039 7.55629 8.01586 7.48576 8.16847C7.41523 8.32109 7.3787 8.48721 7.3787 8.65533C7.3787 8.82346 7.41523 8.98957 7.48576 9.14219C7.55629 9.2948 7.65914 9.43027 7.78719 9.53921C7.89614 9.66727 8.0316 9.77011 8.18422 9.84065C8.33683 9.91118 8.50295 9.94771 8.67108 9.94771C8.8392 9.94771 9.00532 9.91118 9.15793 9.84065C9.31055 9.77012 9.44601 9.66727 9.55496 9.53921C9.68301 9.43027 9.78586 9.2948 9.85639 9.14219C9.92692 8.98957 9.96346 8.82346 9.96346 8.65533C9.96346 8.48721 9.92692 8.32109 9.85639 8.16847C9.78586 8.01586 9.68301 7.88039 9.55496 7.77145C9.44601 7.6434 9.31055 7.54055 9.15793 7.47001C9.00532 7.39948 8.8392 7.36295 8.67108 7.36295C8.50295 7.36295 8.33683 7.39948 8.18422 7.47001C8.0316 7.54055 7.89614 7.6434 7.78719 7.77145Z" fill="#1E1919"/>
</svg>
