<svg width="24" height="24" viewBox="0 0 24 24" fill="none" xmlns="http://www.w3.org/2000/svg">
<path d="M20.594 9.41443L12 2.53943L3.40649 9.41443L4.34399 10.5854L5.49999 9.66043V18.9999H10.5V14.2499C10.5 14.051 10.579 13.8603 10.7197 13.7196C10.8603 13.5789 11.0511 13.4999 11.25 13.4999H12.75C12.9489 13.4999 13.1397 13.5789 13.2803 13.7196C13.421 13.8603 13.5 14.051 13.5 14.2499V18.9999H18.5V9.66043L19.6565 10.5854L20.594 9.41443ZM17 17.4999H15V14.2499C15 13.6532 14.7629 13.0809 14.341 12.6589C13.919 12.237 13.3467 11.9999 12.75 11.9999H11.25C10.6533 11.9999 10.081 12.237 9.659 12.6589C9.23705 13.0809 8.99999 13.6532 8.99999 14.2499V17.4999H6.99999V8.46043L12 4.46043L17 8.46043V17.4999Z" fill="#1E1919"/>
</svg>
