<svg width="24" height="24" viewBox="0 0 24 24" fill="none" xmlns="http://www.w3.org/2000/svg">
<path d="M11.86 8.9595L14.72 11.7095L13.68 12.7905L12.61 11.7615V15.5H11.11V11.7615L10.04 12.7905L9 11.7095L11.86 8.9595Z" fill="#1E1919"/>
<path fill-rule="evenodd" clip-rule="evenodd" d="M4 12C4 17.1585 6.8415 20 12 20C17.1585 20 20 17.1585 20 12C20 6.8415 17.1585 4 12 4C6.8415 4 4 6.8415 4 12ZM5.5 12C5.5 7.626 7.626 5.5 12 5.5C16.374 5.5 18.5 7.626 18.5 12C18.5 16.374 16.374 18.5 12 18.5C7.626 18.5 5.5 16.374 5.5 12Z" fill="#1E1919"/>
</svg>
