<svg width="24" height="24" viewBox="0 0 24 24" fill="none" xmlns="http://www.w3.org/2000/svg">
<path d="M10 11.5C10.2011 11.5162 10.4033 11.4886 10.5927 11.4189C10.782 11.3493 10.954 11.2393 11.0967 11.0967C11.2393 10.954 11.3493 10.782 11.4189 10.5927C11.4886 10.4033 11.5162 10.2011 11.5 10C11.5162 9.7989 11.4886 9.59668 11.4189 9.40732C11.3493 9.21797 11.2393 9.04601 11.0967 8.90335C10.954 8.76068 10.782 8.65072 10.5927 8.58108C10.4033 8.51144 10.2011 8.48377 10 8.5C9.7989 8.48377 9.59668 8.51144 9.40732 8.58108C9.21797 8.65072 9.04601 8.76068 8.90335 8.90335C8.76068 9.04601 8.65072 9.21797 8.58108 9.40732C8.51144 9.59668 8.48377 9.7989 8.5 10C8.48377 10.2011 8.51144 10.4033 8.58108 10.5927C8.65072 10.782 8.76068 10.954 8.90335 11.0967C9.04601 11.2393 9.21797 11.3493 9.40732 11.4189C9.59668 11.4886 9.7989 11.5162 10 11.5Z" fill="#1E1919"/>
<path d="M19.0105 12.915L19 12.9065V5H5V19H19V12.925L19.0105 12.915ZM17.5 6.5V11.515L17.4085 11.4305C16.7985 10.822 15.9721 10.4803 15.1105 10.4803C14.2489 10.4803 13.4225 10.822 12.8125 11.4305L10.642 13.6C10.499 13.7361 10.3092 13.812 10.1117 13.812C9.91433 13.812 9.72448 13.7361 9.5815 13.6L9.2025 13.22C8.85305 12.874 8.39984 12.6519 7.91222 12.5879C7.4246 12.5239 6.92944 12.6214 6.5025 12.8655V6.5H17.5ZM6.5 17.5V14.8645L7.08 14.2845C7.22065 14.1439 7.41138 14.0649 7.61025 14.0649C7.80912 14.0649 7.99985 14.1439 8.1405 14.2845L8.5195 14.664C8.72843 14.8729 8.97647 15.0387 9.24946 15.1517C9.52244 15.2648 9.81502 15.323 10.1105 15.323C10.406 15.323 10.6986 15.2648 10.9715 15.1517C11.2445 15.0387 11.4926 14.8729 11.7015 14.664L13.873 12.492C14.0378 12.3289 14.2332 12.2001 14.448 12.1127C14.6628 12.0254 14.8927 11.9814 15.1246 11.9832C15.3564 11.985 15.5856 12.0326 15.799 12.1233C16.0124 12.214 16.2057 12.3459 16.368 12.5115L17.5 13.561V17.5H6.5Z" fill="#1E1919"/>
</svg>
