<svg width="24" height="24" viewBox="0 0 24 24" fill="none" xmlns="http://www.w3.org/2000/svg">
<path d="M17.75 19H5.75C5.15326 19 4.58097 18.763 4.15901 18.341C3.73705 17.919 3.5 17.3468 3.5 16.75V5.00001H8.073C8.49112 4.99859 8.90128 5.11434 9.25698 5.33412C9.61268 5.5539 9.8997 5.86894 10.0855 6.24351L10.4635 7.00001H20V16.75C20 17.0455 19.9418 17.3381 19.8287 17.6111C19.7157 17.884 19.5499 18.1321 19.341 18.341C19.1321 18.5499 18.884 18.7157 18.611 18.8287C18.3381 18.9418 18.0455 19 17.75 19ZM5 6.50001V16.75C5 16.9489 5.07902 17.1397 5.21967 17.2803C5.36032 17.421 5.55109 17.5 5.75 17.5H17.75C17.9489 17.5 18.1397 17.421 18.2803 17.2803C18.421 17.1397 18.5 16.9489 18.5 16.75V8.50001H9.5365L8.744 6.91451C8.68215 6.78956 8.58647 6.68446 8.46785 6.61119C8.34923 6.53791 8.21243 6.49939 8.073 6.50001H5Z" fill="#1E1919"/>
</svg>
