<svg width="500" height="500" viewBox="0 0 500 500" fill="none" xmlns="http://www.w3.org/2000/svg">
<g id="celebration spin">
<path id="skin/color__illustration__skin04" fill-rule="evenodd" clip-rule="evenodd" d="M262.3 40.5996C245.2 45.0996 236.9 49.4996 228.2 64.6996C226 66.6996 225.9 68.8996 224.9 74.4996C224.4 78.0996 221.2 87.8996 221.4 91.5996C222.5 97.6996 227.5 100.1 225.2 110.6C223.8 118.5 226.5 124.2 228.7 134.6C230.9 144.9 234.2 154.5 245.6 153.6C247.7 164.4 251.2 174.4 238.5 178.2C248.9 202.5 269.3 200.9 290.7 191.8C294.1 190.1 299.8 186.7 301 185.5C304.5 180.9 310.5 172.9 312.2 167.9C310.3 165.9 305.9 163.7 305.1 161.1C303.6 157.9 302.2 150.6 303.6 146.1C304.2 144.1 304.3 143.2 304.6 138.2C304.7 130.1 307.1 123.5 309.9 115.1C315.6 101.5 316.4 82.6996 314 69.5996C310.7 57.2996 296.7 47.2996 286 42.2996C281.7 40.5996 265.9 39.9996 262.3 40.5996ZM64.2999 186.9C60.4 189.2 59.9999 206.3 58.9999 212.8C57.8999 218.5 58.5999 226.2 55.1999 230.2C52.1999 232.7 45.0999 236.1 46.3999 240.3C47.0999 243.6 43.0999 244.8 44.4999 247.9C45.3999 252.7 40.4999 257.2 45.2999 262.3C50.1999 269.1 57.7999 275.5 62.7999 282.1C65.3999 286.2 71.0999 295.4 72.0999 297.7C82.0999 315.9 89.9999 323.1 102.6 343.1C113.8 359.8 111.5 357.8 124.1 371.2C135.1 381.4 139.3 387.5 151.4 387.2C156.1 384.8 159.8 382.9 164.4 379.4C174.5 372.1 181 355.3 187.1 343.2C188.8 340.1 195.8 329.6 196.3 327.7C196.5 318.4 196.2 300.7 196.4 290C194.5 286.6 188.7 286.3 184.7 284.9C177.3 282.5 172.8 280.6 165.1 277.1C163.3 276.2 161.8 275.5 161.7 275.6C161.1 279.3 157 286.8 155.4 291C152.1 301.6 146.7 316.1 143.2 325.6C140.9 323 137.3 319.1 134.8 316.3C121.2 302.4 106.8 289.5 98.1999 271.5C93.3999 259.1 100.3 242.7 93.9999 228.5C91.3999 218.7 76.1999 195.7 78.9999 218.1C79.5999 222.7 81.0999 227 81.0999 231.7C79.0999 229.8 77.1999 226.3 74.5999 225.4C71.2999 223.9 72.9999 224.3 71.6999 222C70.8999 220.4 70.9999 220.8 70.1999 211C69.9999 208.2 69.6999 205.1 69.5999 204.1C69.2999 197.9 70.7999 183.9 64.2999 186.9ZM413.4 260.3C404.7 270.3 397.6 278.6 397.6 278.7C408.9 291.3 427.3 312.4 446.2 319.6C448.8 321 449.3 320.3 447.7 322.7C441.8 333.9 427.1 358.7 420.4 367.9C413.8 378.8 391.6 400.3 380.1 405.9L378.5 406.5C369.6 406.3 364.2 406.4 354.8 403.7C346.7 402.1 327.4 397.9 325.6 408.7C326.5 413.2 341.5 410.8 345.5 412C348.8 412.5 363.5 412.9 350.5 414.1C342.6 415.7 326.9 417.8 321.6 422.8C318.5 426.8 322.5 429.9 326.8 429.2C319 435.7 334.4 436.5 350.2 436.5C359.8 436.3 372.7 436.9 365.7 440.3C361.3 442.9 355.4 446 350.6 448.9C348.9 450.3 343.6 452.4 344 454.5C345.1 459.8 351.1 460.3 356 457.3C359 455.8 363.6 454.2 366.8 452.5C371.8 448.7 388.7 450.1 392.9 446.5C399.5 443.6 407.4 433.2 413.1 428.2C427.3 415.3 436.9 402 452.7 387.8C469.9 371.7 479.7 361.1 491.3 343.5C503.7 330.2 502 316.4 490.3 303.2C479.5 289 458 265.2 444.7 253.6C440.1 248.9 435.2 247.6 429.2 241.9L413.4 260.3Z" fill="#FACCBC"/>
<path id="hair/color__illustration__hair04" fill-rule="evenodd" clip-rule="evenodd" d="M265.5 26.6003C261.6 29.7003 254.4 22.1003 246.9 29.8003C246.9 30.7003 246.4 29.9003 245.3 29.6003C242.8 28.4003 239.8 27.8003 237.3 27.9003C236.7 29.0003 236.3 30.4003 236.2 31.6003C233.8 29.6003 228.4 27.9003 225.5 29.8003C223.5 31.5003 219.1 36.5003 220.4 39.7003C217 40.2003 211.8 42.0003 211.3 47.2003C210.8 50.0003 214.1 50.9003 216 52.5003C210.7 53.7003 210.5 63.8003 217.3 64.0003C220 64.3003 219.8 66.8003 222 67.6003C223 68.0003 224 67.8003 225.4 67.1003C227.8 65.2003 239.2 72.2003 241.5 71.3003C255.3 72.4003 262.5 66.4003 280 66.9003C289.4 71.8003 279.4 81.3003 282.2 88.7003C284.8 95.9003 285.7 99.7003 286 104.8C286.2 108.7 286.3 108.8 289 108.8C290.7 108.8 291 108.8 291.7 108.3C295.2 103.3 289.3 97.1003 299.2 92.8003C304 89.4003 306.4 94.3003 307.7 97.5003C307.5 102.6 307.1 109.8 305.6 114.9C304.8 118.8 302.2 126.2 301.2 129.9C301 130.9 304 132.7 305.5 133.4C309.8 126 311.4 118.2 312.8 108.6C315.6 102.4 320 94.4003 320.5 87.7003C320.7 86.1003 320.7 85.7003 320.4 84.9003C319.6 81.9003 324 72.9003 322.7 69.4003C322.5 66.0003 317.9 61.8003 319.5 58.1003C323.3 53.3003 315.2 43.0003 312.5 42.5003C311.8 42.4003 311.7 42.3003 311.4 41.1003C310.6 38.4003 309.4 36.5003 307.8 35.8003C306.8 35.3003 303.8 34.9003 302.2 35.0003C298.9 34.4003 296.4 30.8003 292.2 30.7003C287.1 29.9003 282.7 25.2003 277.8 28.1003C275.1 29.7003 269.2 24.0003 265.5 26.6003Z" fill="#B2AAA4"/>
<path id="cut-shape/color__illustration__accent__tangerine" fill-rule="evenodd" clip-rule="evenodd" d="M56.1001 75.3002C11.6001 81.7002 0.60011 127.2 23.9001 161.9C31.6001 175.6 43.4001 182.5 59.7001 182.2C70.3001 181.9 79.5001 183 88.9001 178C109.6 170.4 121.4 152.5 119.6 131.7C121.5 90.8002 95.9001 70.4002 56.1001 75.3002Z" fill="#FF8C19"/>
<path id="dynamic-line/color__illustration__dynamicline" fill-rule="evenodd" clip-rule="evenodd" d="M262.9 86.1002C256.9 86.4002 253.3 89.7002 251.5 95.3002C249.8 94.5002 246.2 92.8002 244.2 92.2002C243 92.6002 241.6 93.2002 240.9 94.0002C237.5 83.3002 217.9 84.1002 217.2 96.3002C217.8 97.4002 214.5 96.8002 214.6 97.4002C214.6 97.8002 216.2 98.8002 216.9 98.8002C217.3 98.8002 217.4 98.9002 217.4 99.3002C218.3 106 224.7 112 231.6 111.5C238.9 111.7 243.1 106.8 242.6 100.2C242.1 96.1002 245.1 94.0002 248.5 95.1002C252 96.5002 251.6 99.3002 253 102.2C258.3 113.4 277.2 115.5 278.4 100.5C280.8 100 299.3 101.9 293 98.6002C289.9 97.2002 282.7 98.7002 278.1 98.4002C277.5 90.1002 271.3 85.1002 262.9 86.1002ZM268.3 88.1002C273.4 88.6002 274.3 93.6002 274.8 98.4002C275.4 104.7 271.2 109.3 265.2 109.5C250.2 108.5 251.2 84.7002 268.3 88.1002ZM233.2 89.3002C239.5 90.8002 240.1 97.2002 239 102.6C238.2 109.3 232.4 110.4 226.4 109.4C222.2 108.2 221 103.8 220 99.8002C219.6 98.2002 221.9 98.7002 223.2 98.3002C228.3 97.7002 221.5 95.5002 220.1 96.4002C220.8 90.3002 227.8 88.0002 233.2 89.3002ZM118.5 98.5002C115.4 99.1002 115.1 99.0002 115.2 100.5C118.7 101.1 133.6 97.9002 132.4 103.5C127.5 114.2 108.9 118.6 99.4001 123.3C97.2001 124.3 96.9001 124.4 95.1001 124.4C89.5001 124.7 100.3 126.2 101.2 124.8C109.5 122.1 121.9 117.9 128.9 112.9C145.5 102.9 129.7 96.8002 118.5 98.5002ZM10.0001 133.4C-19.6999 146.9 25.3001 152.6 39.8001 151.8C53.9001 152 64.3001 150.3 77.2001 147C78.0001 146.7 81.5001 146.3 81.8001 145.3C79.4001 141.8 60.9001 149 53.6001 149.1C46.8001 150.7 -14.1999 151.5 7.80009 136.6C11.8001 134.2 16.4001 133 10.0001 133.4ZM86.7001 141.8C83.2001 143.8 90.2001 143.6 91.5001 142.9C93.7001 141.5 87.2001 141.2 86.7001 141.8ZM310.9 166.1C309.4 167.8 321.6 170.4 324.3 171.5C333.8 174.3 337 176.1 344.9 179.5C353.2 183.2 365.6 186.5 373.5 191.3C398.1 203 407.4 217.5 424.2 238.3C427.4 242.5 426.9 241.5 430.3 242.2C432.6 242.4 432.6 242.4 428.4 237C416.3 222.9 403.9 204.9 388.2 197.1C376.4 189.8 361.4 183.3 347.6 178.4C337 173.8 322.8 167.9 310.9 166.1ZM236.3 177.3C226.1 184.2 214.4 192.1 204 198.1C178.7 207.7 172 223.5 167.5 248.9C165.4 256.8 160 267.1 160.2 275.1C163.8 277.8 162.7 271.6 164.1 269.5C166.5 261.8 171 251.1 172.6 243.5C174.4 235.7 176.5 227.4 180.8 220.6C184.3 212.9 199.3 203.4 206.9 200.7C216.5 193.3 231 185.8 240.1 178.3C238.9 176.9 238.5 175.3 236.3 177.3ZM337.1 202.4C338 205.3 345.6 214.6 347.4 217.6C349.3 219.4 354.9 230.9 357.3 229.1C355 225.6 339.6 200.8 337.1 202.4ZM361.9 221.8C362 224.9 365.2 229.9 365.7 234.8C366.8 240.6 367.3 241.5 368.4 245.5C369.5 250.7 373.1 253.8 373.6 259.4C373.9 263.3 375.9 268.6 378.7 270C381.4 270.2 383.1 270.6 381 266.7C378.7 263 379.6 256.5 377.4 253.6C376.4 252.4 374 246.9 373.5 244.6C372.1 239.5 368.1 226.4 366.6 223.4C366.4 221.2 363.1 221.9 361.9 221.8ZM387.3 229.5C387.3 229.6 388.4 230.6 387.8 229.8C387.5 229.4 387.3 229.3 387.3 229.5ZM336.5 246.4C336 247.5 337.2 247.9 336.6 249.5C336.3 250.4 337 250.6 337.2 251.2C339.2 254.1 353.6 266.5 356 269.7C360.4 282.9 359.7 300.8 359.9 316.5C358.5 330.2 356.6 334.2 357.1 352.9V365.4C360.6 373.6 362.7 382.9 361.8 391.3C361.5 400.8 351.2 404.6 361.1 404.2C367.5 398.4 367.6 386.1 365.7 377.9C363.2 367.1 361.5 370.3 361.6 355.7C360.9 338.4 362.8 331.3 364.1 318.2C364.1 303.9 363.9 288.4 361.1 276.2C369.1 281.9 377.2 288.4 378.6 291C380.4 293.3 382.9 296 384.6 294.4C387 291.6 398.6 280.1 399 278.9C399 278.6 396.6 277.2 396.1 277.2C395.2 277.6 384.5 288.4 381.9 291C377 285.1 367.9 279.9 361.8 273.6C364 273.5 360.7 270.7 360.7 269.9C358 267.1 361 267.9 355.6 263.2C351.5 259 346.6 255.5 343.1 251.6C340.4 249 337.7 245.1 336.5 246.4ZM197.5 250.7C191.7 271.5 195.3 284.5 195.1 309.1C195.5 336 191.2 333.1 191.9 356.4C189.3 367.7 186.6 378.5 188.2 389.9C188.5 400.3 194.2 406.5 203.1 408.1C204.3 408.9 205.9 409.2 206.3 410.4C206.3 410.6 206.4 410.6 206.5 410.4C206.7 409.9 209.2 410.6 208.9 410.9C208.7 411.5 209.4 411.1 209.2 411.7C209.1 412.1 209.1 412.1 209.4 411.7C219.8 412.2 233.3 413.8 244.7 412.2C255.3 411.7 261.1 411.6 263.4 407.4C260.4 404.1 258.2 407.1 254.8 408.2C244.3 410.3 219.7 411.1 208.9 409.2C207.7 408 203.8 407.3 202.7 406.4C202.5 406 200.3 405 200.6 406.2C187.9 400.7 190.5 375.4 193.8 362.6C196.3 353 193.9 343 197.3 332.2C200.2 320.7 197.3 286.3 197.8 273.1C198.2 267 199.3 258.3 200.2 254.1C200.9 251.1 200.9 251.4 199.6 250.7C197.9 250 197.8 250 197.5 250.7ZM203.5 291.9C203.3 292.4 204.1 293 207.4 294.7C212.5 297.6 216.4 300.3 221 302.9C225 305.7 229.9 305.7 234.7 308.2C236.8 309.3 237.8 309.5 237.8 309C235.7 306 226.6 304.2 223 302.1C217.3 299.1 209.7 293.6 204.1 291.5C203.8 291.5 203.6 291.7 203.5 291.9ZM311.3 307.3C301.2 314.1 288.3 328.8 276 333.6C265.7 338.3 253.5 346.6 242.6 348.6C236.9 349 227.8 356 223.5 356.1C214.2 357.4 213.3 360.6 221.6 359.2C228.9 358.5 238.5 351.7 244.7 350.3C253.9 348.6 261.4 343.5 270 339.1C279.9 334.4 289.3 329.2 297.6 322.6C298.7 322.1 313.4 306.8 314.3 306.5C313.2 306.5 312.5 306.7 311.3 307.3ZM248 400C257.2 407.3 277.7 409.4 290.1 410.7C294.1 410.1 301 409 304.9 408.1C305.4 407.2 319 406.7 328.4 405C326 402.3 324.3 403.3 320.1 403.7C309.2 404.9 301.9 405.9 292 407.8C284.3 409.2 280.2 407.3 272.3 406.4C261.5 405.2 256.1 402.2 248 400ZM197.8 407.5C193.5 426 191.9 447 190.7 466.1C191.7 466.7 193.1 466.8 194.3 466.8C194.7 452.9 196.4 436.4 198.2 423C197.7 419.2 202.4 405.7 197.8 407.5ZM210.4 440.7C210.6 440.9 210.7 441 210.7 440.7C210.7 440.5 210.2 440.4 210.4 440.7ZM364.6 453.7C363.6 457.4 365.4 466.9 365.2 471.6C365.1 472.4 367.4 473 368.6 473C368.7 468.7 368.2 465.5 368 460.7C367.5 454.6 368.5 453.2 364.6 453.7Z" fill="#1E1919"/>
<path id="fixed-line/color__illustration__fixedline" fill-rule="evenodd" clip-rule="evenodd" d="M237.7 29.7004C235.2 31.1004 233.9 35.9004 232.7 37.9004C232.3 37.7004 229.4 37.6004 228.4 37.5004C229.3 28.8004 215.9 34.7004 221.2 41.6004C218.3 43.5004 222 42.8004 223.1 42.9004C220.9 44.4004 217 47.0004 216.9 50.0004C216.9 51.2004 216.7 51.4004 215.8 51.4004C214.9 51.4004 214.8 52.0004 215.6 52.6004C217.1 54.1004 217.5 52.1004 219.1 53.0004C220 53.5004 222.1 53.6004 223.3 53.7004C223.2 54.6004 223 55.9004 222.5 56.6004C218.2 64.2004 229.1 67.8004 235.1 65.2004C237.1 67.6004 240.8 68.1004 243.5 66.7004C244.9 66.0004 245 66.0004 245.7 66.4004C248.8 67.6004 252.3 65.5004 255.5 63.2004C256.7 63.8004 257.6 64.2004 259.1 64.1004C260.5 64.0004 260.5 64.0004 260.5 64.6004C260.5 66.0004 262.7 67.5004 264.8 67.5004C266.6 68.0004 269.9 65.3004 271.6 65.3004C273.3 65.8004 276.1 65.2004 278 64.4004C279.5 66.5004 282.4 67.2004 284.6 65.9004C283.3 67.8004 283.9 69.5004 285.9 70.7004C282.3 74.5004 285.5 74.7004 284.4 77.0004C282.8 80.2004 283.1 84.3004 286.4 85.5004C288.1 87.7004 292.4 89.1004 295.4 87.9004C295.2 92.0004 301.5 91.6004 304.4 89.1004C305.9 88.1004 305.9 88.1004 306.4 88.5004C310.3 92.2004 318.3 84.2004 314.5 81.1004C316.2 79.4004 319 76.6004 318.4 74.3004C318.2 73.8004 318.2 73.6004 319.2 72.5004C323.7 67.2004 322 64.5004 316.6 62.1004C317.9 58.6004 321.1 54.3004 317.3 52.7004C316.1 51.9004 316 51.8004 316 51.0004C315.9 49.3004 313.2 47.8004 311.6 47.2004C311.2 47.1004 311.2 47.0004 311.6 46.2004C313.3 44.4004 310.6 42.0004 310.9 44.3004C311.1 45.3004 310.9 45.4004 310 44.8004C306.1 42.9004 302 45.8004 300.5 50.0004C296.2 50.0004 294.3 49.6004 295 44.9004C312.3 40.1004 300.9 30.9004 293.8 42.9004C292.9 45.0004 286.4 44.4004 286.6 41.4004C286.7 39.4004 299.9 34.9004 290.3 33.1004C286.9 32.7004 285.2 37.0004 284.7 39.6004C284.6 39.9004 280.8 41.1004 278.8 41.5004C277.2 41.8004 272.7 42.0004 272.1 40.3004C271.9 39.9004 272 39.8004 274 38.8004C280.7 35.6004 288.4 29.1004 279.1 29.0004C274.5 28.5004 270.5 33.4004 270.1 37.5004C271 40.3004 261.3 41.6004 260.2 41.2004C259.6 41.0004 259.6 41.0004 260.9 40.3004C264.4 37.9004 271.8 33.8004 267.4 31.0004C266 30.0004 261.1 30.0004 259.8 31.1004C258.8 31.7004 258.5 31.8004 258.3 31.5004C252.8 26.8004 244.5 35.3004 245.6 41.4004C242.8 42.6004 239.9 43.2004 237.2 42.9004C237.1 42.2004 237 40.1004 236.7 39.8004C236.5 39.6004 236.8 39.2004 238 38.3004C241.9 34.9004 247.1 28.8004 239.8 28.4004C238.9 29.0004 238.6 29.1004 237.7 29.7004ZM242.3 30.2004C242.9 32.9004 237.8 38.6004 235.3 39.0004C233.2 38.1004 238.5 27.9004 242.3 30.2004ZM282 30.7004C284.1 31.2004 275.2 37.8004 272.1 38.8004C271.9 34.5004 277.5 29.5004 282 30.7004ZM257.3 32.0004C257.3 33.5004 251 39.2004 247.3 41.3004C246.8 37.6004 253.3 30.0004 257.3 32.0004ZM267.6 32.3004C268 34.9004 262 38.9004 259.4 40.2004C254.8 42.7004 259.1 29.1004 267.6 32.3004ZM226.9 34.7004C228.3 36.1004 222.3 41.7004 222.1 40.8004C221.7 40.2004 221.4 38.7004 221.6 38.1004C221.9 36.8004 225.5 33.1004 226.9 34.7004ZM292.4 35.1004C292.6 36.0004 288.9 38.6004 287 39.5004C287.4 37.0004 290.5 33.4004 292.4 35.1004ZM256.2 36.6004C254.7 41.2004 259.4 40.9004 254.9 42.2004C253 43.1004 245.7 43.7004 248.7 41.8004C249.3 42.3004 257.4 34.5004 256.2 36.6004ZM233.1 38.6004C233.1 38.7004 233.3 40.2004 233.4 40.6004C223.8 45.8004 224.1 37.4004 233.1 38.6004ZM302.8 39.2004C302.3 40.4004 297.9 43.2004 296.2 43.5004C295.7 42.5004 302.1 37.2004 302.8 39.2004ZM236.2 41.7004C236.2 43.1004 236.2 43.2004 235.5 42.0004C234.4 40.9004 236.5 39.8004 236.2 41.7004ZM271.5 41.2004C271.7 41.4004 272.1 41.8004 272.5 42.0004C274.6 42.8004 267.4 42.3004 266.6 42.4004C268.1 42.2004 270.5 40.2004 271.5 41.2004ZM225.4 42.4004C225.2 42.5004 223.7 42.6004 223.2 42.6004C223.9 42.0004 225.1 41.2004 225.4 42.4004ZM235 42.7004C237 44.0004 234.9 45.4004 234.2 47.0004C230.2 47.5004 226.1 49.4004 224.2 52.5004C222.8 53.6004 219 53.1004 218.7 51.4004C216.9 47.7004 227.9 39.5004 230.4 44.7004C230.6 45.5004 230.9 45.6004 230.9 44.8004C231.2 44.3004 228.9 42.9004 230 43.1004C231.5 43.1004 233.9 40.8004 235 42.7004ZM285.3 42.0004C286.3 44.7004 290.2 45.6004 293.3 45.6004C293.2 46.7004 293.5 47.9004 294.1 48.9004C289.3 46.7004 286.1 42.8004 280 43.3004C281 43.2004 284.9 41.2004 285.3 42.0004ZM259 42.4004C259.9 42.6004 257.2 42.7004 258 42.4004C258.4 42.2004 258.4 42.2004 259 42.4004ZM247.8 43.4004C248.5 43.8004 248.5 43.9004 248 43.7004C247.4 43.6004 245.9 43.5004 245.2 43.5004C246.2 43.1004 246.8 42.6004 247.8 43.4004ZM273.1 43.7004L274 43.9004C272.2 44.6004 270.4 46.1004 269 47.6004C269.4 45.9004 268 44.7004 266.7 43.7004C266.7 43.5004 271.9 43.5004 273.1 43.7004ZM260.7 44.0004H261.4C254.6 49.3004 260.2 55.9004 267.1 51.1004C266.5 52.5004 267.2 53.5004 265.6 54.5004C263.7 55.8004 261.7 58.8004 261 61.6004C260.9 63.6004 257.4 63.3004 256.6 63.1004C259.4 59.7004 266.1 52.6004 258 52.9004C255.6 53.6004 253.8 59.8004 254.7 61.7004C254.6 63.7004 247.4 66.5004 246 65.7004C252.1 62.9004 259.2 52.4004 247.9 53.5004C246.7 53.9004 245.4 55.0004 244.6 56.4004C244 57.5004 243.9 57.6004 243.4 57.4004C233.3 56.0004 236.4 63.9004 233.6 64.6004C228.8 66.3004 220.3 64.3004 223.7 57.9004C233.2 63.6004 244 49.2004 225.4 54.9004C224.7 55.2004 224.6 55.0004 225.2 54.2004C227.1 52.5004 231.5 51.4004 233.2 49.5004C234.3 48.2004 236.5 48.1004 237.7 47.9004C237.8 47.9004 237.8 48.5004 237.7 49.3004C238.8 59.8004 254.9 46.8004 240.5 46.4004C242.5 44.7004 247.2 44.9004 250.7 44.9004C241.5 57.2004 266.3 50.8004 254.2 44.5004C256.5 43.9004 258.6 43.8004 260.7 44.0004ZM239.6 44.5004H240.4C239.1 46.1004 237.7 47.0004 235.7 46.8004C236 46.1004 236.7 44.7004 237.1 44.1004C237.9 44.3004 238.9 44.5004 239.6 44.5004ZM266.1 44.5004C268 44.8004 267.3 46.9004 266.9 48.5004C266.3 50.6004 261.9 52.3004 260.1 51.5004C258.6 48.7004 263.1 43.1004 266.1 44.5004ZM278.7 44.8004C280.1 47.6004 274.4 53.4004 271.6 53.2004C271.1 52.8004 269.1 52.8004 268.2 52.8004C268.8 48.9004 275.2 43.1004 278.7 44.8004ZM284.9 44.8004C286.5 45.0004 288.7 46.2004 287 46.2004C283.7 45.7004 282.3 46.0004 280.4 47.4004C280.7 46.3004 280.4 45.3004 279.6 44.5004C281.2 44.5004 283.5 44.5004 284.9 44.8004ZM255.2 45.8004C258.5 47.8004 253.2 51.5004 250.5 50.9004C250.3 48.6004 252 43.9004 255.2 45.8004ZM309.6 46.0004C311.9 47.3004 303.3 50.3004 302.9 50.1004C303.3 47.8004 307 45.0004 309.6 46.0004ZM287.6 47.6004C287.9 49.9004 280.2 55.5004 279.6 52.5004C279.6 49.3004 284.8 45.7004 287.6 47.6004ZM244.5 47.9004C246.7 49.1004 243.2 52.5004 241.1 52.3004C238.7 52.6004 239.1 49.8004 239.7 48.3004C239.5 47.2004 243.9 47.8004 244.5 47.9004ZM291.6 48.4004C293.7 49.2004 294.1 49.7004 294 51.1004C289.6 50.8004 285.5 52.4004 283.1 55.9004C282.4 56.9004 282.2 57.0004 281.6 57.1004C279.2 57.3004 277.9 61.0004 278 63.4004C276.3 64.2004 274.3 64.7004 272.5 64.7004C278.6 60.5004 280.4 54.8004 271.9 55.7004C273.8 54.6004 276.5 53.0004 278 51.4004C277.8 58.4004 288.6 53.1004 289.1 48.2004C289.2 47.5004 289.5 47.6004 291.6 48.4004ZM311.2 48.6004C312.3 48.0004 315.1 49.6004 314.6 51.0004C314.6 51.9004 314.6 52.0004 314 52.0004C311.9 52.6004 309.1 53.0004 307.5 54.8004C306.9 55.4004 306.4 55.8004 306.4 55.6004C306.4 55.0004 305 53.7004 303.5 53.0004C302.1 52.3004 301.6 51.7004 302.5 51.7004C304.9 51.7004 309.4 48.8004 311.2 48.6004ZM231.5 49.5004C230.9 50.0004 225 53.4004 227.5 51.2004C227.9 50.5004 233.6 47.7004 231.5 49.5004ZM296.9 51.3004C296.3 51.4004 295.9 51.2004 295.6 50.7004C294.7 49.7004 297.7 51.2004 296.9 51.3004ZM300.4 51.7004C300.2 51.8004 299.9 51.8004 299.7 51.7004C299.1 51.5004 300.8 51.5004 300.4 51.7004ZM293.7 52.9004C292.5 56.5004 288 59.8004 285.1 60.1004C284.6 60.5004 284.6 60.5004 284.8 60.0004C285.5 58.9004 284.7 58.0004 283.8 57.5004C285.5 54.5004 289.6 51.7004 293.3 52.2004C293.8 52.2004 293.9 52.3004 293.7 52.9004ZM298.3 52.5004L300.3 52.8004C300.1 54.8004 300.8 56.4004 302.4 57.7004C295.2 54.6004 293 58.7004 295.6 52.8004C295.5 52.1004 295.6 52.1004 298.3 52.5004ZM303.4 53.5004C305.4 53.7004 305.8 57.0004 304.1 57.7004C302.6 58.1004 300 52.0004 303.4 53.5004ZM317 53.6004C318.8 55.2004 316.4 59.4004 315.1 61.7004C312 61.2004 308.8 61.6004 308.7 65.0004C308.7 66.0004 308.3 66.1004 307.4 65.5004C305.9 64.7004 306 61.4004 306.8 59.1004C310.1 59.0004 318.2 57.2004 316.2 54.3004C315.3 53.6004 316.1 53.1004 317 53.6004ZM260.5 54.5004C260.6 56.0004 257.9 59.6004 255.7 61.4004C255.8 58.6004 256.6 54.1004 259.7 53.8004C260.5 53.8004 260.5 53.8004 260.5 54.5004ZM271 54.0004C271.2 54.6004 266.7 55.1004 269 54.1004C269.9 53.8004 271 53.7004 271 54.0004ZM313.1 54.4004C312.8 54.9004 308.8 57.1004 311.7 54.9004C312.5 54.3004 313.1 54.1004 313.1 54.4004ZM234.2 54.7004C236.2 56.7004 224.3 60.1004 224.6 57.4004C224.6 55.8004 233.4 54.0004 234.2 54.7004ZM252.2 54.7004C254.8 57.0004 247.9 64.1004 244.6 64.7004C243.5 60.0004 246.5 52.7004 252.2 54.7004ZM269.2 55.8004C271.8 55.9004 262.4 62.1004 262.4 61.7004C262.2 61.5004 263.6 58.6004 264.5 57.4004C265.2 56.4004 266.2 55.6004 267.2 54.9004C267.7 55.3004 268.6 55.9004 269.2 55.8004ZM315.1 55.0004C315.1 55.1004 314.3 55.8004 314.1 55.9004C314.3 55.8004 315.1 54.6004 315.1 55.0004ZM310.3 57.2004C311.8 57.3004 307.9 57.9004 307.3 57.9004C307.6 57.4004 308.1 56.5004 308.4 56.0004C308.8 56.5004 309.7 57.2004 310.3 57.2004ZM276.4 57.2004C276.6 59.5004 271.2 64.0004 270.3 63.9004C269.4 62.0004 270.9 57.9004 273 56.5004C273.8 56.6004 276.8 56.3004 276.4 57.2004ZM299.3 57.3004C301.2 57.7004 303.5 58.6004 303.5 59.0004C302.7 60.7004 292.7 66.4004 289.7 63.9004C288.1 58.9004 294.5 55.8004 299.3 57.3004ZM243.4 58.9004C243.3 60.3004 238.6 62.7004 236.3 63.7004C235.8 59.8004 239.8 57.6004 243.7 58.0004L243.4 58.9004ZM283.5 59.4004C283 60.5004 283.1 59.2004 283.3 58.7004C283.8 57.6004 283.7 58.9004 283.5 59.4004ZM281.5 59.1004C281.4 59.7004 281.5 60.1004 281.7 60.5004C282.1 61.1004 282.1 61.1004 280.9 61.7004C279.4 62.5004 279.4 62.5004 279.4 61.8004C279 61.2004 281.8 56.8004 281.5 59.1004ZM268.9 59.8004C268.4 61.2004 268.5 63.5004 269.8 64.5004C267.4 66.1004 264.7 67.2004 262.5 66.4004C262.1 65.6004 261.3 63.5004 262.8 63.1004C263.6 63.3004 270 57.7004 268.9 59.8004ZM303.6 62.6004C302.1 64.7004 299.8 68.0004 297.9 66.5004C296.3 65.8004 289.5 65.5004 286 65.6004C286.5 65.0004 287.6 63.8004 288.1 63.3004C294 70.8004 306.7 56.4004 303.6 62.6004ZM286.8 61.9004C286.4 63.1004 284.2 65.2004 284 64.7004C284 64.2004 285.2 61.5004 285.9 61.7004C286.9 61.5004 287 61.5004 286.8 61.9004ZM243 62.9004C242.6 64.1004 244.4 65.0004 243.6 65.6004C242.2 67.0004 236 67.5004 236.6 65.0004C239.7 63.8004 240.6 63.3004 241.6 62.7004C242.8 61.8004 243 61.2004 243 62.9004ZM283.2 62.6004C282.6 64.0004 284.2 65.9004 281.3 65.6004C277.3 65.2004 280.5 63.4004 282.2 62.5004C283.4 61.9004 283.7 61.4004 283.2 62.6004ZM314.2 62.9004C313.7 63.5004 311.4 64.4004 310.7 64.7004C310.4 63.9004 313.8 61.9004 314.2 62.9004ZM306.8 65.8004C307.7 66.6004 308.8 66.3004 308 67.4004C307.6 68.1004 306.2 70.9004 305.7 72.1004C305.1 70.5004 302.6 69.9004 301.3 69.0004C301.3 68.7004 300.6 68.0004 300.4 67.8004C302.1 66.7004 303.9 65.0004 304.8 63.2004C305.2 64.1004 305.7 65.1004 306.8 65.8004ZM319.8 64.9004C322 66.4004 319 72.4004 316.7 72.5004C313.7 70.4004 310.1 70.6004 308.5 73.8004C307.1 72.7004 306.8 72.8004 308.2 70.0004C309.5 67.4004 309.8 67.1004 311.5 67.0004C313.9 66.8004 318.1 65.8004 316.7 63.9004C314.8 62.3004 318.9 64.2004 319.8 64.9004ZM293.7 66.7004C297.6 67.1004 298.5 67.2004 298.5 67.5004C296.8 68.8004 296.5 69.0004 292.8 69.1004C289.1 68.8004 288.5 70.3004 286.2 70.2004C283.5 66.0004 288.1 65.9004 293.7 66.7004ZM300.1 68.8004C300.2 69.4004 298.9 69.0004 298.5 69.0004C299 68.7004 300.2 67.7004 300.1 68.8004ZM292.5 70.3004C287.2 71.6004 290.1 69.6004 293.4 70.0004L292.5 70.3004ZM300.1 70.3004C296.2 70.7004 291.8 72.5004 290.7 77.3004C289.3 77.2004 287.4 77.1004 286.4 76.5004C287 75.3004 290.2 75.9004 290.5 75.4004C288.1 74.6004 283.4 77.3004 287.2 72.2004C287.8 71.6004 288 71.6004 290 71.6004C292.7 72.1004 298.2 68.7004 300.1 70.3004ZM303.8 70.6004C305.6 71.7004 301.1 70.9004 301.4 70.4004C301.5 69.9004 303.4 70.5004 303.8 70.6004ZM299.4 71.9004C298.8 73.2004 293.6 76.7004 292.4 76.6004C292.3 74.7004 298.1 70.0004 299.4 71.9004ZM303.7 71.9004C305.6 73.8004 294.3 81.9004 291.9 78.7004C294.6 76.6004 300.2 74.7004 300.8 72.2004C300.9 71.0004 303 71.9004 303.7 71.9004ZM316.1 72.9004L316.7 73.2004C306.4 80.4004 309.4 70.3004 316.1 72.9004ZM305.3 74.5004C305.1 76.3004 305.2 76.9004 305.5 78.1004C295.3 77.3004 301 90.6004 289.3 87.0004C288.8 86.4004 288.9 86.2004 289.9 86.2004C292.1 86.2004 295.9 83.2004 296.2 81.2004C296.3 80.4004 296.5 80.3004 297.5 79.8004C301.3 78.0004 304.5 75.1004 305.5 72.6004C305.5 72.5004 305.4 73.4004 305.3 74.5004ZM54.9 73.8004C53.5 74.3004 51.1 77.0004 49.7 76.4004C49.2 76.0004 48.4 76.0004 48.4 76.3004C48.7 77.2004 50 77.0004 48.2 78.1004C47.1 78.9004 45.4 80.8004 44.4 81.9004C38.8 81.6004 33.4 82.0004 43.1 83.1004C30.9 98.0004 27.5 116.8 30.5 134.6C28.8 136 26.8 138.8 28.8 140.6C29.4 141.3 30.9 141.1 31.1 142C31.3 143.3 32.4 148.6 32.4 150.2C32.4 150.3 33 150.4 33.8 150.4C35.1 150.4 35.3 150.4 35.2 150C35 149.3 33.9 143.1 33.6 141.4C35 140.2 36.3 137.1 33.7 136.2C32.6 135.3 33 131.5 32.6 129.6C30.8 116.3 33.4 106.1 39 94.1004C41.1 90.5004 43.7 84.5004 47.5 83.3004C62.5 79.6004 66.1 95.9004 67.4 107.4C69.2 121.5 73.5 130.8 73.5 145.6C74.6 145.4 77 144.8 76.7 144.5C76.2 132.4 73 125.3 70.7 113.2C68.4 99.3004 66.7 79.5004 48.1 81.7004C49 80.8004 51.3 78.1004 52.7 78.6004C54.4 78.9004 59.1 79.2004 61.1 79.7004C81.6 82.7004 95.5 103.6 101.1 122.1C101.3 123.6 101.9 122.5 103 122.4C105.4 121.6 104.7 121.7 104.3 120.3C96.8 98.3004 77.7 77.2004 53.7 77.5004C55.7 76.1004 60.4 72.9004 54.9 73.8004ZM307.6 75.9004C307 81.1004 306.3 75.8004 306.8 73.8004C307.2 72.6004 307.7 74.5004 307.6 75.9004ZM317.4 75.3004C316.8 77.2004 316.9 77.8004 315.3 76.1004C315.8 75.9004 317.6 74.4004 317.4 75.3004ZM71 75.4004C76.3 79.7004 80.5 80.5004 88.4 80.4004C92.5 80.1004 96.7 81.3004 95.7 80.5004C93.4 78.3004 80.1 79.4004 79.2 78.6004C78.7 78.8004 70.5 74.2004 71 75.4004ZM309.7 76.6004C310.5 76.9004 309 77.9004 308.6 78.2004C309.1 77.6004 308.5 75.7004 309.7 76.6004ZM315 77.3004C314.9 78.1004 313.5 79.3004 312.8 79.9004C312.3 79.7004 310.2 79.0004 310.1 78.8004C310.3 78.4004 312 76.8004 312.7 77.0004C313.5 77.2004 315.3 75.7004 315 77.3004ZM287.9 77.7004C289.8 78.2004 292.6 78.3004 289.8 80.8004C288 82.1004 287.6 84.9004 286.9 85.3004C284.4 85.2004 283.8 74.9004 287.9 77.7004ZM305.7 79.0004C308 79.3004 302.7 84.8004 301.4 84.0004C296.7 83.5004 303.4 78.0004 305.7 79.0004ZM311.1 79.9004C313.6 80.3004 308.1 80.9004 309.2 80.0004C309.6 79.2004 310.4 79.8004 311.1 79.9004ZM294.9 80.8004C295.4 82.1004 289.5 86.3004 289.2 85.1004C289.3 83.4004 292.5 79.4004 294.9 80.8004ZM311.1 81.4004C311.7 81.6004 314.1 80.7004 313.1 81.4004C312.9 81.9004 310.3 81.5004 311 82.1004C311.3 82.5004 313 82.5004 314.1 82.1004C316.6 84.4004 310.1 90.3004 307.4 88.5004C306.7 87.8004 307.2 83.5004 308.2 81.6004C308.7 80.6004 310 81.7004 311.1 81.4004ZM306.1 83.7004C306.1 87.9004 301 90.4004 297.4 90.3004C297.4 89.7004 297.4 88.1004 297.6 87.8004C298.8 87.1004 300.3 86.6004 301.7 85.9004C303.1 85.4004 305.5 83.6004 306.5 82.4004C306.4 82.5004 306.3 83.0004 306.1 83.7004ZM261.9 83.5004C259.4 85.1004 253 85.9004 251.5 88.4004C251.5 88.7004 253.4 90.4004 253.9 90.9004C258.6 81.7004 279.2 90.7004 270.8 84.7004C268.6 84.3004 263.5 82.0004 261.9 83.5004ZM233.7 86.9004C234.4 87.7004 236.8 88.8004 237.7 89.8004C239.3 91.2004 238.8 90.6004 240.3 91.1004C243.8 92.2004 240.2 88.8004 238.9 88.2004C237.6 87.6004 234 87.0004 233.7 86.9004ZM228 88.8004C226.9 89.1004 226.4 89.6004 227.7 89.3004C227.8 89.4004 223.6 91.9004 224.5 92.2004C225 93.2004 225.6 93.2004 227.6 92.1004C231.9 89.2004 233.1 90.2004 236.2 90.5004C236.4 89.3004 229.2 88.2004 228 88.8004ZM310.6 90.3004C310.5 90.5004 313.3 92.7004 311.9 91.3004C311.2 90.9004 311.4 89.9004 310.6 90.3004ZM262.2 91.7004C258.1 93.4004 253.5 94.3004 254.3 97.9004C255.4 97.7004 256.5 96.4004 257.2 96.5004C258.1 102.6 268.5 100.3 264.1 94.3004C266.1 93.0004 270.7 95.7004 272.7 96.1004C271.1 92.4004 266.2 90.1004 262.2 91.7004ZM232.4 94.2004C230.5 94.9004 223.3 96.9004 226 99.2004C227.2 99.9004 227.2 98.4004 229 98.2004C229.4 98.1004 229.6 98.1004 229.5 98.2004C228.9 99.5004 232.2 102.3 234.2 102C237.5 102.5 237.7 95.6004 239.5 97.6004C240.4 94.8004 235.1 93.4004 232.4 94.2004ZM300.8 95.2004C297.8 96.0004 295.2 101.3 296.6 104C297.3 104.9 297 105.4 297.4 106.7C299.2 109.9 293.7 111.8 297.9 113C299.4 113 300.5 111.2 300.7 110C302.1 110.4 301.3 107.6 300.5 107.2C299.2 106.4 298.4 105.7 298 104.1C300.8 99.1004 298.6 100.8 302.5 101.4C307 101.5 303.4 114.8 301.7 115.2C300.8 115.6 299.3 116.7 298.1 116.9C296.7 117.2 296.4 117.7 297.6 118C304.3 119.5 306.3 109.2 306.9 104.8C307 102.1 303.1 98.4004 300.2 100.1C302.3 97.5004 305.2 96.2004 307 99.7004C307.9 99.9004 306.9 98.4004 306 97.5004C303.8 95.0004 303.1 94.7004 300.8 95.2004ZM238.4 109.3C236.6 110.7 237.2 110.7 236.7 113C234.7 119.7 238.5 123.4 243.8 122.7C244.1 122.4 244.1 122.2 243.1 121.1C242.1 119.5 240.5 119.7 238.7 119.5C238.5 116.8 238.9 114 239.6 110.1C240 107.9 240.1 108.2 238.4 109.3ZM253.5 113.4C253.1 113.8 254.8 115.7 254.6 116.3C254.5 117.6 256.7 119.9 257.6 118.6C258.8 117.7 254.4 112.5 253.5 113.4ZM263 113.8C263.8 116.6 268.1 121.3 270.4 123.4C271.8 124.2 274.4 125.5 274.7 124.1C272.4 121.8 265.9 113.1 263 113.8ZM303.2 117.3C302.3 119.8 300.6 123.5 297.8 122.8C296.2 122.6 296 122.5 295.6 121.3C295.1 120.1 294.3 119.5 294.1 120.1C294.1 124.8 303.1 125.9 304.2 121C304.9 118.4 304.2 115.8 303.2 117.3ZM246.5 117.4C244 119.2 250.2 123 251.2 119.6C251.5 117.6 248.1 116.4 246.5 117.4ZM232.2 121.5C229.6 125.2 231 126 233.3 127.2C233.4 127.2 236 122.7 236 122.5C235.1 121.6 233.3 118.8 232.2 121.5ZM103.6 123.5C101.3 124.4 101.8 123.4 102 126.9C103.7 144.9 98.6 168.7 82.7 178.8C80.9 180.4 80.4 181.7 83.6 181.3C84.4 181.1 84.7 180.9 86.4 179C102.1 167.6 107.9 142.3 105.2 123.8C105.1 123.7 105.2 123.5 105.3 123.4C106 123 104.9 123.1 103.6 123.5ZM257.2 125.5C256 125.8 253.3 125.8 252.3 126.7C251.2 127.5 251.1 127.5 248.8 127.5C245.8 127.1 241 130.1 240.3 131.6C242.3 135.4 248.3 130.2 251 130.7C255 129.6 263.5 129.4 265 127.5C269.3 124 258.3 125.5 257.2 125.5ZM275.5 132.6C274.2 133.5 270.8 135.7 269.7 136.8C269.7 137.1 270.4 138 270.8 138.2C270.9 139 276.2 134.6 277.4 133.7C277.7 132.9 276.2 131.9 275.5 132.6ZM252 135.9C250.6 136.5 248 135.7 246.9 136.1C247.3 139 250.1 140.8 254.6 139.2C257.2 138.5 258.1 138.2 257 136.4C256 134.9 253.6 135.7 252 135.9ZM281.1 142.3C269.6 150.8 263.7 154.5 247.7 154C245.1 153.9 244.7 154.2 246.2 155.4C248.7 156.3 250.3 155 251.7 158.6C254.3 164.1 254.5 164.5 255.5 165.4C256.2 166 256.5 166.2 256.7 166C256.9 165.8 256.3 164.5 254.9 161.6C253.7 158.8 251.6 155.7 253.3 155.9C259.1 155.6 266 155.7 271.3 152.6L274.8 150.9C276 149.2 286.3 140.6 281.1 142.3ZM75.7 147.2C75.5 147.4 73.9 147.6 73.4 147.6C74 157.3 71.4 169.1 68.1 181.1C73.5 181.5 71.3 182.2 74.4 170.6C75.2 168.3 78.6 146.3 75.7 147.2ZM288.3 152.4C286.8 156.9 284.7 161.5 282.8 165.9C281.7 167.8 277.1 179.1 277.1 179.9C277.3 180.5 279.6 181.5 280.6 181.4C285.2 172.2 288.4 163.4 291.6 153.3C292.1 152.6 289.5 151.3 289.1 151.3C288.9 151.2 288.6 151.7 288.3 152.4ZM32.9 152.4C34.5 158.3 47.9 182.8 54.4 181.5C47.4 173 38.3 162.4 36 151.8C36.1 151.6 33.2 151.7 32.7 151.6L32.9 152.4ZM260.1 160.4C260.5 162.7 265.2 166.8 266.7 165.4C266.4 163.8 262.6 162.7 261.4 161.2C260.6 160.4 260.1 160 260.1 160.4ZM243.6 186.6C244.3 188.8 247.6 188.8 250.1 189.8C262.5 193.6 259 188.7 249.9 187.6C247.7 187.6 244.5 185.6 243.6 186.6ZM61.9 197.9C62.6 200.2 69.8 200.5 70.9 199.9C71.9 199.1 62.2 196.9 61.9 197.9ZM64.2 212.9C63.6 213.8 69.7 214.1 70.3 213.6C70.7 213.3 64.8 212 64.2 212.9ZM80.6 223.9C81.6 225.6 88.7 225.6 88.9 224.5C89.1 223.9 87.9 223.6 84.2 223.5C80.6 223.5 80.6 223.5 80.6 223.9ZM67.5 224.2C67.6 223.9 53.4 231.3 59.2 230.7C62.1 229.5 67 225.4 70.3 225.1C74.5 224.3 68.7 223.7 67.5 224.2ZM66.2 232C64.8 232.2 47.9 241.9 51 241.9C54.8 241.6 66.7 230.4 69.9 233.8C75.5 238 78.4 245.3 81.9 251C76.7 250.6 78.7 256.6 82.2 258.7C82.7 258.6 82 259.1 81.4 258.8C79.1 258.3 79.8 257.6 78.7 255.6C76.8 251.6 68.6 242.1 66.2 241.2C62.3 240.1 58.6 242.6 55.3 245.3C54.3 246.4 50.1 248.2 50.5 249.3C50.7 249.9 51.9 249.7 52.7 249C55.2 247.5 58.3 245.2 60.6 243.3C62.1 241.9 63.8 242.5 65.3 242.1C65.8 241.4 71.1 247.5 71.4 248C82.9 262.6 73 253.4 74.3 261.7C73 260 70.2 257.3 69.1 255.6C68.6 254 60.9 249.9 58.6 252.9C57.8 253.7 53 255 51.8 255.8C52.3 258 59.5 255 61.1 253.8C62.2 253 62.3 253 62.3 253.6C62.3 255 59.9 259.4 58.3 260.9C57.4 261.8 57.4 261.9 58.1 262.2C60.7 263.5 64 255.8 64.1 254C64.8 251.5 68.1 258 69.3 258.6C68.2 262.5 69.5 265.8 70.3 259.8C72.1 261.5 74.3 264.8 77 265.3C77.8 265.5 78.1 265.7 78.7 266.9C80.1 268.9 82 275.8 85.1 274.5C85.1 272.7 80.9 266.7 80.2 265.2C80.9 264.1 80.9 261.9 80.7 260.3C82.5 260.1 86.7 259.4 87 256.6C87.1 255.8 86.1 254 86.3 253.4C97.8 250.8 88.8 237.7 83.2 232.7C77.8 229.3 85.9 237.1 86.8 239.9C91.6 246.5 79.8 238.8 86.8 250.1C87.7 251.4 87.7 251.6 87.1 251.8C85.6 252.4 85.7 252.4 84.8 250.7C79.4 244.2 75.9 230.9 66.2 232ZM89 244.7C89.8 246.5 90 248.9 88.6 250.4C87.8 248.7 85.5 244.3 87 243.9C87.9 243.2 88.4 243.4 89 244.7ZM82.5 252.2C84.5 256.1 84.7 256.9 83.9 257.7C81.7 260.6 78.6 249.1 82.5 252.2ZM77.7 258.9C78.2 259.9 78.2 263.1 77.7 263.7C76.6 264.6 75.8 261 76 260.3C76 258.6 77 257.2 77.7 258.9ZM87 278.7C87.1 280.3 90.3 281.5 91.6 281.8C89.5 279.9 87.1 277.4 87 278.7ZM455.9 318.5C454.2 320.4 447 321.2 447.4 322.7C450.6 325.5 455.9 321.5 459.2 319.7C461.8 318.6 456.3 317.4 455.9 318.5ZM142.8 326.3C142.5 327.7 145.4 330 146.5 332.1C148.8 335.3 151.7 338 154 336.5C153.7 335.2 146.5 325.2 142.8 326.3ZM329.2 403.7C329.1 404.4 331.9 404.3 331.4 405.7C331.4 408 328.8 408.9 326.9 408.9C324.6 410.3 332.1 409.8 332.5 408.7C334.6 405.6 332 403 329.2 403.7ZM367.6 411.7C365.5 412.3 366.4 413 369.3 413C371 413 371.3 412.9 371.2 412.6C371.1 412 368.7 411.3 367.6 411.7ZM355.7 412.9C354.8 413.5 361.5 414.9 363.5 414.2C362.8 412.7 357.1 412.3 355.7 412.9ZM325.8 420.2C331.8 424.8 326.6 426.4 322.4 427.8C321.9 428.4 325.9 428.5 325.7 429.1C325.5 429.6 326.5 430 327.1 429.7C328.7 428.7 333.5 431.1 331.5 433.4C331.2 434.3 325.8 434.6 328.1 435.4C332 436.3 336.8 431.6 331.1 429.3C341.5 427.1 356.5 426.9 366.1 425.5C363.7 422.9 357.9 424.9 353.2 425C345 425.7 337.5 426.8 329.6 427.9C333 425.9 329 419.8 325.8 420.2ZM371.5 423.2C368.8 423.6 369.5 425.1 371.9 424.6C372.6 424.2 378.2 425.4 376.7 424C376.2 423.6 372.5 423 371.5 423.2ZM371.7 437.3C369.9 438.4 376.8 439.4 376.8 438.3C375.5 436.8 371.3 437.2 371.7 437.3ZM346.3 451.4C344.3 453.6 349.5 451.8 350.6 452.2C351.6 455.6 345.5 457.6 347.9 458C354.4 456.1 353.9 449.2 346.3 451.4Z" fill="#1E1919"/>
</g>
</svg>
