<svg width="501" height="501" viewBox="0 0 501 501" fill="none" xmlns="http://www.w3.org/2000/svg">
<g id="devices couch">
<path id="cut-shape/color__illustration__accent__sunset" fill-rule="evenodd" clip-rule="evenodd" d="M106 136.3C103.8 137 103.7 137.5 104.4 142.6C107 159 113.1 211.2 114.3 209.9C124 223.6 135.6 240.6 146 255.8C150.3 257.6 199.9 265.9 216.7 269C220.6 271 219.7 264.1 219.6 261.6C211 249.8 196 230.4 185.3 220.8C175.6 218.9 157.1 215.2 147.1 213.9C142.9 202.5 141.4 183.6 131.7 170.7C129.7 167.5 124.9 160 121.2 153.8C111.1 137.5 109.6 135.3 108.3 135.5C107.9 135.7 107 136 106 136.3ZM164.8 148.2C160.2 148.9 162.5 149.8 163.4 152.5C165.4 157.9 177.3 183.6 181.8 193.8C189.3 211.1 186.5 208.4 201.4 197.2C201.7 189 201 188.9 198 181.6C194.8 173.8 190.7 165.1 187.4 156.8C185.8 152.8 184.4 149.4 184.2 149.1C184.1 147.7 167.4 147.8 164.8 148.2ZM433.3 151.9C418.3 155 396.4 160.8 385.9 161.2C382.3 169 377.1 179.2 373.8 187.7C375 191 375.6 187.8 375.4 197.2C375.4 204.7 375.4 204.7 374.4 206.7C373.5 209 371.4 210.2 373.9 211.6C377.2 212 390.3 206.7 392.6 207.5C395.5 207.5 402.3 206 404.1 206.9C404.1 207.7 408.6 207 410 208C410.6 208.7 411.1 208.7 412.2 207.9C413.2 207 415.5 207.8 416.4 206.8C418 204 425.4 185.6 426.9 182.2C430 174.8 436.7 158.1 437.5 155.9C437.9 154.8 438.1 153.7 438 153.4C437.1 152.6 434.6 150.9 433.3 151.9Z" fill="#FA551E"/>
<path id="skin/color__illustration__skin21" fill-rule="evenodd" clip-rule="evenodd" d="M258.9 89.0999C257 93.1999 256.6 104.4 257.3 108.6C259.1 115 261.6 115.9 259.2 125.2C258.5 130.9 256.8 133.2 259.9 136.4C261.6 138.5 265.6 137.6 265.7 140.7C266 142.2 266.3 142.6 267 142.9C268.8 143.5 267.1 148.6 270.2 148.3C271 148.3 271.1 148.5 271.1 149.9C270.8 154 274.7 158.2 278.3 159.5C282.3 162 290.2 157.6 295.7 154.3C295.9 154.5 300.1 162.7 300.6 162.8C302.6 164.5 302 159.2 304 161.1C305.6 162.9 307.7 158.3 313.1 157.8C317 156.8 325.1 154.2 328.8 153.5C333.5 152.7 333.6 152.5 331.9 149.5C327.8 145.7 327.4 128.2 324.7 129.7C303.9 131.2 312.6 112.4 300 111.4C288.7 112.8 301.1 135.7 285.6 119.7C285.5 118.2 285.9 111.4 285 111.7C270.8 104.3 303.4 87.7999 258.9 89.0999ZM187.1 165.1C184.8 166 185.5 169.7 187 171C189.9 173.8 193.7 173.8 195.4 178.2C198.6 186.3 200.9 189.1 200.9 197.1C198.8 199.8 194.3 202.6 193 205.1C193.3 208.5 200.2 214 204.1 214.6C204.6 214.6 211.8 229.5 212.1 229.6C212.5 230.1 214.9 236.2 214.7 236.4C204.9 230.1 188.5 218.5 178 215.2C170.1 212.9 162 215.1 156 220C154.5 221.1 149 223.5 149.7 225.6C151.1 231.7 156.7 226.3 153.6 231.1C152.1 233.9 152 234.9 153 235.9C154.2 236.9 153.2 239.4 154.7 240.5C159.9 252.7 170.3 233.3 179.8 241.5C171.8 241.1 162.6 245.7 174.6 248.9C177 249.4 185.8 249.9 191 249.8C201.5 260.3 218.4 263.2 231.7 269.6C246.1 275.8 260.4 281.9 275 287.7C279.2 289.3 287.7 293.4 293.2 291.9C301.9 288.7 307.6 284 311.5 275C312.9 269.6 328 251.3 322 249.9C313.1 247.5 299.8 242.1 290.6 242.5C289.5 243.7 285.7 255.1 284.9 253.4C270.2 249.2 238.8 245.1 224.3 240.2C222.3 239.1 215.7 238.9 221.3 237.3C224.7 236.3 226.6 234.6 228.2 231.6C230.8 229 235.1 227.5 237.6 225.3C238.1 224.6 237.4 223.5 233.3 217.9C226.9 208.9 222 202.4 217.4 194.2C217.8 190.9 213.8 178.7 209.4 176C204.2 172 192.9 165.5 187.1 165.1Z" fill="#843F18"/>
<path id="hair/color__illustration__hair22" fill-rule="evenodd" clip-rule="evenodd" d="M290.4 63.4003C274.5 65.0003 263.4 73.1003 259.1 88.8003C259.1 88.8003 261 89.0003 263.3 89.1003C277.7 89.9003 279 90.2003 281.1 92.2003C287.6 97.5003 277 104.2 282.3 110.1C283 110.9 284 111.7 284.5 111.8C285.8 111.1 285.2 118.2 285.3 119.7C288.1 122.1 294.4 129.9 294 122.4C293.9 109 304.8 106.5 309.1 122C310 127.4 320 131.7 326.2 128.9C326.4 128.5 327.1 124.8 327.7 120.7C335.2 90.3003 327.7 60.6003 290.4 63.4003Z" fill="#422608"/>
<path id="dynamic-line/color__illustration__dynamicline" fill-rule="evenodd" clip-rule="evenodd" d="M204.3 3.79976C204.1 12.9998 203.9 15.1998 203.8 32.7998C203.4 74.6998 203 91.5998 202.5 98.4998C199.7 98.9998 195.9 94.7998 193.1 91.5998C191.2 65.6998 191.8 30.8998 191 4.49976C187.2 4.39976 189.8 21.5998 189.3 27.2998C189.5 40.3998 190.4 79.6998 190.2 89.8998C172.7 91.0998 144.2 90.8998 122.2 92.4998C113.5 93.5998 111.5 90.2998 107.5 92.2998C106.8 93.0998 106.8 93.0998 108.3 92.8998C118.4 95.9998 141.2 93.2998 153.5 93.0998C168.9 92.6998 177.7 93.0998 192.4 92.1998C201.2 103.2 208.6 101.1 194.8 102.5C190 103 189.8 103.1 182.6 102.7C155.9 101.9 148.5 104.4 119.4 104.3C108.6 104.9 100.7 103.4 100.4 105.6C100.4 106.3 97.7999 106.3 124.9 106.3C148.9 106.4 157.7 104.6 179.6 104.8C188.2 105.6 199.3 105 205.2 104C205.4 103.8 205.4 103.7 205.4 85.5998C205.5 56.0998 206.2 25.2998 206.7 0.699758C207.1 -0.200242 205.2 0.0997578 204.6 0.0997578L204.3 3.79976ZM419.4 18.5998C412.9 31.7998 429.5 45.0998 432.3 57.1998C432.2 60.9998 431.7 70.1998 431.6 70.3998C431.4 70.4998 431.4 65.2998 431.3 65.2998C429.9 56.8998 426.5 49.8998 420.5 42.8998C415.3 38.0998 408.2 35.5998 408.7 43.8998C409.8 48.8998 413.4 55.4998 416 60.0998C410.2 57.6998 405.4 59.3998 405.4 65.0998C404 64.9998 411.7 78.7998 411.7 79.4998C396.5 73.9998 403.2 88.4998 408.9 96.0998C405.3 95.9998 400.4 96.3998 400.6 100.8C400.3 104.1 401.6 106.3 407.7 112.8C412.4 117.3 416.1 124.1 420 126.1C422.6 125.8 421.3 132.8 420.2 138.7C417.1 130.3 409.4 112.5 398.7 119.3C392.9 127.9 403.4 134.2 410.1 139.2C419.1 145.3 419.8 143.9 420.2 155.4C421.6 156.5 420.7 152.2 422.1 152.6C423.9 153.3 442 141.3 443 142.4C447.9 141.5 448 149.3 445.7 151.8C444.5 153.1 440.2 156.1 438.2 157C437.2 157.4 436.5 158 436.5 158.3C436.5 160.5 446.7 155 448.8 151.7C451.3 146 447.5 140.5 441 141.6C447.9 136.3 451.8 124.1 438.7 127C427.6 128.5 418.6 156.1 423.6 132.8C424 132 436.1 126.8 438.2 125.1C442.9 121.8 454.2 107.6 441.2 107.6C434.4 107.9 428.7 116.8 425.9 121.7C423.9 127 426.1 115.7 425.9 115.4C425.8 102.7 436.9 112.8 449.5 94.5998C450.3 92.6998 451.7 84.3997 446.7 84.6998C444.8 84.6998 444.6 84.4998 445.5 83.6998C448.5 80.7998 454.3 69.1998 451.7 64.6998C443.2 61.3998 436.3 71.3998 433 78.3998C433.1 77.3998 433.4 73.4998 433.5 73.1998C439.5 67.4998 453.8 52.2998 454 48.5998C458.5 39.7998 450.6 39.9998 443.2 42.9998C441.2 43.9998 438 47.6998 436.4 50.8998C435.6 52.5998 434.8 53.7998 434.7 53.5998C434.5 53.2998 434.4 48.7998 435.2 48.8998C435.9 48.6998 444.4 39.7998 446.7 36.8998C459.5 20.1998 440.5 15.0998 435.5 32.5998C434.2 36.3998 434 36.4998 433.6 32.9998C433.3 26.6998 425.4 15.5998 419.4 18.5998ZM425.4 20.0998C430.5 25.1998 431.5 31.6998 432 40.1998C432.1 44.6998 433.1 48.6998 431.7 51.3998C428.3 46.0998 422.1 36.6998 420.3 30.5998C419.3 25.9998 418.7 15.2998 425.4 20.0998ZM448.6 22.8998C450.9 32.4998 439.3 40.6998 434.3 47.1998C434.9 40.1998 437.3 23.7998 445.2 22.8998C448.2 22.0998 448.4 22.0998 448.6 22.8998ZM415.8 40.3998C423.2 45.1998 430.5 62.6998 429.1 72.2998C425.6 68.7998 419.4 63.2998 418 59.8998C415.4 54.3998 414.7 53.9998 411.7 46.6998C410.2 42.8998 410.9 37.0998 415.8 40.3998ZM452.6 43.3998C450 55.1998 442.7 60.0998 433.7 70.1998C433 59.4998 439 44.4998 449.2 42.2998C452.4 41.5998 452.6 41.6998 452.6 43.3998ZM416.6 63.3998C424.1 69.3998 427.1 81.0998 426.8 89.9998C426.7 91.4998 426.6 93.0998 426.6 93.4998C426.6 94.0998 426.4 93.9998 425.7 93.0998C424.5 91.4998 422.3 89.0998 419.8 86.8998C418 85.2998 404 69.1998 409 61.7998C412.1 58.6998 412.8 60.1998 416.6 63.3998ZM449.6 65.2998C449.8 66.3998 450 67.5998 449.2 68.6998C448.6 69.6998 448.5 70.0998 448.9 70.5998C449.7 71.9998 446.6 78.4998 442.8 83.2998C440.9 85.5998 440.2 86.2998 438.1 87.1998C436.2 87.5998 431 93.0998 429.7 93.9998C430.7 86.9998 440 63.9998 449.6 65.2998ZM428.8 74.6998C427.8 76.7998 427.7 75.3997 426.8 73.6998C424 69.3997 428.7 73.7998 428.8 74.6998ZM430.3 77.5998C431.3 78.7998 429.5 84.5998 429.3 84.2998C428.9 81.7998 427 74.7998 430.3 77.5998ZM410.1 80.2998C415.7 82.0998 422.7 102.8 422.9 106.9C422.9 107.9 411.8 96.8998 409.7 93.8998C408 91.2998 405.2 85.6998 404.9 84.1998C404.6 80.6998 405.5 77.2998 410.1 80.2998ZM447 86.1998C451.1 96.3997 435.2 106.9 427.4 107.7C427.1 107.5 427.6 99.6998 430.8 98.3998C434.3 96.2998 442.9 83.8997 447 86.1998ZM423.9 93.4998C424.4 95.3998 427.5 94.6998 427.1 96.1998C426.6 96.7998 425.4 109.2 424.6 103.8C424.9 99.8998 415.5 81.7998 423.9 93.4998ZM356.9 96.2998C354.6 98.6998 354.4 106.7 355.1 111.9C354.9 116.6 365.4 132.6 364.7 138.4C364.7 143.6 364.7 143.7 364.2 142.9C362.4 136.4 359.3 122.5 352.4 122.2C340.5 120.1 347.6 137 351.3 141C335.2 140.6 345.6 157.8 354 161.9C351.2 163.3 346.7 163.8 347.7 168.6C347.6 172.2 350.9 177 353.2 178.1C353.9 178.3 353.8 178.5 352.3 179.8C351.2 180.6 349 183.4 348.4 182.1C346.8 177.5 346.8 171 343 166.8C337.1 161.2 338.8 152.8 335 151.6C317.3 154.7 296.6 161.4 283.3 171.9C271.6 167.4 249.2 169.9 237.9 174.6C232.3 177.3 217.7 179.5 212.7 180.6C225.1 185.2 243.8 174.7 255 172.8C260.4 171.6 274.9 171.3 281.4 173C277.1 176.8 267.5 185.5 265.2 190C259.8 199.3 246.2 217.3 237.8 223.7C223.8 229.6 229.8 232.7 223.7 235.2C221.1 235.7 215.2 239.9 220.1 238.6C228.6 233.4 246.7 239.3 257 237.2C258.1 236.7 257.9 236.7 253.3 236.6C246.3 236.6 232.9 235.8 228.5 235.1C232.1 221.8 262 226.1 270 217.2C271.2 215.9 270.8 216 266.7 217.6C257.9 221.4 250.5 221 242.9 222.8C242.2 223.1 242 222.3 242.6 222.2C261.4 207 266.1 183.8 289.9 170C300.5 162.8 323 155.2 335 153.6C335.5 157.2 335.3 157.7 333.2 157.7C332 157.7 323.1 159.7 321.4 160.3C318.3 161.2 303.2 165.1 303.5 165.8C303.5 166.8 304.4 166.7 312.9 164.3C319.1 162.6 329.4 160.1 332.5 159.5C336.4 158.8 336.4 158.8 338 161.6C353.2 180.2 339.6 208 335.5 228.8C334.2 233 332.7 240.5 331.3 243.8C330.2 246.1 329.7 251.5 325.2 249.3C317.1 247.9 306.5 244 298.9 242.1C276.8 238 282 244.9 288.3 220.6C291.3 211.8 291.8 206.8 296.4 200.9C296.2 199.6 309.1 188.4 315 181C315 179.9 314.6 180.1 313.1 181.6C309.4 184.8 307.3 186 302 191.4C291.4 202.6 296.9 194.7 301.1 186.8C303.8 182.8 304.6 181.4 304.4 181.1C304 180.5 303.6 180.7 302.5 182.3C296.8 189.2 293.1 195.1 290.8 203.6C287.7 216.4 283.9 224.7 281.6 235.8C278.2 244.8 282 242.1 290.7 243.9C305.3 245.6 314.8 250.5 327.8 252.5C330.2 252.5 333.2 252.1 333.6 249.2C334.7 245.6 335.6 242.3 336.6 238.9C340.6 227.8 343.1 215.7 345.5 204.1C346 201 347.5 193.1 348.1 189.5C348.7 185.5 348.4 185.9 353.6 182C358.6 177.9 372.3 169.4 368.8 176.4C361.9 191.8 356 211.3 353.3 229.1C351.4 243.7 346 268.6 338.1 280.8C333.8 286.7 327.8 291 323 295.8C312 295.8 293.1 296.1 287.8 297.8C285.8 298.5 291.4 291.2 289.9 290.9C289.2 289.8 287.9 290.9 282.9 296.6C279.4 301.2 274.1 299.9 267.6 301.5C257 303.6 245 305.9 234.2 306.9C233.4 304.4 214.2 259.1 213.2 269.8C218.8 278.9 227.2 296 231.2 306.4C218.2 309.2 186.5 308.3 173.3 306.4C165.4 305.1 151.6 305.5 143.2 304.1C134 302.7 128.2 304.8 121.6 303.3C115.1 300.5 105.3 300.7 98.8999 296.1C94.9999 293.7 93.7999 293.2 94.4999 294.3C96.2999 294.9 102.3 299.4 105.4 301C106.8 301.7 111.3 302.7 119.2 304.4C124.8 304.8 114.8 308.5 113.3 308.9C111.5 308.7 103 306.3 99.3999 305.3C95.5999 304.9 75.8999 295.4 75.1999 299.1C74.8999 299.8 74.5999 300.5 74.6999 300.5C78.1999 301.4 88.3999 304.2 89.0999 304.7C93.8999 306.5 108.8 311.1 110 311.1C113.1 310.8 107.5 314.9 106.1 316.2C104.6 317.3 101.1 323.7 100.1 325.6C96.6999 314.6 86.7999 305.1 73.0999 303.4C72.6999 304.5 70.3999 308.6 71.6999 308.2C81.9999 308.4 97.0999 318.2 98.8999 327.1C96.7 334.6 96.7999 348.6 97.1999 357.4C99.6999 386.2 23.2999 374.3 3.19995 373.4C2.79995 374.1 0.399949 376.8 0.599949 377.1C13.2999 378.2 24.0999 379.2 37.2999 379.6C51.2 380.6 53.9999 379.9 68.5999 379.2C82.4999 379.5 93.6 377.1 98.2999 364.8C110.3 379.9 150.9 373.5 169.7 375.7C216.2 376 268.7 376 319 376.3C328.4 376.6 353.4 376.6 365.9 376.7C367.3 376.1 371.8 374.5 372.5 374.1C373.6 394.9 371.6 425.8 370.5 443.9C374.1 445.6 374.9 407.2 375.6 403.3C376.9 375.9 378.3 338.2 378.6 312.9C379 290 379.2 245.9 381.5 235.3C383.4 217.3 383.5 208.1 406.9 210C421 210.2 428.9 210.8 435.7 212.7C443.9 213.7 444.6 215.3 448.2 222.2C449.4 225.6 450 228 448.8 228.7C450.6 229.6 450 229.9 450.4 242.2L450.5 252.5C449.7 252.8 447.3 253.6 449.2 253.9C451.7 254.1 450.1 257.9 450.7 264.7C450.8 273.3 450.7 274.6 450.2 274.8C449.7 275 449.7 275.1 450.2 275.8C450.7 276.5 450.7 277.9 450.6 284.9C450 318.3 449.6 362.7 448 393.5C443.4 442.5 456.7 442.4 414.1 444.5C367.6 444.7 304.2 446.3 257.7 445.3C225.6 445.3 173.2 448.1 142.2 446.1C141.1 446.7 136.3 449 136.1 449.2C136.1 449.4 202.3 449.1 207.2 448.8C258 447.9 307.7 450 356 449.3C356.1 451.5 356.4 458.4 356.9 459.4C357.4 460.4 359.3 460.9 362.9 461.2C366.7 461.5 366.9 461.2 368.5 455.6C370.3 449.1 370.3 449.1 373.1 449.1C388.2 449.8 399 447.2 397.6 451.8C397.1 464.4 398.9 470.1 399.1 485.2C399.2 489.7 399.6 494.6 399.9 496.1C400.5 499.4 400.5 499.2 400.1 498.9C399.6 498.6 399.6 499.1 400.1 499.8C400.5 500.4 400.9 500.4 410.7 500.6C413.9 500.7 414 500.7 414.5 499.8C416.2 488.8 416 477.3 417.4 465.9C418.1 463.1 417.6 450.6 418.4 448.8C424.4 447.1 442.6 449 446.4 442C447.5 442 447.2 438.1 448.3 437.7C449.3 437.8 449.3 433.7 449.5 432.5C454.6 433.2 463.5 430.9 469.6 429.7C479.2 428 479.2 426.9 486.1 421.4C487.8 420.1 487.9 419.8 487.7 418.8C488.2 404 490.2 386.8 490.9 371.8C492 357.3 492.4 336.9 493.7 321.2C494.1 311.5 494.3 308.8 494.8 307.9C497.3 304.9 488.8 299.5 484.9 299.3C481 298.7 481 298.7 481.7 297.7C485.4 292.5 485.4 285.7 478.1 285.5C482.4 284.2 488.5 282.1 490.3 279.7C496.8 272.7 492.5 266.7 482.7 268.3C485.6 266.8 492.3 261.1 492.8 259.2C495.2 256.2 499.1 244.6 490.6 244.4C497 241.2 506.8 221.5 492.3 223.2C499 217.9 504.5 200.9 491.5 202.3C495.4 197 504.9 182.5 496.4 177.4C492.7 175.3 488.1 176.7 485.3 179C480.6 181.1 477.2 194.2 475.2 198.6C474.8 192.7 475.5 193.4 474.6 184C473.8 178.9 479.3 178.9 482.7 175.6C483.5 174.9 487.9 170.9 490 168.9C499.2 161.7 494.7 146.1 484.2 156.2C480.4 159.8 474.8 170.3 474.4 174.2C473.9 175.3 474 172.1 473.8 169.5C473.6 165.2 473.6 164.8 474.1 165C480.5 156.5 488.6 146.2 491.3 133.7C491.9 129.5 488.3 127.1 484.8 129.9C479.5 133.5 477.8 138.1 474.5 145.1C474 139.5 472.6 123.4 462.9 121.6C453.5 127.7 464.9 146.4 468.7 153.1C471.8 156.7 472.4 165.8 472.1 169.8C467.4 149.7 440.1 151.2 455.2 172.8C459.6 178.5 459.4 180.9 466.4 186.5C472.4 191.6 471.8 190.7 471.9 194.2C472.3 198.5 472.5 198.3 472.2 202.6C472.1 205.7 472.2 205.8 471.3 201.7C470.2 196 468.1 190.1 466.3 187.5C445.5 164.2 435.3 190.7 466.1 207.2C468.4 209.3 469.2 208.7 470.7 210.9C471.6 212.4 471.6 213.8 470.7 221.9C470.2 224.9 470.8 229.9 468.9 224.4C464.6 214.4 459.7 199.1 447.8 202.2C443.8 206.2 446.4 213 449.9 218.2C452.1 222.6 464 225.3 469.4 228.6C470.2 228.6 470.2 228.2 467.9 243.8C467.6 245.5 467.5 245.6 466.8 244.1C464.2 239.8 458.5 231.3 453.9 228.9C452.2 228.1 452.1 227.9 451.6 226.1C449.7 220.7 448 216.9 443.1 213.9C440.3 211.9 436.7 211.4 435.6 208.6C435.1 207 435.1 206.9 435.9 206.4C442.3 202.8 442.7 196 434.6 195.4C440.4 191.4 445.8 185.3 440.1 180.8C439.8 180.3 435.1 180.8 436.8 179.9C441.8 175.4 445.8 174.5 445.8 168.4C447.2 159.3 434.8 160.2 433.3 166.9C440.3 159.3 445 161.9 442.4 171.8C441.1 174.5 433.2 180 430 181.8C429 183.5 428.5 179.8 427.9 179.7C426.4 184.7 431.7 199.9 432.7 205.8C433.3 208.8 434.9 209.8 431.9 209C422 207.5 417.2 207.4 404.9 207.3C363.5 207.3 376 222 376.7 196.2C376.8 184.1 375.5 189.2 372.9 178.6C369.8 175 382.4 144.6 384.4 162.5C384.4 164.4 384.5 164.8 384.8 163.9C385.6 162.2 388.3 163.7 387.8 160.7C388.1 153.9 379.8 154.9 376.5 158.2C373 160.4 370.7 176.8 370.2 169.6C369.5 164.3 369.5 164.1 370 164.1C371.2 164.1 375.3 158.6 376.4 156.9C380.5 151.7 385.1 145.3 384.4 137.1C384.5 128.7 383.5 127.3 375.1 129.4C377.7 125.5 381.6 117.1 382 112.9C382.2 111 381.7 103.4 380 102.5C377.9 100.5 373.2 101.4 371.7 103.8C370 106.1 368.8 110.9 367.9 113.3C367.5 103.8 366 93.4998 356.9 96.2998ZM361.8 97.1998C367.5 105.6 364.7 114.9 365 130.6C362.7 125.7 360 119.9 359.1 117.6C356.9 111.5 354.6 94.9998 361.8 97.1998ZM409.4 97.7998C414.3 100.6 424.2 118.8 420.7 124.5C417.2 120.3 407.7 110.8 404.3 105.3C401.8 101.1 404.4 94.4998 409.4 97.7998ZM378.9 102.5C383.6 113.8 373.7 127.4 367.3 137.3C367.7 134.2 368.4 121.1 369.1 118C370.5 113.8 373.7 97.3998 378.9 102.5ZM420.9 107.5C422.2 108.9 423 108.6 423.3 109.5C423.3 109.8 423.6 110.1 423.9 110.1C424.9 109.6 423.8 113.4 423.7 115.2C423.3 118 421.3 110.1 420.3 108.9C418.9 105.7 418.2 105.2 420.9 107.5ZM444.3 109C446.8 112.3 438.5 122.3 435.4 124.3C435.6 124.1 423.3 130.8 423.6 129.9C427.3 123.4 435.5 107.3 444.3 109ZM404.6 119.5C407.7 119.2 418.4 138.1 418.3 142.2C412.4 138.8 395.2 129.3 401 119.8C402 118.3 402.2 118.3 404.6 119.5ZM354.2 123.8C359.4 130.3 362.3 141.8 364.6 150.3C361 149.8 349.8 136.9 349.1 131.9C347.4 127.3 348.8 120 354.2 123.8ZM467.1 123.4C468.2 122.2 471.9 135.5 472.7 138.8L472.8 146.2C472.9 155.7 472.9 155.8 471 153.3C468.2 148.8 454.1 123.2 467.1 123.4ZM444.5 130.6C445 138.9 427.3 148.6 421.5 151.1C422.2 143.4 435 130.8 437.7 129.6C441.5 128.1 445.1 125.7 444.5 130.6ZM380.9 130C384.6 140.9 376.9 153.9 369.8 161.8C369.3 153.3 371 138.8 375.5 132C377.1 130.1 380 126.7 380.9 130ZM490 131C490 135.6 480.5 154.7 474.8 159.1C473.8 151.3 480.4 131.6 489.7 129.3C489.9 129.3 490 130.1 490 131ZM398.7 139.2C392.9 144.4 404.8 160.1 409.2 157.1C406 155.1 400 146.8 399.9 143.7C399.1 136.4 404 140 407.5 143.5C412.9 148.4 413.5 152.8 417.2 156.4C418.5 155.1 416.3 152.6 415.3 150.2C413 145.1 405.5 135.9 398.7 139.2ZM369.4 139.7C368.5 141.8 368.5 146.4 367.8 147.9C367.6 148 367 139.3 367.9 140C368.5 140.2 369.9 137.9 369.4 139.7ZM350.9 142.1C356.3 144.7 365.4 163 366.1 165.9C360.1 162.8 350.1 159 347 151.5C344.5 146.8 346 140 350.9 142.1ZM368.1 149.1C368.2 150.5 367.1 148.7 367.7 148.5C367.9 148.6 368.1 148.8 368.1 149.1ZM363.3 151.8L365.7 153.9C365.8 154.9 367.3 162.4 366.5 161.2C366 160.5 362.2 153.4 362.2 153.2C360.4 150.3 359.2 148.1 363.3 151.8ZM493.5 154.9C494.9 163.8 483.2 171.3 477.2 176C476.1 176.9 476.1 176.5 477.3 173.4C479.1 167.6 489 149.7 493.5 154.9ZM462.4 156.8C471.9 161.2 471 178.6 471.9 188.7C463.4 182.5 462.4 179.4 457.8 173C450.5 165.3 452.4 154.3 462.4 156.8ZM88.2999 160.1C79.3999 161.2 70.7 165 61.7999 167.3C61.5 168.5 45.2999 168.8 46.7999 172.2C49.5 173.5 51.5 171.3 56.2 171.2C61.9 170.4 62.4999 170.3 76.5999 166C93.8999 161 96.0999 160 107.9 166.9C109.2 167.5 109.2 167.5 108.4 166.9C102 161.7 96.2 159.2 88.2999 160.1ZM357.4 163.2C360.1 164.1 362.7 169.1 364.5 171.1C365.2 171.7 365.3 172.3 364.7 172.3C363.4 172.2 356.7 176.6 354.6 177.5C351.2 176.4 346.5 164 353.5 163C355.8 162.2 355.5 162.1 357.4 163.2ZM365.7 166.7C366.6 166.5 370.7 171.9 368.1 171.5C367.2 172.2 363.1 167.2 364.2 166.5C364.5 166.6 365.2 166.7 365.7 166.7ZM146.7 169.5C145 170.1 137.7 173.5 136.8 174.2C135.6 175.8 137 175.7 139.7 174.2C148 169.9 154.3 169.5 165.8 172.3C169 173.1 169.8 173.2 169.2 172.6C166 170.6 151 167.8 146.7 169.5ZM372.1 179.2C380.7 204.4 366.8 207.9 363.6 231.3C361.4 243.8 371.7 284.5 353.8 296.9C351 299 350.9 299 347 297.9C341.8 296.4 336.5 295.7 328.9 295.5C325.4 295.4 325.7 295 331.6 290.7C358.5 269.7 351.3 223.4 364.2 193.2C366.2 187.7 368.1 182.8 369.8 177.8C371 174.6 370.2 172.8 372.1 179.2ZM496.4 178C498.4 180.7 495.8 188.1 494.5 191.3C491.7 199.3 482.6 207.3 474.9 208.8C476.6 202.9 481.2 189.8 484.7 183.7C486.5 180.7 493.3 174.5 496.4 178ZM457.6 180C467.6 187.1 468.5 196.7 470.5 207.8C463.1 203.3 451.7 194.9 449.9 186.2C448.9 182.3 453.4 176.1 457.6 180ZM438.9 180.7C443.1 185.5 437.4 190.5 433.1 193.6C431.7 196.3 430.6 186.1 429.7 183.2C432.4 182.7 435.7 178.7 438.9 180.7ZM57 181.3C51.2999 183 48 184.5 44.7 186C42.2999 186.6 43.3999 189 43.5999 190.3C43.6999 190.4 46.2 189.4 49.2 188.2C65 180.8 79.8999 185.1 93.5999 191.7C101.1 195.9 108.9 205.6 114.2 210.6C112.9 206.7 107.2 201.7 103.7 198.7C93.2999 186.4 74.7 179.4 57 181.3ZM436.9 196.4C439.6 197.7 436 204.1 434.8 203.6C434.5 203.3 432.9 197.3 432.9 196.7C433.3 195.9 436 195.2 436.9 196.4ZM332.2 204.1C328 208.2 321.9 216.4 316.4 222.2C312 227.2 302.9 236.3 308.5 234.7C310.3 233.6 345.4 192.9 332.2 204.1ZM455.8 203.8C459 206.5 458.4 205.5 465.4 220.2C466.8 223.2 467.9 225.7 467.9 225.7C467.3 225.7 461.2 223.6 459.8 222.8C450.1 220.8 443.7 195.9 455.8 203.8ZM496.3 203.5C499.8 215.4 484.5 229.4 473.6 230C473 230.2 473 230.1 473.7 228.3C477.4 221 488 200.1 496.3 203.5ZM481.7 210.1C479.4 213.4 474.8 220.7 473.8 223.3C472.5 224.8 474.4 212.4 474.4 211.5C474.7 211.3 481.1 209.4 481.4 209.1C482.3 208.5 482.4 209.2 481.7 210.1ZM385.9 211.5C376.7 223.8 378 256.5 377 273.3C376.7 305.4 375.1 325.3 374.2 360.5C374 372.3 373.1 368 366.7 371.9C364.7 372.6 363.6 372.6 354.1 372.6C336.9 372.5 316.5 372.1 316 371.8C275.8 370.9 208.1 372.6 166.3 371.5C151.6 369.9 110.8 374.1 102 365.5C100.8 364.6 100.5 362.5 100.3 353.6C99.9999 343.3 98.7999 335.3 102.5 327.1C103.1 325.4 103.6 324.5 104 324.4C104.5 324.3 104.5 324.2 104.1 323.9C103.6 321.1 110.4 314.4 111.3 314.7C117.7 311.4 115.5 310.5 122.4 311.1C123 310.5 120.2 310.1 120.2 309.7C133.6 302.1 149.7 309.3 164.2 309C197.4 313.1 235.4 313 266.2 305.9C297.9 301.8 338.3 291.9 364.4 308.9C370.9 313.8 370.6 313.7 373.1 321.3C373.9 323.9 374.7 325 374.3 323C374.2 322.3 374.2 322.1 374.6 322.3C375 322.5 375 322.4 374.8 321.6C374.7 321 374.4 319.5 374.2 318.1C374.3 313.3 367.9 308.2 364.4 305.6C362.3 303.3 355.7 303.1 356.1 299.4C356.3 298.4 356.7 297.9 359.2 295.8C367.7 290.1 370.6 264.9 366 252.1C365.1 240.9 365.6 230.2 369.4 220.2C370.7 212.1 382.8 211 385.9 211.5ZM94.9999 221.4C113.3 252.5 115.3 239.3 82.5999 238.6C70.7999 239.2 83.5999 235.9 84.0999 232C72.5999 238.2 73 239.3 58.5 240.1C61.7999 236.5 76.2999 227.5 71.8999 223.2C68.4999 219.7 54.2999 232.9 53.7 233.5C55.6 234.7 58.8999 230.5 61.5999 228.9C72.5999 220.1 75.6 223.6 64.7 232.2C60.5 235 55.8999 241.2 51.2999 241.4C49.5999 241.1 49.5 241.3 50.7 242.8C52 244.9 55.7 242.1 57.2 243.9C55.4 240.8 61.2999 242.3 79.9999 241.3C106.1 239.5 125 251.7 147.7 256.4C148.2 255.9 147 255.2 144.7 254.6C135.7 251.5 121.3 247.2 112.4 243.9C111.8 243.8 111.4 243.5 111.5 243.2C111.3 242 108.9 239.6 108.5 238.5C105.3 235.6 97.9999 221.8 94.9999 221.4ZM497.6 226.5C496.5 239.4 482.9 247.3 471.4 246.8C479 236.6 486.3 225.5 497 224.2C497.8 224.2 497.8 224.2 497.6 226.5ZM455.2 231.1C456 231.9 464.8 242.8 466.6 247.5C464.5 249.6 462.4 248.8 459.3 249.5C451.6 250.4 453.9 248.9 453.4 240.4C454.1 235.1 451.1 225.8 455.2 231.1ZM479.7 231.2C479 231 470.6 244.8 470.8 242.2C471.1 241.4 472 234.5 472.2 232.4L474.7 231.6C479.1 230.1 481.1 229.9 479.7 231.2ZM55.5999 244.8C56.0999 244.9 56.6999 244.9 57.0999 244.8C58 244.6 54.3999 244.6 55.5999 244.8ZM493.4 245.8C494.2 258.7 481.6 268.2 469.6 269.1C474.2 262.9 485.8 243 493.4 245.8ZM269.8 245.8C266.3 246.4 264.2 246.7 259.9 247.1C244.6 249.2 276.1 247.9 269.8 245.8ZM479.7 250.2C475.5 255.8 468.7 264.9 467.1 270.3C465.5 271 466.7 268.8 466.9 266.2C468.4 258.8 468.6 254.2 470.3 248.3C472.3 248.4 478.1 248.7 479.2 248.3C481.5 247.4 481.6 247.8 479.7 250.2ZM467.2 249.7C467 249 464.5 271.2 463.4 267.4C462.9 265.4 461.1 261 459.6 258.4C459.7 256.7 449.7 249.8 454.7 250.4C455.1 251.2 468.2 248.2 467.2 249.7ZM455 257.3C458.4 262 461.3 268.4 462.6 273.2C460.7 274.5 455.3 270.6 453.7 268.4C454.1 265.6 452.5 252.8 455 257.3ZM355.8 265.8C353.2 268.8 345 276.8 343.7 280.1C346.7 280.2 363.6 260.1 355.8 265.8ZM490.4 269.9C491.1 281.3 479.1 282 470 285.7C463 288.3 462.2 288.5 462.2 287.7C467.7 282.4 482.9 264.7 490.4 269.9ZM476.3 270.4C472.3 273.8 466.2 279 463.3 283.6C465 274.6 463.1 278.2 468.9 276.1C468 275.2 464.5 274.8 465.8 272.5C466 271.9 466.2 271.8 467.1 271.9C469.4 272.1 474.2 269.6 476.3 270.4ZM226 271.3C228.1 274 248.7 302.5 247.3 293.8C246.4 293.2 240.8 285.9 240.1 285.2C238.5 284 226.5 268.3 226 271.3ZM454.7 272.5C464.6 278.4 463.6 270.8 459.6 288C458.3 285.4 458 282.2 455.4 278.7C454 277.4 452.7 270.4 454.7 272.5ZM456.2 286.4C457.3 289.8 457.3 291.9 457.3 294.9C454.2 293.6 453.1 293.7 453.3 289C453.3 285.9 453.5 283.4 453.8 280.8C454.9 282.3 455.3 283.6 456.2 286.4ZM480.7 287C486.7 302.6 436.1 320 462.6 299C463.2 298.7 463.6 298.3 463.5 298.2C462.7 298.3 478.7 283.2 480.7 287ZM471.6 287.5C470.2 288.8 464.7 292.9 463.2 294.6C460.8 297.1 461 296.7 459.3 295.9C459.9 294.2 461 290.8 461.6 289.1C464.2 289.1 466.8 289.2 469.2 288.1C472.1 287 471.9 287.1 471.6 287.5ZM454.5 295.5C454.6 296 453.2 296.3 453.3 295.5C453.3 294.9 454.4 294.9 454.5 295.5ZM489.6 303.1C489.6 303.6 488.9 303.6 488.9 303.1C488.9 302.6 489.6 302.6 489.6 303.1ZM493.8 304.6C493.6 305 492.9 304.7 492.9 304.2C493 303.7 494.1 304.3 493.8 304.6ZM468.5 307.9C469.6 308.7 467.3 308.6 466.4 308.6C463.3 308.5 468.2 307.1 468.5 307.9ZM492.1 310.5C488.6 338.1 488.8 364.2 486 392.3C485.6 398.4 485 404.2 484.7 409.5C484.1 416.8 484.4 416.8 481.1 419C473.7 425.9 462 426 452.7 429C450.8 429.6 450.3 429.6 450.2 429.3C449.9 428.6 450.3 415.5 450.8 411C453.5 392.1 452.6 327.7 454 311.3C455.6 309.9 464.6 312 474.4 311.5C483.9 311.5 488.3 311.2 490.5 310.4C491.6 309.9 492.4 310 492.1 310.5ZM415 458.5C413.3 471.5 412.4 485.4 411.3 498.3C411 498.6 406 498.9 404.7 498.6C402.5 498.2 404 497 403.2 494.9C402.2 483.3 401.7 467.3 400.7 455.8C405.6 456.5 410.3 455.2 415.3 455.4L415 458.5Z" fill="#1E1919"/>
<path id="fixed-line/color__illustration__fixedline" fill-rule="evenodd" clip-rule="evenodd" d="M267.3 111.5C259.8 113.8 272.5 114.8 274.3 115.1C276.5 115.5 273.1 113.6 272.3 113.4C281.4 113.5 270.3 110.4 267.3 111.5ZM297.8 115.4C297 116.2 296.9 116.6 296.9 119C296.1 124.9 301.1 120.4 299.3 125.6C297.3 131.5 303.8 128.6 304.7 125.1C305.7 122.5 302.3 118.6 298.9 118.6C297.8 118.6 297.8 118.5 298.6 117.3C300.6 114.4 302.5 115.7 303.9 117.5C305.3 116.2 298.8 113.1 297.8 115.4ZM305.8 114.6C309.9 122.5 309.8 129.7 301.9 133.4C307.8 135.9 312 128.8 309.7 123.1C308.8 120.8 308.3 115.4 305.8 114.6ZM266.7 118.4C266.3 118.9 267.2 120.9 266.2 120.9C265.3 120.9 266.9 121.6 268 121.6C268.9 121.3 271.8 125 272.1 123.5C271.3 122.2 269.1 121.7 272.9 121.6C277.8 121.3 272.1 120.5 269.3 121C268.1 121.4 268.2 115.9 266.7 118.4ZM302 120.3C304.6 122 302.2 127.5 300.5 127.8C301.2 125.7 302.3 122.1 299.2 121.8C298.5 121.7 298.3 121.5 298.3 120.8C298.4 119.1 301.2 119 302 120.3ZM265.1 128.7C265.1 129.4 265.9 130.8 266.4 130.8C267.5 130.8 265.9 128.4 265.1 128.7ZM269.1 133.9C267.1 136.6 264.2 135.5 262.9 137.2C264.6 137.6 271.7 136.9 270.8 134C270.5 132.8 270.2 132.8 269.1 133.9ZM104.5 138.5C107.5 146.8 117 158.6 122.2 167.5C123.3 168.5 131.8 184.2 132.6 182.2C132.8 181.6 130.4 177.6 121.9 164.5C120.4 162.2 119 160 118.9 159.7C118.5 158.1 107.6 142.2 105.5 138.6C105.4 138.1 104.7 138.1 104.5 138.5ZM271.2 142.2C268.3 142.8 268.1 142.9 268.7 143.5C269.3 144.1 276.2 143.3 276.6 142.6C277.3 141.4 275.4 141.3 271.2 142.2ZM271.9 147.4C267.8 149.2 276.3 148.7 274.6 147C274 146.6 273.6 146.7 271.9 147.4ZM160.9 152.3C163.2 159.4 168.6 169.6 172.4 177.8C174.5 183.7 176.9 190.1 179.3 195.9C182.4 200.3 183.3 206.7 185.9 206.8C188.3 206.8 188.4 206.6 187.2 204.1C185.8 200.4 182.5 195 181.4 191.2C180.5 189.2 174.8 172.9 172.2 168.5C171.3 166.4 163.1 146.2 160.9 152.3ZM433 155.2C430.6 159.8 417.5 191.5 412.6 203.1C405.8 220.7 441.4 142.5 433 155.2ZM175.4 154C172.5 154.3 170.7 154.4 170.6 154.1C170.4 153.5 168.2 153.6 169 154.6C171.9 164 175.8 172.7 180.3 182.4C190.2 201.7 183 200.3 199.7 191.1C200 193.9 200.7 203.3 202.2 204C202.6 204 202.9 203 202.7 202.1C201.6 194.8 201.5 191.9 201.9 188.7C202.6 184.8 202 184.6 205.6 186.6C208.3 188.1 210.6 189.1 209.2 188C206 186.4 198.2 181.3 204.4 178.4C202.5 179.3 197.5 177.6 197.4 175.4C197.8 173.2 194.5 175.7 196.9 176.7C201.1 178.9 202.5 181.8 200.9 186.7C200.1 189 199.4 190.3 199.4 189.3C198.4 186 195.8 179.9 194.5 176.5C193.2 172.7 192.3 176.1 193.9 179.1C198.6 190.7 198.5 190.3 196.1 191.6C189.9 195.1 185.9 200.5 189.1 186.7C192.4 170 187.8 186.5 186.4 191C186 190.7 183.3 183.8 182.3 182.3C178.8 180.7 184.7 166.3 183.2 165.1C182.5 165.3 181.1 174.7 180.1 176.9C175.4 169.4 177.1 167 179 156.1C179.2 154 180.6 155 182 154.5C182.8 152.5 188 164.2 188.1 164.4C188.2 164.8 188.4 164.8 188.7 164.6C189.5 162.2 185.7 155.3 184.8 153.9C184 153.3 182.1 153.3 175.4 154ZM178 155.8C176.5 163.4 175.8 166.1 175.5 166.2C175 166.4 171.1 155.7 171 155.7C170.9 155.4 171.6 155.2 173.7 155.1C178.1 155 178.2 155 178 155.8ZM424.4 156C414.6 158.9 393.8 160.6 386.2 165.4C384.3 168.9 375.8 186.3 377 186.6C379.2 184.2 386.2 167.8 388.4 164.9C388.6 164.6 400.8 162.4 400.7 162.6C386.6 177.3 391.4 173.5 403.6 161.6C408.3 160.6 426.4 156.7 428 156.6C429.4 156.4 424.1 165.7 423.8 167.5L417.4 173.9C406.1 185.2 400.1 191.4 400.1 191.8C398.1 196.2 422.2 170.4 422 171.4C422 171.8 418.7 179.8 414.9 188.5C399.3 224.9 415.3 191.5 421.8 175.9C428.4 158.8 434.5 153.3 424.4 156ZM187.7 167.1C186.7 168.4 193.1 170.6 193 167.9C190.4 170.3 189.7 166.5 187.7 167.1ZM403.4 177.4C399.9 181.3 385.6 193.2 387.2 195.2C386.5 196.8 417 166.7 403.4 177.4ZM426.5 182.2C423.9 188.7 419.7 199.7 416 205.6C415.4 206.2 415.5 206.2 417.9 206.5C424.1 207.1 432.7 208.2 433.2 208.4C433.8 208.8 433.6 207.5 432.5 204.7C430.4 197.3 429.2 188.2 427.1 180.8L426.5 182.2ZM132.8 183C133.2 198.5 139 216.5 142.3 232.1C144.6 235.9 145 256.5 148.7 256.1C146.4 240.6 140.8 219.8 137.7 204.3C137 199.1 131.9 182.6 135.4 183.9C139.1 183.8 134.1 181.9 132.8 183ZM210.2 202.7C209.1 203.4 211 203 211.3 202.7C212.4 202 210.5 202.4 210.2 202.7ZM430.7 206.6C431.1 207.1 431.1 207.1 430.6 206.9C429.7 206.7 429.8 205.4 430.7 206.6ZM207.1 209C209.9 213.4 213.1 220.8 216.6 224.2C217.4 224.3 210.5 212.7 209.1 210.2C209 209.3 205 205.5 207.1 209ZM144.6 215.4C146.3 225.9 150.1 240 152.9 251C154.2 253.8 153.7 258.4 155.5 257.4C156.6 257.5 155 253.1 155.2 252.8C155.3 252.7 156.9 253 158.8 253.3C163.4 253.8 228.1 266.3 215.2 260.5C197.4 256.8 172.8 254.5 155.4 250.7C152.6 244.3 151.2 239 149 228.5C147.6 224 146.7 213.6 144.6 215.4ZM148.7 215.5C149.8 216 159.3 217 159.7 216.6C157.2 215.1 152.2 216.1 148.3 215.1C147.7 215 147.8 215.1 148.7 215.5ZM168.3 219.2C166.7 219.5 157.1 225.2 157.2 226.3C160.2 226.5 170.3 219.4 172.9 220.8C174.6 220.8 182 222.1 184.2 222.8C185.4 220.8 170.9 218.3 168.3 219.2ZM153.4 223C153.9 223.8 150.5 225.5 150.6 226.2C150.2 228.2 155.1 223.6 153.9 223.1C153.4 222.1 153.2 222.1 153.4 223ZM188 223.1C188 223.5 189.5 224.6 189.9 224.6C191.3 224.6 188.1 222.6 188 223.1ZM169.8 225.1C168.5 225.6 167.5 226.2 161.5 230.3C157.1 232.9 152.1 238.4 158 234.5C164.6 231 168.8 224.3 177.4 227.5C180.1 228.3 182.7 228.8 182.3 228.4C180.9 228 171.3 223.6 169.8 225.1ZM188.6 227.7C188.7 228.2 192 230.5 189.7 228.3C188.5 227 188.3 226.9 188.6 227.7ZM170 232.7C163.8 234.3 162.2 236.7 157.5 239.4C156.6 239.5 156 241.7 157 240.9C157.8 240.3 157.4 241.3 158.4 240.3C165.1 234.2 174.5 231.8 183.9 234.4C182 233.3 173.6 231.1 170 232.7ZM187.6 235.8C187.5 236.2 189.3 237.3 189.5 236.8C189.6 236.6 187.5 234.9 187.6 235.8ZM181.9 242.4C186.5 246 191.2 249.3 195.7 252.4C197.4 252.5 193.5 249.6 192.2 248.9C189.7 247.6 183.8 241.8 181.9 242.4ZM285.4 255.2C286.7 257.2 289.3 264.9 291.6 265.2C291.8 265 288.6 258.8 287.2 256.9C285.8 255 285.4 254.7 285.4 255.2Z" fill="#1E1919"/>
</g>
</svg>
